SplineFontDB: 1.0
FontName: THBaijam
FullName: THBaijam
FamilyName: TH Baijam
Weight: Book
Copyright: Copyright (c) 2006 by Department of Intellectual Property (DIP), Ministry of Commerce and Software Industry Promotion Agency (Public Organization) (SIPA). All rights reserved.
Version: 1.1
ItalicAngle: 0
UnderlinePosition: -35
UnderlineWidth: 30
Ascent: 800
Descent: 200
Order2: 1
XUID: [1021 375 425136265 7827742]
FSType: 0
OS2Version: 3
OS2_WeightWidthSlopeOnly: 0
OS2_UseTypoMetrics: 1
CreationTime: 1154326859
ModificationTime: 1174381530
PfmFamily: 17
TTFWeight: 400
TTFWidth: 5
LineGap: 60
VLineGap: 0
Panose: 2 0 5 6 0 0 0 2 0 4
OS2TypoAscent: 0
OS2TypoAOffset: 1
OS2TypoDescent: 0
OS2TypoDOffset: 1
OS2TypoLinegap: 0
OS2WinAscent: 0
OS2WinAOffset: 1
OS2WinDescent: -108
OS2WinDOffset: 1
HheadAscent: 0
HheadAOffset: 1
HheadDescent: 108
HheadDOffset: 1
OS2SubXSize: 700
OS2SubYSize: 650
OS2SubXOff: 0
OS2SubYOff: 140
OS2SupXSize: 700
OS2SupYSize: 650
OS2SupXOff: 0
OS2SupYOff: 477
OS2StrikeYSize: 30
OS2StrikeYPos: 250
OS2FamilyClass: 773
OS2Vendor: 'IPTH'
ScriptLang: 2
 1 latn 1 dflt 
 0 
ChainSub: coverage 0 0 'liga' 0 0 0 1
 1 0 1
  Coverage: 64 uni0E48.alt2 uni0E49.alt2 uni0E4A.alt2 uni0E4B.alt2 uni0E4C.alt2
  FCoverage: 7 uni0E33
 1
  SeqLookup: 0 'L027'
EndFPST
ChainSub: coverage 0 0 'liga' 0 0 0 1
 1 1 0
  Coverage: 7 uni0E47
  BCoverage: 12 uni0E2C.alt1
 1
  SeqLookup: 0 'L026'
EndFPST
ChainSub: coverage 0 0 'liga' 0 0 0 1
 1 0 1
  Coverage: 7 uni0E2C
  FCoverage: 39 uni0E34 uni0E35 uni0E36 uni0E37 uni0E47
 1
  SeqLookup: 0 'L026'
EndFPST
ChainSub: coverage 0 0 'liga' 0 0 0 1
 1 0 1
  Coverage: 15 uni0E0E uni0E0F
  FCoverage: 38 uni0E38.alt1 uni0E39.alt1 uni0E3A.alt1
 1
  SeqLookup: 0 'L026'
EndFPST
ChainSub: coverage 0 0 'liga' 0 0 0 1
 1 1 0
  Coverage: 5 a b c
  BCoverage: 23 uni0E1B uni0E1D uni0E1F
 1
  SeqLookup: 0 'L026'
EndFPST
ChainSub: coverage 0 0 'liga' 0 0 0 1
 1 0 1
  Coverage: 5 a b c

StartChar: .notdef
Encoding: 65536 -1 0
Width: 500
Flags: W
Fore
386 53 m 1,0,-1
 386 646 l 1,1,-1
 112 646 l 1,2,-1
 112 53 l 1,3,-1
 386 53 l 1,0,-1
436 0 m 1,4,-1
 63 0 l 1,5,-1
 63 695 l 1,6,-1
 436 695 l 1,7,-1
 436 0 l 1,4,-1
EndSplineSet
EndChar
StartChar: numbersign
Encoding: 35 35 4
Width: 437
Flags: W
Fore
287 132 m 1,0,-1
 159 132 l 1,1,-1
 159 0 l 1,2,-1
 117 0 l 1,3,-1
 117 132 l 1,4,-1
 38 132 l 1,5,-1
 38 174 l 1,6,-1
 117 174 l 1,7,-1
 117 312 l 1,8,-1
 38 312 l 1,9,-1
 38 354 l 1,10,-1
 117 354 l 1,11,-1
 117 475 l 1,12,-1
 159 475 l 1,13,-1
 159 354 l 1,14,-1
 287 354 l 1,15,-1
 287 475 l 1,16,-1
 329 475 l 1,17,-1
 329 354 l 1,18,-1
 401 354 l 1,19,-1
 401 312 l 1,20,-1
 329 312 l 1,21,-1
 329 174 l 1,22,-1
 401 174 l 1,23,-1
 401 132 l 1,24,-1
 329 132 l 1,25,-1
 329 0 l 1,26,-1
 287 0 l 1,27,-1
 287 132 l 1,0,-1
159 174 m 1,28,-1
 287 174 l 1,29,-1
 287 312 l 1,30,-1
 159 312 l 1,31,-1
 159 174 l 1,28,-1
EndSplineSet
EndChar
StartChar: dollar
Encoding: 36 36 5
Width: 363
Flags: W
Fore
167 0 m 1,0,-1
 129 0 l 2,1,2
 82 0 82 0 50 27 c 128,-1,3
 18 54 18 54 18 101 c 1,4,-1
 63 101 l 1,5,6
 63 74 63 74 82.5 59.5 c 128,-1,7
 102 45 102 45 129 45 c 2,8,-1
 167 45 l 1,9,-1
 167 226 l 1,10,-1
 112 250 l 2,11,12
 65 270 65 270 49.5 300 c 128,-1,13
 34 330 34 330 34 362 c 0,14,15
 34 387 34 387 44 407.5 c 128,-1,16
 54 428 54 428 71 443 c 128,-1,17
 88 458 88 458 109.5 466.5 c 128,-1,18
 131 475 131 475 154 475 c 2,19,-1
 167 475 l 1,20,-1
 167 525 l 1,21,-1
 209 525 l 1,22,-1
 209 475 l 1,23,-1
 223 475 l 2,24,25
 270 475 270 475 302 448 c 128,-1,26
 334 421 334 421 334 374 c 1,27,-1
 289 374 l 1,28,29
 289 401 289 401 269.5 415.5 c 128,-1,30
 250 430 250 430 223 430 c 2,31,-1
 209 430 l 1,32,-1
 209 253 l 1,33,-1
 265 229 l 2,34,35
 313 208 313 208 328 182.5 c 128,-1,36
 343 157 343 157 343 119 c 0,37,38
 343 98 343 98 333.5 76.5 c 128,-1,39
 324 55 324 55 308 38 c 128,-1,40
 292 21 292 21 270 10.5 c 128,-1,41
 248 0 248 0 223 0 c 2,42,-1
 209 0 l 1,43,-1
 209 -53 l 1,44,-1
 167 -53 l 1,45,-1
 167 0 l 1,0,-1
209 208 m 1,46,-1
 209 45 l 1,47,-1
 223 45 l 2,48,49
 232 45 232 45 245 51 c 128,-1,50
 258 57 258 57 269.5 67.5 c 128,-1,51
 281 78 281 78 289.5 91 c 128,-1,52
 298 104 298 104 298 118 c 0,53,54
 298 146 298 146 289 162 c 128,-1,55
 280 178 280 178 254 189 c 2,56,-1
 209 208 l 1,46,-1
79 363 m 0,57,58
 79 343 79 343 86 323 c 128,-1,59
 93 303 93 303 123 290 c 2,60,-1
 167 271 l 1,61,-1
 167 430 l 1,62,-1
 154 430 l 2,63,64
 126 430 126 430 102.5 411 c 128,-1,65
 79 392 79 392 79 363 c 0,57,58
EndSplineSet
EndChar
StartChar: percent
Encoding: 37 37 6
Width: 581
Flags: W
Fore
136 450 m 2,0,1
 121 450 121 450 107.5 443 c 128,-1,2
 94 436 94 436 84 424.5 c 128,-1,3
 74 413 74 413 68 398.5 c 128,-1,4
 62 384 62 384 62 369 c 2,5,-1
 62 285 l 2,6,7
 62 254 62 254 80 236 c 128,-1,8
 98 218 98 218 130 218 c 2,9,-1
 152 218 l 2,10,11
 184 218 184 218 206.5 242 c 128,-1,12
 229 266 229 266 229 297 c 2,13,-1
 229 384 l 2,14,15
 229 415 229 415 211.5 432.5 c 128,-1,16
 194 450 194 450 160 450 c 2,17,-1
 136 450 l 2,0,1
102 361 m 2,18,19
 102 379 102 379 115 393.5 c 128,-1,20
 128 408 128 408 148 408 c 2,21,-1
 152 408 l 2,22,23
 189 408 189 408 189 374 c 2,24,-1
 189 305 l 2,25,26
 189 287 189 287 175 273.5 c 128,-1,27
 161 260 161 260 143 260 c 2,28,-1
 139 260 l 2,29,30
 102 260 102 260 102 295 c 2,31,-1
 102 361 l 2,18,19
421 243 m 2,32,33
 406 243 406 243 392.5 236 c 128,-1,34
 379 229 379 229 369 218 c 128,-1,35
 359 207 359 207 353 192 c 128,-1,36
 347 177 347 177 347 162 c 2,37,-1
 347 78 l 2,38,39
 347 48 347 48 365 30 c 128,-1,40
 383 12 383 12 415 12 c 2,41,-1
 437 12 l 2,42,43
 469 12 469 12 491.5 35.5 c 128,-1,44
 514 59 514 59 514 91 c 2,45,-1
 514 178 l 2,46,47
 514 208 514 208 496.5 225.5 c 128,-1,48
 479 243 479 243 445 243 c 2,49,-1
 421 243 l 2,32,33
135 -17 m 1,50,-1
 392 490 l 1,51,-1
 436 490 l 1,52,-1
 181 -17 l 1,53,-1
 135 -17 l 1,50,-1
387 155 m 2,54,55
 387 173 387 173 400 187.5 c 128,-1,56
 413 202 413 202 433 202 c 2,57,-1
 437 202 l 2,58,59
 474 202 474 202 474 168 c 2,60,-1
 474 99 l 2,61,62
 474 81 474 81 460 67.5 c 128,-1,63
 446 54 446 54 428 54 c 2,64,-1
 424 54 l 2,65,66
 387 54 387 54 387 89 c 2,67,-1
 387 155 l 2,54,55
EndSplineSet
EndChar
StartChar: ampersand
Encoding: 38 38 7
Width: 436
Flags: W
Fore
376 211 m 1,0,1
 376 181 376 181 366 149 c 128,-1,2
 356 117 356 117 339 88 c 1,3,4
 354 69 354 69 367.5 53 c 128,-1,5
 381 37 381 37 391 25 c 0,6,7
 402 11 402 11 413 0 c 1,8,-1
 357 0 l 1,9,10
 351 7 351 7 344 15 c 0,11,12
 338 22 338 22 330 31.5 c 128,-1,13
 322 41 322 41 313 53 c 1,14,15
 289 27 289 27 257.5 10.5 c 128,-1,16
 226 -6 226 -6 189 -6 c 2,17,-1
 160 -6 l 2,18,19
 137 -6 137 -6 114.5 5 c 128,-1,20
 92 16 92 16 74.5 33.5 c 128,-1,21
 57 51 57 51 46.5 73.5 c 128,-1,22
 36 96 36 96 36 119 c 2,23,-1
 36 141 l 2,24,25
 36 161 36 161 44.5 178.5 c 128,-1,26
 53 196 53 196 67.5 211 c 128,-1,27
 82 226 82 226 100.5 238.5 c 128,-1,28
 119 251 119 251 139 262 c 1,29,-1
 122 282 l 2,30,31
 108 297 108 297 98.5 314.5 c 128,-1,32
 89 332 89 332 89 354 c 2,33,-1
 89 362 l 2,34,35
 89 386 89 386 98 406.5 c 128,-1,36
 107 427 107 427 122.5 442 c 128,-1,37
 138 457 138 457 158.5 466 c 128,-1,38
 179 475 179 475 202 475 c 2,39,-1
 228 475 l 2,40,41
 267 475 267 475 294 448 c 128,-1,42
 321 421 321 421 321 382 c 2,43,-1
 321 373 l 2,44,45
 321 350 321 350 312.5 331.5 c 128,-1,46
 304 313 304 313 289 299 c 128,-1,47
 274 285 274 285 254.5 273.5 c 128,-1,48
 235 262 235 262 213 252 c 2,49,-1
 205 248 l 1,50,51
 227 222 227 222 253.5 190 c 128,-1,52
 280 158 280 158 307 126 c 1,53,54
 318 148 318 148 324.5 170.5 c 128,-1,55
 331 193 331 193 331 211 c 1,56,-1
 376 211 l 1,0,1
166 230 m 1,57,58
 150 222 150 222 135 212 c 128,-1,59
 120 202 120 202 108 190.5 c 128,-1,60
 96 179 96 179 88.5 166.5 c 128,-1,61
 81 154 81 154 81 141 c 2,62,-1
 81 119 l 2,63,64
 81 105 81 105 88.5 91 c 128,-1,65
 96 77 96 77 107 65.5 c 128,-1,66
 118 54 118 54 132 46.5 c 128,-1,67
 146 39 146 39 160 39 c 2,68,-1
 189 39 l 2,69,70
 217 39 217 39 241 53 c 128,-1,71
 265 67 265 67 283 90 c 1,72,-1
 166 230 l 1,57,58
200 292 m 0,73,74
 231 306 231 306 254 325 c 128,-1,75
 277 344 277 344 277 373 c 2,76,-1
 277 381 l 2,77,78
 277 402 277 402 262 417 c 128,-1,79
 247 432 247 432 226 432 c 2,80,-1
 202 432 l 2,81,82
 173 432 173 432 153 411.5 c 128,-1,83
 133 391 133 391 133 362 c 2,84,-1
 133 355 l 2,85,86
 133 342 133 342 140 332 c 128,-1,87
 147 322 147 322 153 312 c 1,88,89
 155 307 155 307 177 281 c 1,90,91
 183 284 183 284 189 286.5 c 128,-1,92
 195 289 195 289 200 292 c 0,73,74
EndSplineSet
EndChar
StartChar: quotesingle
Encoding: 39 39 8
Width: 125
Flags: W
Fore
36 505 m 1,0,-1
 83 505 l 1,1,-1
 83 359 l 1,2,-1
 36 359 l 1,3,-1
 36 505 l 1,0,-1
EndSplineSet
KernsSLIFO: 135 -70 0 0 34 -70 0 0
EndChar
StartChar: parenleft
Encoding: 40 40 9
Width: 217
Flags: W
Fore
138 -137 m 1,0,1
 95 -68 95 -68 71 9.5 c 128,-1,2
 47 87 47 87 47 169 c 0,3,4
 47 254 47 254 69 328.5 c 128,-1,5
 91 403 91 403 138 475 c 1,6,-1
 187 475 l 1,7,8
 140 403 140 403 116 328.5 c 128,-1,9
 92 254 92 254 92 169 c 0,10,11
 92 87 92 87 118 9.5 c 128,-1,12
 144 -68 144 -68 187 -137 c 1,13,-1
 138 -137 l 1,0,1
EndSplineSet
KernsSLIFO: 75 70 0 0
EndChar
StartChar: parenright
Encoding: 41 41 10
Width: 217
Flags: W
Fore
47 -137 m 1,0,1
 90 -68 90 -68 116 9.5 c 128,-1,2
 142 87 142 87 142 169 c 0,3,4
 142 254 142 254 118 328.5 c 128,-1,5
 94 403 94 403 47 475 c 1,6,-1
 96 475 l 1,7,8
 143 403 143 403 165 328.5 c 128,-1,9
 187 254 187 254 187 169 c 0,10,11
 187 87 187 87 163 9.5 c 128,-1,12
 139 -68 139 -68 96 -137 c 1,13,-1
 47 -137 l 1,0,1
EndSplineSet
EndChar
StartChar: asterisk
Encoding: 42 42 11
Width: 313
Flags: W
Fore
137 456 m 1,0,-1
 137 554 l 1,1,-1
 172 554 l 1,2,-1
 172 457 l 1,3,-1
 256 506 l 1,4,5
 257 503 257 503 260 499 c 0,6,7
 262 495 262 495 265.5 489.5 c 128,-1,8
 269 484 269 484 274 476 c 1,9,-1
 188 427 l 1,10,-1
 274 378 l 1,11,-1
 256 348 l 1,12,-1
 172 396 l 1,13,-1
 172 300 l 1,14,-1
 137 300 l 1,15,-1
 137 397 l 1,16,-1
 53 349 l 1,17,-1
 35 379 l 1,18,-1
 118 427 l 1,19,-1
 35 475 l 1,20,21
 36 478 36 478 39 482 c 0,22,23
 41 486 41 486 44.5 491.5 c 128,-1,24
 48 497 48 497 53 505 c 1,25,-1
 137 456 l 1,0,-1
EndSplineSet
EndChar
StartChar: plus
Encoding: 43 43 12
Width: 381
Flags: W
Fore
212 199 m 1,0,-1
 212 66 l 1,1,-1
 170 66 l 1,2,-1
 170 199 l 1,3,-1
 37 199 l 1,4,-1
 37 241 l 1,5,-1
 170 241 l 1,6,-1
 170 374 l 1,7,-1
 212 374 l 1,8,-1
 212 241 l 1,9,-1
 345 241 l 1,10,-1
 345 199 l 1,11,-1
 212 199 l 1,0,-1
EndSplineSet
EndChar
StartChar: comma
Encoding: 44 44 13
Width: 154
Flags: W
Fore
67 62 m 1,0,-1
 108 62 l 1,1,-1
 108 35 l 2,2,3
 108 6 108 6 100 -13 c 128,-1,4
 92 -32 92 -32 81 -45 c 128,-1,5
 70 -58 70 -58 58 -66 c 128,-1,6
 46 -74 46 -74 38 -80 c 1,7,-1
 15 -48 l 1,8,9
 22 -41 22 -41 31.5 -34.5 c 128,-1,10
 41 -28 41 -28 48.5 -19 c 128,-1,11
 56 -10 56 -10 61.5 3 c 128,-1,12
 67 16 67 16 67 35 c 2,13,-1
 67 62 l 1,0,-1
EndSplineSet
KernsSLIFO: 24 -50 0 0
EndChar
StartChar: hyphen
Encoding: 45 45 14
Width: 237
Flags: W
Fore
28 187 m 1,0,-1
 28 233 l 1,1,-1
 208 233 l 1,2,-1
 208 187 l 1,3,-1
 28 187 l 1,0,-1
EndSplineSet
EndChar
StartChar: period
Encoding: 46 46 15
Width: 181
Flags: W
Fore
59 30 m 256,0,1
 59 45 59 45 69 55 c 128,-1,2
 79 65 79 65 94 65 c 256,3,4
 109 65 109 65 119 55 c 128,-1,5
 129 45 129 45 129 30 c 256,6,7
 129 15 129 15 119 5 c 128,-1,8
 109 -5 109 -5 94 -5 c 256,9,10
 79 -5 79 -5 69 5 c 128,-1,11
 59 15 59 15 59 30 c 256,0,1
EndSplineSet
KernsSLIFO: 24 -50 0 0
EndChar
StartChar: slash
Encoding: 47 47 16
Width: 301
Flags: W
Fore
-1 -17 m 1,0,-1
 256 490 l 1,1,-1
 300 490 l 1,2,-1
 45 -17 l 1,3,-1
 -1 -17 l 1,0,-1
EndSplineSet
EndChar
StartChar: zero
Encoding: 48 48 17
Width: 381
Flags: W
Fore
210 480 m 2,0,1
 278 480 278 480 314 442 c 128,-1,2
 350 404 350 404 350 341 c 2,3,-1
 350 163 l 2,4,5
 350 131 350 131 337.5 100.5 c 128,-1,6
 325 70 325 70 303 46.5 c 128,-1,7
 281 23 281 23 252.5 9 c 128,-1,8
 224 -5 224 -5 193 -5 c 2,9,-1
 171 -5 l 2,10,11
 105 -5 105 -5 68.5 34 c 128,-1,12
 32 73 32 73 32 136 c 2,13,-1
 32 308 l 2,14,15
 32 339 32 339 44 370 c 128,-1,16
 56 401 56 401 77 425.5 c 128,-1,17
 98 450 98 450 125.5 465 c 128,-1,18
 153 480 153 480 183 480 c 2,19,-1
 210 480 l 2,0,1
77 136 m 2,20,21
 77 92 77 92 101 63.5 c 128,-1,22
 125 35 125 35 170 35 c 2,23,-1
 187 35 l 2,24,25
 210 35 210 35 231.5 46.5 c 128,-1,26
 253 58 253 58 269.5 76.5 c 128,-1,27
 286 95 286 95 295.5 117.5 c 128,-1,28
 305 140 305 140 305 163 c 2,29,-1
 305 341 l 2,30,31
 305 385 305 385 281 412.5 c 128,-1,32
 257 440 257 440 211 440 c 2,33,-1
 194 440 l 2,34,35
 170 440 170 440 148.5 428.5 c 128,-1,36
 127 417 127 417 111.5 398 c 128,-1,37
 96 379 96 379 86.5 355.5 c 128,-1,38
 77 332 77 332 77 308 c 2,39,-1
 77 136 l 2,20,21
EndSplineSet
EndChar
StartChar: one
Encoding: 49 49 18
Width: 272
Flags: W
Fore
141 0 m 1,0,-1
 141 368 l 1,1,2
 119 346 119 346 92 336.5 c 128,-1,3
 65 327 65 327 33 326 c 1,4,-1
 33 367 l 1,5,6
 54 367 54 367 73.5 376 c 128,-1,7
 93 385 93 385 108 400 c 128,-1,8
 123 415 123 415 132 434.5 c 128,-1,9
 141 454 141 454 141 475 c 1,10,-1
 186 475 l 1,11,-1
 186 0 l 1,12,-1
 141 0 l 1,0,-1
EndSplineSet
EndChar
StartChar: two
Encoding: 50 50 19
Width: 388
Flags: W
Fore
208 488 m 2,0,1
 276 488 276 488 312 452.5 c 128,-1,2
 348 417 348 417 348 354 c 0,3,4
 348 321 348 321 336 297.5 c 128,-1,5
 324 274 324 274 289 248 c 2,6,-1
 122 125 l 2,7,8
 96 106 96 106 88.5 82.5 c 128,-1,9
 81 59 81 59 81 40 c 1,10,-1
 356 40 l 1,11,-1
 356 0 l 1,12,-1
 32 0 l 1,13,-1
 32 45 l 2,14,15
 32 80 32 80 46 107 c 128,-1,16
 60 134 60 134 85 153 c 2,17,-1
 275 294 l 2,18,19
 286 302 286 302 294.5 319.5 c 128,-1,20
 303 337 303 337 303 354 c 0,21,22
 303 448 303 448 209 448 c 2,23,-1
 192 448 l 2,24,25
 158 448 158 448 129 431 c 128,-1,26
 100 414 100 414 80 390 c 1,27,-1
 44 417 l 1,28,29
 70 450 70 450 108.5 469 c 128,-1,30
 147 488 147 488 192 488 c 2,31,-1
 208 488 l 2,0,1
EndSplineSet
EndChar
StartChar: three
Encoding: 51 51 20
Width: 392
Flags: W
Fore
137 295 m 1,0,-1
 231 295 l 2,1,2
 257 297 257 297 274 312 c 128,-1,3
 291 327 291 327 291 354 c 0,4,5
 291 448 291 448 197 448 c 2,6,-1
 180 448 l 2,7,8
 146 448 146 448 117 431 c 128,-1,9
 88 414 88 414 68 390 c 1,10,-1
 32 417 l 1,11,12
 58 450 58 450 96.5 469 c 128,-1,13
 135 488 135 488 180 488 c 2,14,-1
 196 488 l 2,15,16
 264 488 264 488 300 452.5 c 128,-1,17
 336 417 336 417 336 354 c 0,18,19
 336 304 336 304 302 276 c 1,20,21
 329 257 329 257 344.5 226.5 c 128,-1,22
 360 196 360 196 360 164 c 0,23,24
 360 126 360 126 346.5 95.5 c 128,-1,25
 333 65 333 65 309 42.5 c 128,-1,26
 285 20 285 20 252.5 8 c 128,-1,27
 220 -4 220 -4 183 -4 c 0,28,29
 128 -4 128 -4 91 16.5 c 128,-1,30
 54 37 54 37 22 77 c 1,31,-1
 56 107 l 1,32,33
 82 77 82 77 112 56.5 c 128,-1,34
 142 36 142 36 184 36 c 0,35,36
 210 36 210 36 234 46 c 128,-1,37
 258 56 258 56 276 73.5 c 128,-1,38
 294 91 294 91 304.5 114.5 c 128,-1,39
 315 138 315 138 315 164 c 0,40,41
 315 182 315 182 308 198 c 128,-1,42
 301 214 301 214 289 227 c 128,-1,43
 277 240 277 240 261 247.5 c 128,-1,44
 245 255 245 255 226 255 c 2,45,-1
 137 255 l 1,46,-1
 137 295 l 1,0,-1
EndSplineSet
EndChar
StartChar: four
Encoding: 52 52 21
Width: 391
Flags: W
Fore
260 0 m 1,0,-1
 260 98 l 1,1,-1
 77 98 l 2,2,3
 56 98 56 98 44 108.5 c 128,-1,4
 32 119 32 119 32 140 c 1,5,-1
 260 475 l 1,6,-1
 305 475 l 1,7,-1
 305 138 l 1,8,-1
 366 138 l 1,9,-1
 366 98 l 1,10,-1
 305 98 l 1,11,-1
 305 0 l 1,12,-1
 260 0 l 1,0,-1
260 397 m 1,13,-1
 87 138 l 1,14,-1
 260 138 l 1,15,-1
 260 397 l 1,13,-1
EndSplineSet
EndChar
StartChar: five
Encoding: 53 53 22
Width: 402
Flags: W
Fore
344 435 m 1,0,-1
 120 435 l 1,1,-1
 120 295 l 1,2,-1
 249 295 l 2,3,4
 276 295 276 295 298.5 283.5 c 128,-1,5
 321 272 321 272 336.5 253.5 c 128,-1,6
 352 235 352 235 361 211.5 c 128,-1,7
 370 188 370 188 370 164 c 0,8,9
 370 126 370 126 356.5 95.5 c 128,-1,10
 343 65 343 65 319 42.5 c 128,-1,11
 295 20 295 20 262.5 8 c 128,-1,12
 230 -4 230 -4 193 -4 c 0,13,14
 138 -4 138 -4 101 16.5 c 128,-1,15
 64 37 64 37 32 77 c 1,16,-1
 66 107 l 1,17,18
 92 77 92 77 122 56.5 c 128,-1,19
 152 36 152 36 194 36 c 0,20,21
 220 36 220 36 244 46 c 128,-1,22
 268 56 268 56 286 73.5 c 128,-1,23
 304 91 304 91 314.5 114.5 c 128,-1,24
 325 138 325 138 325 164 c 0,25,26
 325 182 325 182 318 198 c 128,-1,27
 311 214 311 214 299 227 c 128,-1,28
 287 240 287 240 271 247.5 c 128,-1,29
 255 255 255 255 236 255 c 2,30,-1
 75 255 l 1,31,-1
 75 475 l 1,32,-1
 344 475 l 1,33,-1
 344 435 l 1,0,-1
EndSplineSet
EndChar
StartChar: six
Encoding: 54 54 23
Width: 397
Flags: W
Fore
225 298 m 2,0,1
 293 298 293 298 329 263.5 c 128,-1,2
 365 229 365 229 365 166 c 2,3,-1
 365 159 l 2,4,5
 365 127 365 127 352.5 97.5 c 128,-1,6
 340 68 340 68 318 45.5 c 128,-1,7
 296 23 296 23 267.5 9.5 c 128,-1,8
 239 -4 239 -4 208 -4 c 2,9,-1
 186 -4 l 2,10,11
 137 -4 137 -4 105.5 17 c 128,-1,12
 74 38 74 38 57 74 c 0,13,14
 46 98 46 98 41 131 c 128,-1,15
 36 164 36 164 36 191 c 2,16,-1
 36 298 l 2,17,18
 36 338 36 338 51 372.5 c 128,-1,19
 66 407 66 407 91.5 432.5 c 128,-1,20
 117 458 117 458 151.5 473 c 128,-1,21
 186 488 186 488 225 488 c 0,22,23
 256 488 256 488 282 479.5 c 128,-1,24
 308 471 308 471 328 456 c 1,25,-1
 301 419 l 1,26,27
 286 430 286 430 266.5 439 c 128,-1,28
 247 448 247 448 225 448 c 0,29,30
 195 448 195 448 169 436 c 128,-1,31
 143 424 143 424 123.5 404 c 128,-1,32
 104 384 104 384 92.5 356.5 c 128,-1,33
 81 329 81 329 81 299 c 2,34,-1
 81 234 l 1,35,36
 102 263 102 263 132.5 280.5 c 128,-1,37
 163 298 163 298 198 298 c 2,38,-1
 225 298 l 2,0,1
92 133 m 0,39,40
 92 88 92 88 116 62 c 128,-1,41
 140 36 140 36 185 36 c 2,42,-1
 202 36 l 2,43,44
 225 36 225 36 246.5 47 c 128,-1,45
 268 58 268 58 284.5 75 c 128,-1,46
 301 92 301 92 310.5 114 c 128,-1,47
 320 136 320 136 320 159 c 2,48,-1
 320 166 l 2,49,50
 320 210 320 210 296 234 c 128,-1,51
 272 258 272 258 226 258 c 2,52,-1
 209 258 l 2,53,54
 185 258 185 258 163.5 247.5 c 128,-1,55
 142 237 142 237 126.5 219.5 c 128,-1,56
 111 202 111 202 101.5 179.5 c 128,-1,57
 92 157 92 157 92 133 c 0,39,40
EndSplineSet
EndChar
StartChar: seven
Encoding: 55 55 24
Width: 368
Flags: W
Fore
25 476 m 1,0,-1
 344 476 l 1,1,-1
 344 446 l 1,2,-1
 199 142 l 2,3,4
 183 109 183 109 176 72.5 c 128,-1,5
 169 36 169 36 169 0 c 1,6,-1
 124 0 l 1,7,8
 126 35 126 35 130.5 71.5 c 128,-1,9
 135 108 135 108 149 140 c 0,10,11
 156 156 156 156 165 176 c 128,-1,12
 174 196 174 196 189 228.5 c 128,-1,13
 204 261 204 261 227.5 311 c 128,-1,14
 251 361 251 361 287 436 c 1,15,-1
 25 436 l 1,16,-1
 25 476 l 1,0,-1
EndSplineSet
KernsSLIFO: 15 -70 0 0 13 -70 0 0
EndChar
StartChar: eight
Encoding: 56 56 25
Width: 393
Flags: W
Fore
290 260 m 1,0,1
 321 246 321 246 341 214 c 128,-1,2
 361 182 361 182 361 145 c 0,3,4
 361 107 361 107 347.5 79 c 128,-1,5
 334 51 334 51 310 32.5 c 128,-1,6
 286 14 286 14 253.5 4.5 c 128,-1,7
 221 -5 221 -5 184 -5 c 2,8,-1
 171 -5 l 2,9,10
 141 -5 141 -5 116 4 c 128,-1,11
 91 13 91 13 72 29.5 c 128,-1,12
 53 46 53 46 42.5 70.5 c 128,-1,13
 32 95 32 95 32 125 c 0,14,15
 32 158 32 158 51.5 192.5 c 128,-1,16
 71 227 71 227 103 250 c 1,17,18
 79 265 79 265 65.5 287 c 128,-1,19
 52 309 52 309 52 341 c 0,20,21
 52 370 52 370 63 395.5 c 128,-1,22
 74 421 74 421 93 440 c 128,-1,23
 112 459 112 459 137 470 c 128,-1,24
 162 481 162 481 190 481 c 2,25,-1
 215 481 l 2,26,27
 277 481 277 481 310 448 c 128,-1,28
 343 415 343 415 343 358 c 0,29,30
 343 330 343 330 326.5 302.5 c 128,-1,31
 310 275 310 275 290 260 c 1,0,1
194 236 m 2,32,33
 170 236 170 236 148.5 225 c 128,-1,34
 127 214 127 214 111.5 197 c 128,-1,35
 96 180 96 180 86.5 160.5 c 128,-1,36
 77 141 77 141 77 125 c 0,37,38
 77 83 77 83 103.5 59 c 128,-1,39
 130 35 130 35 170 35 c 2,40,-1
 183 35 l 2,41,42
 210 35 210 35 234 42.5 c 128,-1,43
 258 50 258 50 276.5 64 c 128,-1,44
 295 78 295 78 305.5 98.5 c 128,-1,45
 316 119 316 119 316 145 c 0,46,47
 316 163 316 163 308 179 c 128,-1,48
 300 195 300 195 287 208 c 128,-1,49
 274 221 274 221 258 228.5 c 128,-1,50
 242 236 242 236 227 236 c 2,51,-1
 194 236 l 2,32,33
207 276 m 2,52,53
 225 277 225 277 241.5 285 c 128,-1,54
 258 293 258 293 270.5 305 c 128,-1,55
 283 317 283 317 290 331.5 c 128,-1,56
 297 346 297 346 297 358 c 0,57,58
 297 396 297 396 276.5 418.5 c 128,-1,59
 256 441 256 441 215 441 c 2,60,-1
 200 441 l 2,61,62
 179 441 179 441 160.5 433.5 c 128,-1,63
 142 426 142 426 127.5 412.5 c 128,-1,64
 113 399 113 399 105 381 c 128,-1,65
 97 363 97 363 97 342 c 0,66,67
 97 322 97 322 105.5 309 c 128,-1,68
 114 296 114 296 126 288.5 c 128,-1,69
 138 281 138 281 150.5 278.5 c 128,-1,70
 163 276 163 276 170 276 c 2,71,-1
 207 276 l 2,52,53
EndSplineSet
EndChar
StartChar: nine
Encoding: 57 57 26
Width: 393
Flags: W
Fore
172 187 m 2,0,1
 104 187 104 187 68 221 c 128,-1,2
 32 255 32 255 32 318 c 2,3,-1
 32 325 l 2,4,5
 32 357 32 357 44.5 386.5 c 128,-1,6
 57 416 57 416 79 438.5 c 128,-1,7
 101 461 101 461 129 474.5 c 128,-1,8
 157 488 157 488 189 488 c 2,9,-1
 211 488 l 2,10,11
 260 488 260 488 291.5 467 c 128,-1,12
 323 446 323 446 340 410 c 0,13,14
 351 386 351 386 356 352.5 c 128,-1,15
 361 319 361 319 361 292 c 2,16,-1
 361 185 l 2,17,18
 361 145 361 145 346 110.5 c 128,-1,19
 331 76 331 76 305.5 50.5 c 128,-1,20
 280 25 280 25 245.5 10.5 c 128,-1,21
 211 -4 211 -4 172 -4 c 0,22,23
 141 -4 141 -4 115 4.5 c 128,-1,24
 89 13 89 13 69 28 c 1,25,-1
 96 65 l 1,26,27
 111 54 111 54 130.5 45 c 128,-1,28
 150 36 150 36 172 36 c 0,29,30
 202 36 202 36 228 48 c 128,-1,31
 254 60 254 60 273.5 80 c 128,-1,32
 293 100 293 100 304.5 127.5 c 128,-1,33
 316 155 316 155 316 185 c 2,34,-1
 316 250 l 1,35,36
 295 221 295 221 264.5 204 c 128,-1,37
 234 187 234 187 199 187 c 2,38,-1
 172 187 l 2,0,1
305 351 m 0,39,40
 305 396 305 396 281 422 c 128,-1,41
 257 448 257 448 212 448 c 2,42,-1
 195 448 l 2,43,44
 172 448 172 448 150.5 437 c 128,-1,45
 129 426 129 426 112.5 409 c 128,-1,46
 96 392 96 392 86.5 369.5 c 128,-1,47
 77 347 77 347 77 325 c 2,48,-1
 77 318 l 2,49,50
 77 274 77 274 101 250.5 c 128,-1,51
 125 227 125 227 171 227 c 2,52,-1
 188 227 l 2,53,54
 212 227 212 227 233.5 237.5 c 128,-1,55
 255 248 255 248 270.5 265 c 128,-1,56
 286 282 286 282 295.5 304.5 c 128,-1,57
 305 327 305 327 305 351 c 0,39,40
EndSplineSet
EndChar
StartChar: colon
Encoding: 58 58 27
Width: 200
Flags: W
Fore
71 53 m 256,0,1
 71 68 71 68 81 78 c 128,-1,2
 91 88 91 88 106 88 c 256,3,4
 121 88 121 88 131 78 c 128,-1,5
 141 68 141 68 141 53 c 256,6,7
 141 38 141 38 131 28 c 128,-1,8
 121 18 121 18 106 18 c 256,9,10
 91 18 91 18 81 28 c 128,-1,11
 71 38 71 38 71 53 c 256,0,1
71 298 m 256,12,13
 71 313 71 313 81 323 c 128,-1,14
 91 333 91 333 106 333 c 256,15,16
 121 333 121 333 131 323 c 128,-1,17
 141 313 141 313 141 298 c 256,18,19
 141 283 141 283 131 273 c 128,-1,20
 121 263 121 263 106 263 c 256,21,22
 91 263 91 263 81 273 c 128,-1,23
 71 283 71 283 71 298 c 256,12,13
EndSplineSet
EndChar
StartChar: semicolon
Encoding: 59 59 28
Width: 200
Flags: W
Fore
71 298 m 256,0,1
 71 313 71 313 81 323 c 128,-1,2
 91 333 91 333 106 333 c 256,3,4
 121 333 121 333 131 323 c 128,-1,5
 141 313 141 313 141 298 c 256,6,7
 141 283 141 283 131 273 c 128,-1,8
 121 263 121 263 106 263 c 256,9,10
 91 263 91 263 81 273 c 128,-1,11
 71 283 71 283 71 298 c 256,0,1
92 94 m 1,12,-1
 133 94 l 1,13,-1
 133 67 l 2,14,15
 133 38 133 38 125 19 c 128,-1,16
 117 0 117 0 106 -13 c 128,-1,17
 95 -26 95 -26 83 -34 c 128,-1,18
 71 -42 71 -42 63 -48 c 1,19,-1
 40 -16 l 1,20,21
 47 -9 47 -9 56.5 -2.5 c 128,-1,22
 66 4 66 4 73.5 13 c 128,-1,23
 81 22 81 22 86.5 35 c 128,-1,24
 92 48 92 48 92 67 c 2,25,-1
 92 94 l 1,12,-1
EndSplineSet
EndChar
StartChar: less
Encoding: 60 60 29
Width: 412
Flags: W
Fore
380 408 m 1,0,-1
 380 363 l 1,1,-1
 110 200 l 1,2,-1
 380 38 l 1,3,-1
 380 -7 l 1,4,-1
 32 200 l 1,5,-1
 380 408 l 1,0,-1
EndSplineSet
EndChar
StartChar: equal
Encoding: 61 61 30
Width: 350
Flags: W
Fore
28 123 m 1,0,-1
 28 169 l 1,1,-1
 308 169 l 1,2,-1
 308 123 l 1,3,-1
 28 123 l 1,0,-1
28 251 m 1,4,-1
 28 297 l 1,5,-1
 308 297 l 1,6,-1
 308 251 l 1,7,-1
 28 251 l 1,4,-1
EndSplineSet
EndChar
StartChar: greater
Encoding: 62 62 31
Width: 413
Flags: W
Fore
380 200 m 1,0,-1
 32 -7 l 1,1,-1
 32 38 l 1,2,-1
 302 200 l 1,3,-1
 32 363 l 1,4,-1
 32 408 l 1,5,-1
 380 200 l 1,0,-1
EndSplineSet
EndChar
StartChar: question
Encoding: 63 63 32
Width: 358
Flags: W
Fore
119 30 m 256,0,1
 119 45 119 45 129 55 c 128,-1,2
 139 65 139 65 154 65 c 256,3,4
 169 65 169 65 179 55 c 128,-1,5
 189 45 189 45 189 30 c 256,6,7
 189 15 189 15 179 5 c 128,-1,8
 169 -5 169 -5 154 -5 c 256,9,10
 139 -5 139 -5 129 5 c 128,-1,11
 119 15 119 15 119 30 c 256,0,1
15 439 m 1,12,13
 29 455 29 455 58 465.5 c 128,-1,14
 87 476 87 476 125 476 c 2,15,-1
 180 476 l 2,16,17
 209 476 209 476 235 468 c 128,-1,18
 261 460 261 460 280.5 444 c 128,-1,19
 300 428 300 428 311.5 404 c 128,-1,20
 323 380 323 380 323 349 c 0,21,22
 323 313 323 313 298.5 281 c 128,-1,23
 274 249 274 249 214 223 c 0,24,25
 200 217 200 217 192 207 c 128,-1,26
 184 197 184 197 179.5 186 c 128,-1,27
 175 175 175 175 174 164.5 c 128,-1,28
 173 154 173 154 173 148 c 2,29,-1
 173 109 l 1,30,-1
 128 109 l 1,31,-1
 128 148 l 2,32,33
 128 160 128 160 131 175.5 c 128,-1,34
 134 191 134 191 143 207.5 c 128,-1,35
 152 224 152 224 167.5 239.5 c 128,-1,36
 183 255 183 255 209 267 c 0,37,38
 250 286 250 286 264 306 c 128,-1,39
 278 326 278 326 278 349 c 0,40,41
 278 390 278 390 249 411 c 128,-1,42
 220 432 220 432 180 432 c 2,43,-1
 125 432 l 2,44,45
 94 432 94 432 71 422.5 c 128,-1,46
 48 413 48 413 35 399 c 1,47,-1
 15 439 l 1,12,13
EndSplineSet
EndChar
StartChar: at
Encoding: 64 64 33
Width: 601
Flags: W
Fore
360 290 m 2,0,1
 358 312 358 312 342 326.5 c 128,-1,2
 326 341 326 341 304 341 c 2,3,-1
 271 341 l 2,4,5
 239 341 239 341 217 319.5 c 128,-1,6
 195 298 195 298 195 265 c 2,7,-1
 195 186 l 2,8,9
 195 163 195 163 211 147 c 128,-1,10
 227 131 227 131 250 131 c 2,11,-1
 284 131 l 2,12,13
 316 131 316 131 337.5 151.5 c 128,-1,14
 359 172 359 172 360 204 c 2,15,-1
 360 290 l 2,0,1
474 23 m 1,16,17
 448 3 448 3 417.5 -7.5 c 128,-1,18
 387 -18 387 -18 353 -18 c 2,19,-1
 210 -18 l 2,20,21
 175 -18 175 -18 144 -5 c 128,-1,22
 113 8 113 8 90.5 30.5 c 128,-1,23
 68 53 68 53 55 84 c 128,-1,24
 42 115 42 115 42 150 c 2,25,-1
 42 289 l 2,26,27
 42 332 42 332 58 369.5 c 128,-1,28
 74 407 74 407 102 434.5 c 128,-1,29
 130 462 130 462 167 477.5 c 128,-1,30
 204 493 204 493 246 493 c 2,31,-1
 388 493 l 2,32,33
 423 493 423 493 454 480 c 128,-1,34
 485 467 485 467 507.5 444.5 c 128,-1,35
 530 422 530 422 543 391 c 128,-1,36
 556 360 556 360 556 325 c 2,37,-1
 556 255 l 2,38,39
 556 211 556 211 548.5 180.5 c 128,-1,40
 541 150 541 150 527.5 131 c 128,-1,41
 514 112 514 112 494.5 103.5 c 128,-1,42
 475 95 475 95 451 95 c 0,43,44
 422 95 422 95 404.5 109 c 128,-1,45
 387 123 387 123 379 139 c 1,46,47
 371 126 371 126 359.5 117 c 128,-1,48
 348 108 348 108 335 102.5 c 128,-1,49
 322 97 322 97 308.5 94.5 c 128,-1,50
 295 92 295 92 284 92 c 2,51,-1
 250 92 l 2,52,53
 210 92 210 92 183 119 c 128,-1,54
 156 146 156 146 156 186 c 2,55,-1
 156 265 l 2,56,57
 156 289 156 289 165 310 c 128,-1,58
 174 331 174 331 190 346.5 c 128,-1,59
 206 362 206 362 226.5 371 c 128,-1,60
 247 380 247 380 271 380 c 2,61,-1
 304 380 l 2,62,63
 321 380 321 380 335 375.5 c 128,-1,64
 349 371 349 371 360 363 c 1,65,-1
 360 380 l 1,66,-1
 399 380 l 1,67,-1
 399 205 l 2,68,69
 399 177 399 177 412.5 156.5 c 128,-1,70
 426 136 426 136 451 136 c 0,71,72
 469 136 469 136 481.5 145.5 c 128,-1,73
 494 155 494 155 501.5 171.5 c 128,-1,74
 509 188 509 188 512 209.5 c 128,-1,75
 515 231 515 231 515 256 c 2,76,-1
 515 328 l 2,77,78
 515 354 515 354 505.5 376.5 c 128,-1,79
 496 399 496 399 479 416 c 128,-1,80
 462 433 462 433 439.5 442.5 c 128,-1,81
 417 452 417 452 391 452 c 2,82,-1
 244 452 l 2,83,84
 211 452 211 452 181.5 439.5 c 128,-1,85
 152 427 152 427 130.5 405.5 c 128,-1,86
 109 384 109 384 96 354.5 c 128,-1,87
 83 325 83 325 83 291 c 2,88,-1
 83 147 l 2,89,90
 83 121 83 121 92.5 98.5 c 128,-1,91
 102 76 102 76 119 59 c 128,-1,92
 136 42 136 42 158.5 32.5 c 128,-1,93
 181 23 181 23 207 23 c 2,94,-1
 355 23 l 2,95,96
 408 23 408 23 450 56 c 1,97,-1
 474 23 l 1,16,17
EndSplineSet
EndChar
StartChar: A
Encoding: 65 65 34
Width: 523
Flags: W
Fore
236 476 m 1,0,1
 257 476 257 476 275.5 467 c 128,-1,2
 294 458 294 458 302 440 c 2,3,-1
 498 0 l 1,4,-1
 448 0 l 1,5,-1
 389 133 l 1,6,-1
 133 133 l 1,7,-1
 75 0 l 1,8,-1
 25 0 l 1,9,-1
 236 476 l 1,0,1
150 173 m 1,10,-1
 371 173 l 1,11,-1
 261 422 l 1,12,-1
 150 173 l 1,10,-1
EndSplineSet
KernsSLIFO: 309 -50 0 0 306 -50 0 0 90 -10 0 0 88 -60 0 0 87 -60 0 0 86 -10 0 0 85 -10 0 0 58 -90 0 0 56 -110 0 0 55 -110 0 0 54 -20 0 0 53 -70 0 0 52 -30 0 0 14 -30 0 0
EndChar
StartChar: B
Encoding: 66 66 35
Width: 474
Flags: W
Fore
86 0 m 2,0,1
 69 0 69 0 56.5 13.5 c 128,-1,2
 44 27 44 27 44 44 c 2,3,-1
 44 475 l 1,4,-1
 275 475 l 2,5,6
 300 475 300 475 322.5 464.5 c 128,-1,7
 345 454 345 454 361.5 437 c 128,-1,8
 378 420 378 420 387.5 397.5 c 128,-1,9
 397 375 397 375 397 350 c 0,10,11
 397 324 397 324 386.5 303 c 128,-1,12
 376 282 376 282 359 263 c 1,13,14
 377 256 377 256 393 242.5 c 128,-1,15
 409 229 409 229 420 212 c 128,-1,16
 431 195 431 195 437.5 175 c 128,-1,17
 444 155 444 155 444 135 c 0,18,19
 444 110 444 110 434.5 86 c 128,-1,20
 425 62 425 62 408.5 43 c 128,-1,21
 392 24 392 24 369.5 12 c 128,-1,22
 347 0 347 0 322 0 c 2,23,-1
 86 0 l 2,0,1
322 40 m 2,24,25
 337 40 337 40 351 49 c 128,-1,26
 365 58 365 58 375 72 c 128,-1,27
 385 86 385 86 391 103 c 128,-1,28
 397 120 397 120 397 135 c 256,29,30
 397 150 397 150 391 166.5 c 128,-1,31
 385 183 385 183 375 196.5 c 128,-1,32
 365 210 365 210 351 219 c 128,-1,33
 337 228 337 228 322 228 c 2,34,-1
 89 228 l 1,35,-1
 89 40 l 1,36,-1
 322 40 l 2,24,25
89 435 m 1,37,-1
 89 268 l 1,38,-1
 275 268 l 2,39,40
 290 268 290 268 304 275 c 128,-1,41
 318 282 318 282 328 293.5 c 128,-1,42
 338 305 338 305 344 320 c 128,-1,43
 350 335 350 335 350 350 c 256,44,45
 350 365 350 365 344 380.5 c 128,-1,46
 338 396 338 396 328 408 c 128,-1,47
 318 420 318 420 304 427.5 c 128,-1,48
 290 435 290 435 275 435 c 2,49,-1
 89 435 l 1,37,-1
EndSplineSet
KernsSLIFO: 53 -40 0 0
EndChar
StartChar: C
Encoding: 67 67 36
Width: 468
Flags: W
Fore
387 333 m 1,0,1
 387 355 387 355 378.5 375.5 c 128,-1,2
 370 396 370 396 355 411.5 c 128,-1,3
 340 427 340 427 320 436 c 128,-1,4
 300 445 300 445 277 445 c 2,5,-1
 223 445 l 2,6,7
 193 445 193 445 167 431.5 c 128,-1,8
 141 418 141 418 121.5 396 c 128,-1,9
 102 374 102 374 90.5 345 c 128,-1,10
 79 316 79 316 79 286 c 2,11,-1
 79 155 l 2,12,13
 79 132 79 132 87.5 109.5 c 128,-1,14
 96 87 96 87 111 69.5 c 128,-1,15
 126 52 126 52 146 41 c 128,-1,16
 166 30 166 30 189 30 c 2,17,-1
 245 30 l 2,18,19
 274 30 274 30 300.5 40.5 c 128,-1,20
 327 51 327 51 346.5 70 c 128,-1,21
 366 89 366 89 377.5 114.5 c 128,-1,22
 389 140 389 140 389 169 c 1,23,-1
 434 169 l 1,24,25
 434 129 434 129 419 96 c 128,-1,26
 404 63 404 63 378 39.5 c 128,-1,27
 352 16 352 16 318 3 c 128,-1,28
 284 -10 284 -10 245 -10 c 2,29,-1
 189 -10 l 2,30,31
 157 -10 157 -10 128.5 3.5 c 128,-1,32
 100 17 100 17 79 40 c 128,-1,33
 58 63 58 63 46 93 c 128,-1,34
 34 123 34 123 34 155 c 2,35,-1
 34 286 l 2,36,37
 34 326 34 326 49 362 c 128,-1,38
 64 398 64 398 89.5 425.5 c 128,-1,39
 115 453 115 453 149.5 469 c 128,-1,40
 184 485 184 485 223 485 c 2,41,-1
 277 485 l 2,42,43
 310 485 310 485 338 473.5 c 128,-1,44
 366 462 366 462 387 441.5 c 128,-1,45
 408 421 408 421 420 393.5 c 128,-1,46
 432 366 432 366 432 333 c 1,47,-1
 387 333 l 1,0,1
EndSplineSet
EndChar
StartChar: D
Encoding: 68 68 37
Width: 488
Flags: W
Fore
86 0 m 2,0,1
 69 0 69 0 56.5 13.5 c 128,-1,2
 44 27 44 27 44 44 c 2,3,-1
 44 475 l 1,4,-1
 288 475 l 2,5,6
 321 475 321 475 349.5 463 c 128,-1,7
 378 451 378 451 399 430 c 128,-1,8
 420 409 420 409 432 380.5 c 128,-1,9
 444 352 444 352 444 319 c 2,10,-1
 444 190 l 2,11,12
 444 150 444 150 429 115 c 128,-1,13
 414 80 414 80 388 54.5 c 128,-1,14
 362 29 362 29 328 14.5 c 128,-1,15
 294 0 294 0 255 0 c 2,16,-1
 86 0 l 2,0,1
89 40 m 1,17,-1
 255 40 l 2,18,19
 284 40 284 40 310.5 52 c 128,-1,20
 337 64 337 64 356.5 84.5 c 128,-1,21
 376 105 376 105 387.5 132 c 128,-1,22
 399 159 399 159 399 190 c 2,23,-1
 399 319 l 2,24,25
 399 342 399 342 390.5 363 c 128,-1,26
 382 384 382 384 367 400 c 128,-1,27
 352 416 352 416 331.5 425.5 c 128,-1,28
 311 435 311 435 288 435 c 2,29,-1
 89 435 l 1,30,-1
 89 40 l 1,17,-1
EndSplineSet
KernsSLIFO: 314 -40 0 0 59 -20 0 0 58 -20 0 0 57 -20 0 0 56 -20 0 0 53 -30 0 0 43 -20 0 0 15 -40 0 0 13 -40 0 0
EndChar
StartChar: E
Encoding: 69 69 38
Width: 468
Flags: W
Fore
44 475 m 1,0,-1
 424 475 l 1,1,-1
 424 435 l 1,2,-1
 89 435 l 1,3,-1
 89 268 l 1,4,-1
 375 268 l 1,5,-1
 375 228 l 1,6,-1
 89 228 l 1,7,-1
 89 40 l 1,8,-1
 424 40 l 1,9,-1
 424 0 l 1,10,-1
 86 0 l 2,11,12
 69 0 69 0 56.5 13.5 c 128,-1,13
 44 27 44 27 44 44 c 2,14,-1
 44 475 l 1,0,-1
EndSplineSet
EndChar
StartChar: F
Encoding: 70 70 39
Width: 468
Flags: W
Fore
89 228 m 1,0,-1
 89 0 l 1,1,-1
 44 0 l 1,2,-1
 44 475 l 1,3,-1
 424 475 l 1,4,-1
 424 435 l 1,5,-1
 89 435 l 1,6,-1
 89 268 l 1,7,-1
 375 268 l 1,8,-1
 375 228 l 1,9,-1
 89 228 l 1,0,-1
EndSplineSet
KernsSLIFO: 314 -40 0 0 196 -50 0 0 185 -50 0 0 167 -50 0 0 135 -90 0 0 80 -50 0 0 70 -50 0 0 66 -50 0 0 43 -60 0 0 34 -90 0 0 15 -40 0 0 13 -40 0 0
EndChar
StartChar: G
Encoding: 71 71 40
Width: 468
Flags: W
Fore
434 169 m 2,0,1
 434 129 434 129 419 96 c 128,-1,2
 404 63 404 63 378 39.5 c 128,-1,3
 352 16 352 16 318 3 c 128,-1,4
 284 -10 284 -10 245 -10 c 2,5,-1
 189 -10 l 2,6,7
 157 -10 157 -10 128.5 3.5 c 128,-1,8
 100 17 100 17 79 40 c 128,-1,9
 58 63 58 63 46 93 c 128,-1,10
 34 123 34 123 34 155 c 2,11,-1
 34 286 l 2,12,13
 34 326 34 326 49 362 c 128,-1,14
 64 398 64 398 89.5 425.5 c 128,-1,15
 115 453 115 453 149.5 469 c 128,-1,16
 184 485 184 485 223 485 c 2,17,-1
 277 485 l 2,18,19
 310 485 310 485 338 473.5 c 128,-1,20
 366 462 366 462 387 441.5 c 128,-1,21
 408 421 408 421 420 393.5 c 128,-1,22
 432 366 432 366 432 333 c 1,23,-1
 387 333 l 1,24,25
 387 355 387 355 378.5 375.5 c 128,-1,26
 370 396 370 396 355 411.5 c 128,-1,27
 340 427 340 427 320 436 c 128,-1,28
 300 445 300 445 277 445 c 2,29,-1
 223 445 l 2,30,31
 193 445 193 445 167 431.5 c 128,-1,32
 141 418 141 418 121.5 396 c 128,-1,33
 102 374 102 374 90.5 345 c 128,-1,34
 79 316 79 316 79 286 c 2,35,-1
 79 155 l 2,36,37
 79 132 79 132 87.5 109.5 c 128,-1,38
 96 87 96 87 111 69.5 c 128,-1,39
 126 52 126 52 146 41 c 128,-1,40
 166 30 166 30 189 30 c 2,41,-1
 245 30 l 2,42,43
 274 30 274 30 300.5 40.5 c 128,-1,44
 327 51 327 51 346.5 70 c 128,-1,45
 366 89 366 89 377.5 114.5 c 128,-1,46
 389 140 389 140 389 169 c 1,47,-1
 247 169 l 1,48,-1
 247 209 l 1,49,-1
 434 209 l 1,50,-1
 434 169 l 2,0,1
EndSplineSet
EndChar
StartChar: H
Encoding: 72 72 41
Width: 468
Flags: W
Fore
379 228 m 1,0,-1
 89 228 l 1,1,-1
 89 0 l 1,2,-1
 44 0 l 1,3,-1
 44 475 l 1,4,-1
 89 475 l 1,5,-1
 89 268 l 1,6,-1
 379 268 l 1,7,-1
 379 475 l 1,8,-1
 424 475 l 1,9,-1
 424 0 l 1,10,-1
 379 0 l 1,11,-1
 379 228 l 1,0,-1
EndSplineSet
EndChar
StartChar: I
Encoding: 73 73 42
Width: 133
Flags: W
Fore
44 475 m 1,0,-1
 89 475 l 1,1,-1
 89 0 l 1,2,-1
 44 0 l 1,3,-1
 44 475 l 1,0,-1
EndSplineSet
KernsSLIFO: 84 -10 0 0 83 -10 0 0 81 -10 0 0 80 -10 0 0 79 -10 0 0 78 -10 0 0 72 -20 0 0 70 -20 0 0 69 -20 0 0 68 -10 0 0 66 -20 0 0
EndChar
StartChar: J
Encoding: 74 74 43
Width: 408
Flags: W
Fore
65 155 m 1,0,1
 65 132 65 132 73.5 110.5 c 128,-1,2
 82 89 82 89 97 72 c 128,-1,3
 112 55 112 55 132 45 c 128,-1,4
 152 35 152 35 175 35 c 0,5,6
 204 35 204 35 230.5 45 c 128,-1,7
 257 55 257 55 276.5 73 c 128,-1,8
 296 91 296 91 307.5 115.5 c 128,-1,9
 319 140 319 140 319 169 c 2,10,-1
 319 475 l 1,11,-1
 364 475 l 1,12,-1
 364 169 l 2,13,14
 364 129 364 129 349 96 c 128,-1,15
 334 63 334 63 308 39.5 c 128,-1,16
 282 16 282 16 248 3 c 128,-1,17
 214 -10 214 -10 175 -10 c 0,18,19
 143 -10 143 -10 114.5 3.5 c 128,-1,20
 86 17 86 17 65 40 c 128,-1,21
 44 63 44 63 32 93 c 128,-1,22
 20 123 20 123 20 155 c 1,23,-1
 65 155 l 1,0,1
EndSplineSet
KernsSLIFO: 135 -10 0 0 34 -20 0 0
EndChar
StartChar: K
Encoding: 75 75 44
Width: 448
Flags: W
Fore
360 0 m 1,0,-1
 187 175 l 2,1,2
 160 202 160 202 132.5 209 c 128,-1,3
 105 216 105 216 89 216 c 1,4,-1
 89 0 l 1,5,-1
 44 0 l 1,6,-1
 44 475 l 1,7,-1
 89 475 l 1,8,-1
 89 270 l 1,9,-1
 355 475 l 1,10,-1
 423 475 l 1,11,-1
 135 248 l 1,12,13
 151 248 151 248 166.5 241.5 c 128,-1,14
 182 235 182 235 195.5 225 c 128,-1,15
 209 215 209 215 221.5 203.5 c 128,-1,16
 234 192 234 192 246 180 c 0,17,18
 247 179 247 179 250 175.5 c 128,-1,19
 253 172 253 172 270 155 c 128,-1,20
 287 138 287 138 322.5 102 c 128,-1,21
 358 66 358 66 423 0 c 1,22,-1
 360 0 l 1,0,-1
EndSplineSet
KernsSLIFO: 196 -25 0 0 195 -20 0 0 185 -25 0 0 167 -25 0 0 153 -20 0 0 90 -25 0 0 88 -50 0 0 87 -50 0 0 86 -25 0 0 80 -25 0 0 70 -25 0 0 66 -30 0 0 48 -20 0 0 14 -30 0 0
EndChar
StartChar: L
Encoding: 76 76 45
Width: 409
Flags: W
Fore
44 475 m 1,0,-1
 89 475 l 1,1,-1
 89 40 l 1,2,-1
 384 40 l 1,3,-1
 384 0 l 1,4,-1
 86 0 l 2,5,6
 69 0 69 0 56.5 13.5 c 128,-1,7
 44 27 44 27 44 44 c 2,8,-1
 44 475 l 1,0,-1
EndSplineSet
KernsSLIFO: 309 -100 0 0 306 -100 0 0 195 -18 0 0 153 -18 0 0 136 -18 0 0 90 -20 0 0 87 -60 0 0 58 -100 0 0 56 -94 0 0 55 -104 0 0 53 -100 0 0 50 -18 0 0 48 -18 0 0 40 -18 0 0 36 -18 0 0 14 -40 0 0 8 -40 0 0
EndChar
StartChar: M
Encoding: 77 77 46
Width: 584
Flags: W
Fore
540 0 m 1,0,-1
 495 0 l 1,1,-1
 495 375 l 1,2,-1
 292 -6 l 1,3,-1
 89 375 l 1,4,-1
 89 0 l 1,5,-1
 44 0 l 1,6,-1
 44 476 l 1,7,-1
 89 476 l 1,8,-1
 292 101 l 1,9,-1
 495 475 l 1,10,-1
 540 475 l 1,11,-1
 540 0 l 1,0,-1
EndSplineSet
EndChar
StartChar: N
Encoding: 78 78 47
Width: 488
Flags: W
Fore
397 76 m 1,0,-1
 397 476 l 1,1,-1
 444 476 l 1,2,-1
 444 0 l 1,3,-1
 399 0 l 1,4,-1
 89 400 l 1,5,-1
 89 0 l 1,6,-1
 44 0 l 1,7,-1
 44 476 l 1,8,-1
 89 476 l 1,9,-1
 397 76 l 1,0,-1
EndSplineSet
EndChar
StartChar: O
Encoding: 79 79 48
Width: 469
Flags: W
Fore
435 190 m 2,0,1
 435 150 435 150 420 113.5 c 128,-1,2
 405 77 405 77 379 49.5 c 128,-1,3
 353 22 353 22 319 6 c 128,-1,4
 285 -10 285 -10 246 -10 c 2,5,-1
 191 -10 l 2,6,7
 158 -10 158 -10 129.5 3.5 c 128,-1,8
 101 17 101 17 80 40 c 128,-1,9
 59 63 59 63 47 93 c 128,-1,10
 35 123 35 123 35 156 c 2,11,-1
 35 285 l 2,12,13
 35 325 35 325 50 361.5 c 128,-1,14
 65 398 65 398 91 425.5 c 128,-1,15
 117 453 117 453 151.5 469 c 128,-1,16
 186 485 186 485 225 485 c 2,17,-1
 279 485 l 2,18,19
 312 485 312 485 340.5 471.5 c 128,-1,20
 369 458 369 458 390 435 c 128,-1,21
 411 412 411 412 423 382 c 128,-1,22
 435 352 435 352 435 319 c 2,23,-1
 435 190 l 2,0,1
390 319 m 2,24,25
 390 342 390 342 381.5 364.5 c 128,-1,26
 373 387 373 387 358 405 c 128,-1,27
 343 423 343 423 322.5 434 c 128,-1,28
 302 445 302 445 279 445 c 2,29,-1
 225 445 l 2,30,31
 195 445 195 445 169 431.5 c 128,-1,32
 143 418 143 418 123 395.5 c 128,-1,33
 103 373 103 373 91.5 344.5 c 128,-1,34
 80 316 80 316 80 285 c 2,35,-1
 80 156 l 2,36,37
 80 133 80 133 88.5 110.5 c 128,-1,38
 97 88 97 88 112 70 c 128,-1,39
 127 52 127 52 147.5 41 c 128,-1,40
 168 30 168 30 191 30 c 2,41,-1
 246 30 l 2,42,43
 275 30 275 30 301.5 43.5 c 128,-1,44
 328 57 328 57 347.5 79.5 c 128,-1,45
 367 102 367 102 378.5 130.5 c 128,-1,46
 390 159 390 159 390 190 c 2,47,-1
 390 319 l 2,24,25
EndSplineSet
KernsSLIFO: 314 -29 0 0 59 -18 0 0 58 -18 0 0 57 -10 0 0 43 20 0 0 15 -29 0 0 13 -29 0 0
EndChar
StartChar: P
Encoding: 80 80 49
Width: 449
Flags: W
Fore
44 475 m 1,0,-1
 299 475 l 2,1,2
 325 475 325 475 347.5 465 c 128,-1,3
 370 455 370 455 387 438 c 128,-1,4
 404 421 404 421 414 398.5 c 128,-1,5
 424 376 424 376 424 350 c 256,6,7
 424 324 424 324 414 302 c 128,-1,8
 404 280 404 280 387 263.5 c 128,-1,9
 370 247 370 247 347.5 237.5 c 128,-1,10
 325 228 325 228 299 228 c 2,11,-1
 89 228 l 1,12,-1
 89 0 l 1,13,-1
 44 0 l 1,14,-1
 44 475 l 1,0,-1
89 435 m 1,15,-1
 89 268 l 1,16,-1
 299 268 l 2,17,18
 332 268 332 268 355.5 292.5 c 128,-1,19
 379 317 379 317 379 350 c 0,20,21
 379 366 379 366 372.5 381.5 c 128,-1,22
 366 397 366 397 355.5 409 c 128,-1,23
 345 421 345 421 330 428 c 128,-1,24
 315 435 315 435 299 435 c 2,25,-1
 89 435 l 1,15,-1
EndSplineSet
KernsSLIFO: 314 -100 0 0 196 -47 0 0 185 -47 0 0 167 -47 0 0 135 -100 0 0 80 -47 0 0 70 -47 0 0 66 -40 0 0 58 -30 0 0 43 -70 0 0 34 -100 0 0 15 -100 0 0 13 -100 0 0
EndChar
StartChar: Q
Encoding: 81 81 50
Width: 468
Flags: W
Fore
364 37 m 1,0,1
 339 15 339 15 309 2.5 c 128,-1,2
 279 -10 279 -10 245 -10 c 2,3,-1
 190 -10 l 2,4,5
 157 -10 157 -10 128.5 3.5 c 128,-1,6
 100 17 100 17 79 40 c 128,-1,7
 58 63 58 63 46 93 c 128,-1,8
 34 123 34 123 34 156 c 2,9,-1
 34 285 l 2,10,11
 34 325 34 325 49 361.5 c 128,-1,12
 64 398 64 398 90 425.5 c 128,-1,13
 116 453 116 453 150.5 469 c 128,-1,14
 185 485 185 485 224 485 c 2,15,-1
 278 485 l 2,16,17
 311 485 311 485 339.5 471.5 c 128,-1,18
 368 458 368 458 389 435 c 128,-1,19
 410 412 410 412 422 382 c 128,-1,20
 434 352 434 352 434 319 c 2,21,-1
 434 190 l 2,22,23
 434 157 434 157 423.5 126.5 c 128,-1,24
 413 96 413 96 395 70 c 1,25,-1
 439 23 l 1,26,-1
 407 -9 l 1,27,-1
 364 37 l 1,0,1
389 319 m 2,28,29
 389 342 389 342 380.5 364.5 c 128,-1,30
 372 387 372 387 357 405 c 128,-1,31
 342 423 342 423 321.5 434 c 128,-1,32
 301 445 301 445 278 445 c 2,33,-1
 224 445 l 2,34,35
 194 445 194 445 168 431.5 c 128,-1,36
 142 418 142 418 122 395.5 c 128,-1,37
 102 373 102 373 90.5 344.5 c 128,-1,38
 79 316 79 316 79 285 c 2,39,-1
 79 156 l 2,40,41
 79 133 79 133 87.5 110.5 c 128,-1,42
 96 88 96 88 111 70 c 128,-1,43
 126 52 126 52 146.5 41 c 128,-1,44
 167 30 167 30 190 30 c 2,45,-1
 245 30 l 2,46,47
 270 30 270 30 292.5 40 c 128,-1,48
 315 50 315 50 334 67 c 1,49,-1
 262 139 l 1,50,-1
 294 171 l 1,51,-1
 363 102 l 1,52,53
 375 122 375 122 382 144 c 128,-1,54
 389 166 389 166 389 190 c 2,55,-1
 389 319 l 2,28,29
EndSplineSet
KernsSLIFO: 314 -29 0 0 13 20 0 0
EndChar
StartChar: R
Encoding: 82 82 51
Width: 458
Flags: W
Fore
44 475 m 1,0,-1
 299 475 l 2,1,2
 325 475 325 475 347.5 465 c 128,-1,3
 370 455 370 455 387 438 c 128,-1,4
 404 421 404 421 414 398.5 c 128,-1,5
 424 376 424 376 424 350 c 256,6,7
 424 324 424 324 414 302 c 128,-1,8
 404 280 404 280 387 263.5 c 128,-1,9
 370 247 370 247 347.5 237.5 c 128,-1,10
 325 228 325 228 299 228 c 2,11,-1
 285 228 l 1,12,13
 290 228 290 228 299 218 c 128,-1,14
 308 208 308 208 319 191 c 2,15,-1
 443 0 l 1,16,-1
 390 0 l 1,17,-1
 265 191 l 2,18,19
 256 205 256 205 241.5 216.5 c 128,-1,20
 227 228 227 228 215 228 c 2,21,-1
 89 228 l 1,22,-1
 89 0 l 1,23,-1
 44 0 l 1,24,-1
 44 475 l 1,0,-1
89 435 m 1,25,-1
 89 268 l 1,26,-1
 299 268 l 2,27,28
 332 268 332 268 355.5 292.5 c 128,-1,29
 379 317 379 317 379 350 c 0,30,31
 379 366 379 366 372.5 381.5 c 128,-1,32
 366 397 366 397 355.5 409 c 128,-1,33
 345 421 345 421 330 428 c 128,-1,34
 315 435 315 435 299 435 c 2,35,-1
 89 435 l 1,25,-1
EndSplineSet
KernsSLIFO: 309 -10 0 0 306 -10 0 0 196 -55 0 0 185 -20 0 0 167 -20 0 0 90 -10 0 0 86 -10 0 0 80 -10 0 0 70 -10 0 0 66 -10 0 0 58 -40 0 0
EndChar
StartChar: S
Encoding: 83 83 52
Width: 508
Flags: W
Fore
79 149 m 1,0,1
 79 125 79 125 88 103.5 c 128,-1,2
 97 82 97 82 113 65.5 c 128,-1,3
 129 49 129 49 150.5 39.5 c 128,-1,4
 172 30 172 30 197 30 c 2,5,-1
 297 30 l 2,6,7
 325 30 325 30 349 39 c 128,-1,8
 373 48 373 48 390.5 63 c 128,-1,9
 408 78 408 78 418 97.5 c 128,-1,10
 428 117 428 117 428 138 c 0,11,12
 428 150 428 150 425.5 164 c 128,-1,13
 423 178 423 178 415.5 191.5 c 128,-1,14
 408 205 408 205 393 215 c 128,-1,15
 378 225 378 225 354 228 c 2,16,-1
 156 253 l 2,17,18
 118 260 118 260 97.5 273 c 128,-1,19
 77 286 77 286 67.5 301.5 c 128,-1,20
 58 317 58 317 56 333 c 128,-1,21
 54 349 54 349 54 361 c 0,22,23
 54 395 54 395 71 419 c 128,-1,24
 88 443 88 443 112.5 458 c 128,-1,25
 137 473 137 473 163.5 479.5 c 128,-1,26
 190 486 190 486 209 486 c 2,27,-1
 310 486 l 2,28,29
 339 486 339 486 365 476.5 c 128,-1,30
 391 467 391 467 410.5 449 c 128,-1,31
 430 431 430 431 441.5 405.5 c 128,-1,32
 453 380 453 380 453 349 c 1,33,-1
 408 349 l 1,34,35
 408 369 408 369 400 387 c 128,-1,36
 392 405 392 405 378.5 418.5 c 128,-1,37
 365 432 365 432 347.5 439.5 c 128,-1,38
 330 447 330 447 310 447 c 2,39,-1
 209 447 l 2,40,41
 195 447 195 447 176.5 441.5 c 128,-1,42
 158 436 158 436 140.5 425 c 128,-1,43
 123 414 123 414 111 398 c 128,-1,44
 99 382 99 382 99 361 c 0,45,46
 99 354 99 354 100 344.5 c 128,-1,47
 101 335 101 335 107 325.5 c 128,-1,48
 113 316 113 316 126 308.5 c 128,-1,49
 139 301 139 301 163 298 c 2,50,-1
 359 273 l 2,51,52
 397 267 397 267 419.5 251.5 c 128,-1,53
 442 236 442 236 454 216.5 c 128,-1,54
 466 197 466 197 469.5 176 c 128,-1,55
 473 155 473 155 473 138 c 0,56,57
 473 106 473 106 459.5 79 c 128,-1,58
 446 52 446 52 422 32.5 c 128,-1,59
 398 13 398 13 366 1.5 c 128,-1,60
 334 -10 334 -10 297 -10 c 2,61,-1
 197 -10 l 2,62,63
 163 -10 163 -10 133 2 c 128,-1,64
 103 14 103 14 81 35.5 c 128,-1,65
 59 57 59 57 46.5 86 c 128,-1,66
 34 115 34 115 34 149 c 1,67,-1
 79 149 l 1,0,1
EndSplineSet
KernsSLIFO: 314 -40 0 0 135 -18 0 0 90 -10 0 0 88 -18 0 0 87 -20 0 0 82 6 0 0 80 4 0 0 70 4 0 0 68 4 0 0 52 -10 0 0 34 -14 0 0 15 -30 0 0 13 -30 0 0
EndChar
StartChar: T
Encoding: 84 84 53
Width: 390
Flags: W
Fore
173 435 m 1,0,-1
 25 435 l 1,1,-1
 25 475 l 1,2,-1
 365 475 l 1,3,-1
 365 435 l 1,4,-1
 218 435 l 1,5,-1
 218 0 l 1,6,-1
 173 0 l 1,7,-1
 173 435 l 1,0,-1
EndSplineSet
KernsSLIFO: 314 -120 0 0 196 -100 0 0 195 -47 0 0 185 -100 0 0 167 -100 0 0 153 -47 0 0 136 -47 0 0 135 -100 0 0 91 -60 0 0 90 -60 0 0 88 -60 0 0 87 -60 0 0 86 -60 0 0 84 -60 0 0 83 -40 0 0 80 -100 0 0 72 -100 0 0 70 -100 0 0 68 -100 0 0 66 -100 0 0 53 10 0 0 52 -30 0 0 48 -47 0 0 43 -80 0 0 40 -39 0 0 36 -39 0 0 34 -115 0 0 32 20 0 0 28 -50 0 0 27 -50 0 0 15 -100 0 0 13 -40 0 0 10 20 0 0
EndChar
StartChar: U
Encoding: 85 85 54
Width: 478
Flags: W
Fore
84 475 m 1,0,-1
 84 156 l 2,1,2
 84 133 84 133 92.5 110.5 c 128,-1,3
 101 88 101 88 116 70 c 128,-1,4
 131 52 131 52 151.5 41 c 128,-1,5
 172 30 172 30 195 30 c 2,6,-1
 250 30 l 2,7,8
 279 30 279 30 305.5 43.5 c 128,-1,9
 332 57 332 57 351.5 79.5 c 128,-1,10
 371 102 371 102 382.5 130.5 c 128,-1,11
 394 159 394 159 394 190 c 2,12,-1
 394 475 l 1,13,-1
 439 475 l 1,14,-1
 439 190 l 2,15,16
 439 150 439 150 424 113.5 c 128,-1,17
 409 77 409 77 383 49.5 c 128,-1,18
 357 22 357 22 323 6 c 128,-1,19
 289 -10 289 -10 250 -10 c 2,20,-1
 195 -10 l 2,21,22
 162 -10 162 -10 133.5 3.5 c 128,-1,23
 105 17 105 17 84 40 c 128,-1,24
 63 63 63 63 51 93 c 128,-1,25
 39 123 39 123 39 156 c 2,26,-1
 39 475 l 1,27,-1
 84 475 l 1,0,-1
EndSplineSet
KernsSLIFO: 314 -40 0 0 135 -40 0 0 34 -40 0 0 15 -40 0 0 13 -40 0 0
EndChar
StartChar: V
Encoding: 86 86 55
Width: 472
Flags: W
Fore
399 475 m 1,0,-1
 447 475 l 1,1,-1
 261 -5 l 1,2,3
 232 -5 232 -5 215.5 7.5 c 128,-1,4
 199 20 199 20 188 45 c 2,5,-1
 25 475 l 1,6,-1
 73 475 l 1,7,-1
 234 50 l 1,8,-1
 399 475 l 1,0,-1
EndSplineSet
KernsSLIFO: 314 -100 0 0 196 -50 0 0 185 -94 0 0 167 -94 0 0 135 -140 0 0 90 -50 0 0 86 -50 0 0 80 -50 0 0 70 -50 0 0 66 -50 0 0 34 -140 0 0 28 -70 0 0 27 -70 0 0 15 -100 0 0 14 -47 0 0 13 -100 0 0
EndChar
StartChar: W
Encoding: 87 87 56
Width: 706
Flags: W
Fore
243 -5 m 1,0,1
 214 -5 214 -5 196.5 7.5 c 128,-1,2
 179 20 179 20 168 45 c 2,3,-1
 25 475 l 1,4,-1
 73 475 l 1,5,-1
 214 50 l 1,6,-1
 329 480 l 1,7,8
 341 480 341 480 359 474.5 c 128,-1,9
 377 469 377 469 385 447 c 2,10,-1
 492 50 l 1,11,-1
 633 475 l 1,12,-1
 681 475 l 1,13,-1
 538 45 l 2,14,15
 527 20 527 20 509.5 7.5 c 128,-1,16
 492 -5 492 -5 463 -5 c 1,17,-1
 353 413 l 1,18,-1
 243 -5 l 1,0,1
EndSplineSet
KernsSLIFO: 314 -100 0 0 196 -76 0 0 185 -76 0 0 167 -76 0 0 135 -120 0 0 90 -37 0 0 86 -37 0 0 83 -37 0 0 80 -76 0 0 70 -76 0 0 66 -76 0 0 34 -120 0 0 28 -76 0 0 27 -76 0 0 15 -100 0 0 14 -47 0 0 13 -100 0 0
EndChar
StartChar: X
Encoding: 88 88 57
Width: 462
Flags: W
Fore
82 0 m 1,0,-1
 25 0 l 1,1,-1
 202 237 l 1,2,-1
 25 475 l 1,3,-1
 82 475 l 1,4,-1
 230 275 l 1,5,-1
 380 475 l 1,6,-1
 437 475 l 1,7,-1
 259 237 l 1,8,-1
 437 0 l 1,9,-1
 380 0 l 1,10,-1
 231 199 l 1,11,-1
 82 0 l 1,0,-1
EndSplineSet
KernsSLIFO: 196 -30 0 0 195 -45 0 0 185 -30 0 0 167 -47 0 0 153 -30 0 0 136 -30 0 0 90 -45 0 0 86 -45 0 0 80 -45 0 0 70 -45 0 0 66 -37 0 0 48 -30 0 0 40 -30 0 0 36 -30 0 0 14 -40 0 0
EndChar
StartChar: Y
Encoding: 89 89 58
Width: 450
Flags: W
Fore
247 0 m 1,0,-1
 202 0 l 1,1,-1
 202 237 l 1,2,-1
 25 475 l 1,3,-1
 76 475 l 1,4,-1
 224 275 l 1,5,-1
 374 475 l 1,6,-1
 425 475 l 1,7,-1
 247 237 l 1,8,-1
 247 0 l 1,0,-1
EndSplineSet
KernsSLIFO: 314 -140 0 0 196 -123 0 0 195 -40 0 0 185 -123 0 0 167 -131 0 0 153 -40 0 0 135 -120 0 0 87 -94 0 0 86 -104 0 0 84 -104 0 0 83 -60 0 0 82 -123 0 0 81 -60 0 0 80 -123 0 0 79 -60 0 0 78 -60 0 0 72 -123 0 0 70 -123 0 0 69 -115 0 0 66 -131 0 0 48 -40 0 0 43 -120 0 0 34 -120 0 0 28 -70 0 0 27 -70 0 0 15 -100 0 0 14 -70 0 0 13 -100 0 0
EndChar
StartChar: Z
Encoding: 90 90 59
Width: 466
Flags: W
Fore
41 435 m 1,0,-1
 41 475 l 1,1,-1
 441 475 l 1,2,-1
 115 40 l 1,3,-1
 425 40 l 1,4,-1
 425 0 l 1,5,-1
 25 0 l 1,6,-1
 351 435 l 1,7,-1
 41 435 l 1,0,-1
EndSplineSet
KernsSLIFO: 196 -20 0 0 195 -40 0 0 185 -20 0 0 167 -47 0 0 153 -18 0 0 136 -18 0 0 88 -60 0 0 70 -20 0 0 59 10 0 0 48 -40 0 0 40 -40 0 0 36 -40 0 0 14 -55 0 0
EndChar
StartChar: bracketleft
Encoding: 91 91 60
Width: 194
Flags: W
Fore
79 -67 m 2,0,1
 79 -89 79 -89 97.5 -97 c 128,-1,2
 116 -105 116 -105 137 -105 c 2,3,-1
 161 -105 l 1,4,-1
 161 -142 l 1,5,-1
 137 -142 l 2,6,7
 117 -142 117 -142 99 -138 c 128,-1,8
 81 -134 81 -134 67 -125.5 c 128,-1,9
 53 -117 53 -117 45 -103.5 c 128,-1,10
 37 -90 37 -90 37 -70 c 2,11,-1
 37 457 l 2,12,13
 37 477 37 477 45 491 c 128,-1,14
 53 505 53 505 67 514 c 128,-1,15
 81 523 81 523 99 527 c 128,-1,16
 117 531 117 531 137 531 c 2,17,-1
 161 531 l 1,18,-1
 161 494 l 1,19,-1
 137 494 l 2,20,21
 116 494 116 494 97.5 485 c 128,-1,22
 79 476 79 476 79 454 c 2,23,-1
 79 -67 l 2,0,1
EndSplineSet
KernsSLIFO: 75 70 0 0
EndChar
StartChar: bracketright
Encoding: 93 93 62
Width: 194
Flags: W
Fore
119 454 m 2,0,1
 119 476 119 476 100.5 485 c 128,-1,2
 82 494 82 494 61 494 c 2,3,-1
 37 494 l 1,4,-1
 37 531 l 1,5,-1
 61 531 l 2,6,7
 81 531 81 531 99 527 c 128,-1,8
 117 523 117 523 131 514 c 128,-1,9
 145 505 145 505 153 491 c 128,-1,10
 161 477 161 477 161 457 c 2,11,-1
 161 -70 l 2,12,13
 161 -90 161 -90 153 -103.5 c 128,-1,14
 145 -117 145 -117 131 -125.5 c 128,-1,15
 117 -134 117 -134 99 -138 c 128,-1,16
 81 -142 81 -142 61 -142 c 2,17,-1
 37 -142 l 1,18,-1
 37 -105 l 1,19,-1
 61 -105 l 2,20,21
 82 -105 82 -105 100.5 -97 c 128,-1,22
 119 -89 119 -89 119 -67 c 2,23,-1
 119 454 l 2,0,1
EndSplineSet
EndChar
StartChar: asciicircum
Encoding: 94 94 63
Width: 452
Flags: W
Fore
224 440 m 1,0,-1
 102 248 l 1,1,-1
 57 248 l 1,2,-1
 224 519 l 1,3,-1
 393 248 l 1,4,-1
 347 248 l 1,5,-1
 224 440 l 1,0,-1
EndSplineSet
EndChar
StartChar: underscore
Encoding: 95 95 64
Width: 358
Flags: W
Fore
-1 -91 m 1,0,-1
 -1 -51 l 1,1,-1
 359 -51 l 1,2,-1
 359 -91 l 1,3,-1
 -1 -91 l 1,0,-1
EndSplineSet
EndChar
StartChar: grave
Encoding: 96 96 65
Width: 119
Flags: W
Fore
117 375 m 1,0,-1
 70 375 l 1,1,-1
 -3 485 l 1,2,-1
 44 485 l 1,3,-1
 117 375 l 1,0,-1
EndSplineSet
EndChar
StartChar: a
Encoding: 97 97 66
Width: 352
Flags: W
Fore
273 46 m 1,0,1
 259 25 259 25 229 10 c 128,-1,2
 199 -5 199 -5 173 -5 c 2,3,-1
 133 -5 l 2,4,5
 110 -5 110 -5 91 4.5 c 128,-1,6
 72 14 72 14 59 30 c 128,-1,7
 46 46 46 46 39 67 c 128,-1,8
 32 88 32 88 32 111 c 2,9,-1
 32 204 l 2,10,11
 32 232 32 232 42.5 257.5 c 128,-1,12
 53 283 53 283 71.5 302.5 c 128,-1,13
 90 322 90 322 114.5 333 c 128,-1,14
 139 344 139 344 167 344 c 2,15,-1
 207 344 l 2,16,17
 234 344 234 344 247.5 332 c 128,-1,18
 261 320 261 320 273 308 c 1,19,-1
 273 339 l 1,20,-1
 318 339 l 1,21,-1
 318 -2 l 1,22,-1
 273 -2 l 1,23,-1
 273 46 l 1,0,1
273 228 m 2,24,25
 272 241 272 241 266.5 254.5 c 128,-1,26
 261 268 261 268 252 279 c 128,-1,27
 243 290 243 290 231.5 297 c 128,-1,28
 220 304 220 304 207 304 c 2,29,-1
 167 304 l 2,30,31
 148 304 148 304 131.5 295.5 c 128,-1,32
 115 287 115 287 103 273 c 128,-1,33
 91 259 91 259 84 241 c 128,-1,34
 77 223 77 223 77 204 c 2,35,-1
 77 111 l 2,36,37
 77 84 77 84 91.5 59.5 c 128,-1,38
 106 35 106 35 133 35 c 2,39,-1
 173 35 l 2,40,41
 191 35 191 35 208.5 43 c 128,-1,42
 226 51 226 51 240 64.5 c 128,-1,43
 254 78 254 78 263 95.5 c 128,-1,44
 272 113 272 113 273 131 c 2,45,-1
 273 228 l 2,24,25
EndSplineSet
KernsSLIFO: 90 -14 0 0 88 -10 0 0 87 -14 0 0
Substitution: 0 65534 'L026' uni0E38
Substitution: 0 65534 'L026' uni0E38
EndChar
StartChar: b
Encoding: 98 98 67
Width: 353
Flags: W
Fore
36 475 m 1,0,-1
 81 475 l 1,1,-1
 81 298 l 1,2,3
 99 315 99 315 120 329.5 c 128,-1,4
 141 344 141 344 173 344 c 2,5,-1
 213 344 l 2,6,7
 236 344 236 344 256 334.5 c 128,-1,8
 276 325 276 325 290.5 309 c 128,-1,9
 305 293 305 293 313 272 c 128,-1,10
 321 251 321 251 321 228 c 2,11,-1
 321 135 l 2,12,13
 321 106 321 106 311 81 c 128,-1,14
 301 56 301 56 283 36.5 c 128,-1,15
 265 17 265 17 241 6 c 128,-1,16
 217 -5 217 -5 189 -5 c 2,17,-1
 149 -5 l 2,18,19
 123 -5 123 -5 109 5.5 c 128,-1,20
 95 16 95 16 81 27 c 1,21,-1
 81 0 l 1,22,-1
 36 0 l 1,23,-1
 36 475 l 1,0,-1
276 230 m 2,24,25
 276 257 276 257 258 280.5 c 128,-1,26
 240 304 240 304 213 304 c 2,27,-1
 173 304 l 2,28,29
 156 304 156 304 140.5 297 c 128,-1,30
 125 290 125 290 112.5 278.5 c 128,-1,31
 100 267 100 267 92 252 c 128,-1,32
 84 237 84 237 81 221 c 1,33,-1
 81 102 l 1,34,35
 83 90 83 90 89 78.5 c 128,-1,36
 95 67 95 67 104.5 57 c 128,-1,37
 114 47 114 47 125.5 41 c 128,-1,38
 137 35 137 35 149 35 c 2,39,-1
 189 35 l 2,40,41
 208 35 208 35 224 44 c 128,-1,42
 240 53 240 53 251.5 67 c 128,-1,43
 263 81 263 81 269.5 99.5 c 128,-1,44
 276 118 276 118 276 137 c 2,45,-1
 276 230 l 2,24,25
EndSplineSet
KernsSLIFO: 314 -18 0 0 90 -4 0 0 15 -18 0 0 13 -29 0 0
Substitution: 0 65534 'L026' uni0E39
Substitution: 0 65534 'L026' uni0E39
EndChar
StartChar: c
Encoding: 99 99 68
Width: 349
Flags: W
Fore
272 238 m 1,0,1
 272 265 272 265 252.5 284.5 c 128,-1,2
 233 304 233 304 206 304 c 2,3,-1
 167 304 l 2,4,5
 148 304 148 304 131.5 295.5 c 128,-1,6
 115 287 115 287 103 273 c 128,-1,7
 91 259 91 259 84 241 c 128,-1,8
 77 223 77 223 77 204 c 2,9,-1
 77 111 l 2,10,11
 77 97 77 97 82 83.5 c 128,-1,12
 87 70 87 70 96 59.5 c 128,-1,13
 105 49 105 49 117 42 c 128,-1,14
 129 35 129 35 143 35 c 2,15,-1
 183 35 l 2,16,17
 221 35 221 35 247 59 c 128,-1,18
 273 83 273 83 273 121 c 1,19,-1
 318 121 l 1,20,21
 318 92 318 92 307.5 69 c 128,-1,22
 297 46 297 46 278.5 29.5 c 128,-1,23
 260 13 260 13 235.5 4 c 128,-1,24
 211 -5 211 -5 183 -5 c 2,25,-1
 143 -5 l 2,26,27
 120 -5 120 -5 99.5 4.5 c 128,-1,28
 79 14 79 14 64 30 c 128,-1,29
 49 46 49 46 40.5 67 c 128,-1,30
 32 88 32 88 32 111 c 2,31,-1
 32 204 l 2,32,33
 32 232 32 232 42.5 257.5 c 128,-1,34
 53 283 53 283 71.5 302.5 c 128,-1,35
 90 322 90 322 114.5 333 c 128,-1,36
 139 344 139 344 167 344 c 2,37,-1
 206 344 l 2,38,39
 253 344 253 344 285 314.5 c 128,-1,40
 317 285 317 285 317 238 c 1,41,-1
 272 238 l 1,0,1
EndSplineSet
KernsSLIFO: 168 -6 0 0 68 -6 0 0 53 -96 0 0 14 -18 0 0
Substitution: 0 65534 'L026' uni0E3A
Substitution: 0 65534 'L026' uni0E3A
EndChar
StartChar: d
Encoding: 100 100 69
Width: 354
Flags: W
Fore
273 46 m 1,0,1
 270 41 270 41 261 32.5 c 128,-1,2
 252 24 252 24 238.5 15.5 c 128,-1,3
 225 7 225 7 208 1 c 128,-1,4
 191 -5 191 -5 173 -5 c 2,5,-1
 133 -5 l 2,6,7
 110 -5 110 -5 91 4.5 c 128,-1,8
 72 14 72 14 59 30 c 128,-1,9
 46 46 46 46 39 67 c 128,-1,10
 32 88 32 88 32 111 c 2,11,-1
 32 204 l 2,12,13
 32 232 32 232 42.5 257.5 c 128,-1,14
 53 283 53 283 71.5 302.5 c 128,-1,15
 90 322 90 322 114.5 333 c 128,-1,16
 139 344 139 344 167 344 c 2,17,-1
 207 344 l 2,18,19
 237 344 237 344 249.5 335 c 128,-1,20
 262 326 262 326 273 313 c 1,21,-1
 273 475 l 1,22,-1
 318 475 l 1,23,-1
 318 -2 l 1,24,-1
 273 -2 l 1,25,-1
 273 46 l 1,0,1
273 233 m 2,26,27
 271 259 271 259 252 281.5 c 128,-1,28
 233 304 233 304 207 304 c 2,29,-1
 167 304 l 2,30,31
 148 304 148 304 131.5 295.5 c 128,-1,32
 115 287 115 287 103 273 c 128,-1,33
 91 259 91 259 84 241 c 128,-1,34
 77 223 77 223 77 204 c 2,35,-1
 77 111 l 2,36,37
 77 84 77 84 91.5 59.5 c 128,-1,38
 106 35 106 35 133 35 c 2,39,-1
 173 35 l 2,40,41
 191 35 191 35 208.5 43 c 128,-1,42
 226 51 226 51 240 64.5 c 128,-1,43
 254 78 254 78 263 95.5 c 128,-1,44
 272 113 272 113 273 131 c 2,45,-1
 273 233 l 2,26,27
EndSplineSet
EndChar
StartChar: e
Encoding: 101 101 70
Width: 350
Flags: W
Fore
77 111 m 2,0,1
 77 97 77 97 82 83.5 c 128,-1,2
 87 70 87 70 96 59.5 c 128,-1,3
 105 49 105 49 117 42 c 128,-1,4
 129 35 129 35 143 35 c 2,5,-1
 183 35 l 2,6,7
 202 35 202 35 218.5 42 c 128,-1,8
 235 49 235 49 247 61 c 128,-1,9
 259 73 259 73 266 89.5 c 128,-1,10
 273 106 273 106 273 125 c 1,11,-1
 318 125 l 1,12,13
 318 96 318 96 307.5 72.5 c 128,-1,14
 297 49 297 49 278.5 31.5 c 128,-1,15
 260 14 260 14 235.5 4.5 c 128,-1,16
 211 -5 211 -5 183 -5 c 2,17,-1
 143 -5 l 2,18,19
 120 -5 120 -5 99.5 4.5 c 128,-1,20
 79 14 79 14 64 30 c 128,-1,21
 49 46 49 46 40.5 67 c 128,-1,22
 32 88 32 88 32 111 c 2,23,-1
 32 204 l 2,24,25
 32 232 32 232 42.5 257.5 c 128,-1,26
 53 283 53 283 71.5 302.5 c 128,-1,27
 90 322 90 322 114.5 333 c 128,-1,28
 139 344 139 344 167 344 c 2,29,-1
 207 344 l 2,30,31
 230 344 230 344 250.5 334.5 c 128,-1,32
 271 325 271 325 286 309 c 128,-1,33
 301 293 301 293 309.5 272 c 128,-1,34
 318 251 318 251 318 228 c 2,35,-1
 318 177 l 1,36,-1
 77 177 l 1,37,-1
 77 111 l 2,0,1
167 304 m 2,38,39
 148 304 148 304 131.5 297 c 128,-1,40
 115 290 115 290 103 277.5 c 128,-1,41
 91 265 91 265 84 248 c 128,-1,42
 77 231 77 231 77 212 c 1,43,-1
 273 212 l 1,44,-1
 273 228 l 2,45,46
 273 241 273 241 267.5 255 c 128,-1,47
 262 269 262 269 253 279.5 c 128,-1,48
 244 290 244 290 232 297 c 128,-1,49
 220 304 220 304 207 304 c 2,50,-1
 167 304 l 2,38,39
EndSplineSet
KernsSLIFO: 53 -80 0 0
EndChar
StartChar: f
Encoding: 102 102 71
Width: 212
Flags: W
Fore
85 304 m 1,0,-1
 20 304 l 1,1,-1
 20 339 l 1,2,-1
 85 339 l 1,3,4
 85 367 85 367 96 391.5 c 128,-1,5
 107 416 107 416 125 434.5 c 128,-1,6
 143 453 143 453 167.5 463.5 c 128,-1,7
 192 474 192 474 220 474 c 1,8,-1
 220 429 l 1,9,10
 182 429 182 429 156.5 403 c 128,-1,11
 131 377 131 377 130 339 c 1,12,-1
 192 339 l 1,13,-1
 192 304 l 1,14,-1
 130 304 l 1,15,-1
 130 0 l 1,16,-1
 85 0 l 1,17,-1
 85 304 l 1,0,-1
EndSplineSet
KernsSLIFO: 314 -50 0 0 309 40 0 0 306 40 0 0 185 -20 0 0 175 80 0 0 170 -20 0 0 167 -25 0 0 97 40 0 0 94 40 0 0 90 -25 0 0 86 -20 0 0 84 -23 0 0 83 -10 0 0 82 -10 0 0 81 -10 0 0 80 -20 0 0 79 20 0 0 78 20 0 0 75 30 0 0 72 -10 0 0 71 -40 0 0 70 -20 0 0 68 -20 0 0 66 -25 0 0 62 30 0 0 61 60 0 0 32 50 0 0 15 -50 0 0 11 40 0 0 10 40 0 0 8 40 0 0
EndChar
StartChar: g
Encoding: 103 103 72
Width: 354
Flags: W
Fore
273 59 m 1,0,1
 255 42 255 42 232 31 c 128,-1,2
 209 20 209 20 183 20 c 2,3,-1
 143 20 l 2,4,5
 120 20 120 20 99.5 29.5 c 128,-1,6
 79 39 79 39 64 55 c 128,-1,7
 49 71 49 71 40.5 92 c 128,-1,8
 32 113 32 113 32 136 c 2,9,-1
 32 204 l 2,10,11
 32 232 32 232 42.5 257.5 c 128,-1,12
 53 283 53 283 71.5 302.5 c 128,-1,13
 90 322 90 322 114.5 333 c 128,-1,14
 139 344 139 344 167 344 c 2,15,-1
 207 344 l 2,16,17
 230 344 230 344 246 334.5 c 128,-1,18
 262 325 262 325 273 313 c 1,19,-1
 273 339 l 1,20,-1
 318 339 l 1,21,-1
 318 -6 l 2,22,23
 318 -30 318 -30 305.5 -51.5 c 128,-1,24
 293 -73 293 -73 273 -89 c 128,-1,25
 253 -105 253 -105 229 -114.5 c 128,-1,26
 205 -124 205 -124 181 -124 c 2,27,-1
 141 -124 l 2,28,29
 104 -124 104 -124 75.5 -103 c 128,-1,30
 47 -82 47 -82 36 -50 c 1,31,-1
 89 -50 l 1,32,33
 98 -64 98 -64 112.5 -75 c 128,-1,34
 127 -86 127 -86 144 -86 c 2,35,-1
 184 -86 l 2,36,37
 201 -86 201 -86 217 -79.5 c 128,-1,38
 233 -73 233 -73 245.5 -62.5 c 128,-1,39
 258 -52 258 -52 265.5 -37.5 c 128,-1,40
 273 -23 273 -23 273 -6 c 2,41,-1
 273 59 l 1,0,1
273 233 m 2,42,43
 271 259 271 259 252 281 c 128,-1,44
 233 303 233 303 207 303 c 2,45,-1
 167 303 l 2,46,47
 148 303 148 303 131.5 294.5 c 128,-1,48
 115 286 115 286 103 272.5 c 128,-1,49
 91 259 91 259 84 241 c 128,-1,50
 77 223 77 223 77 204 c 2,51,-1
 77 136 l 2,52,53
 77 122 77 122 82 108.5 c 128,-1,54
 87 95 87 95 96 84.5 c 128,-1,55
 105 74 105 74 117 67 c 128,-1,56
 129 60 129 60 143 60 c 2,57,-1
 183 60 l 2,58,59
 201 60 201 60 217 68 c 128,-1,60
 233 76 233 76 245 89.5 c 128,-1,61
 257 103 257 103 264.5 120.5 c 128,-1,62
 272 138 272 138 273 156 c 2,63,-1
 273 233 l 2,42,43
EndSplineSet
KernsSLIFO: 75 60 0 0
EndChar
StartChar: h
Encoding: 104 104 73
Width: 357
Flags: W
Fore
276 230 m 2,0,1
 276 257 276 257 258 280.5 c 128,-1,2
 240 304 240 304 213 304 c 2,3,-1
 173 304 l 2,4,5
 156 304 156 304 140.5 297 c 128,-1,6
 125 290 125 290 112.5 278.5 c 128,-1,7
 100 267 100 267 92 252 c 128,-1,8
 84 237 84 237 81 221 c 1,9,-1
 81 0 l 1,10,-1
 36 0 l 1,11,-1
 36 475 l 1,12,-1
 81 475 l 1,13,-1
 81 303 l 1,14,15
 99 320 99 320 122.5 332 c 128,-1,16
 146 344 146 344 173 344 c 2,17,-1
 213 344 l 2,18,19
 236 344 236 344 256 334.5 c 128,-1,20
 276 325 276 325 290.5 309 c 128,-1,21
 305 293 305 293 313 272 c 128,-1,22
 321 251 321 251 321 228 c 2,23,-1
 321 0 l 1,24,-1
 276 0 l 1,25,-1
 276 230 l 2,0,1
EndSplineSet
KernsSLIFO: 90 -18 0 0 88 -10 0 0 87 -18 0 0
EndChar
StartChar: i
Encoding: 105 105 74
Width: 165
Flags: W
Fore
60 339 m 1,0,-1
 105 339 l 1,1,-1
 105 0 l 1,2,-1
 60 0 l 1,3,-1
 60 339 l 1,0,-1
48 433 m 256,4,5
 48 448 48 448 58 458 c 128,-1,6
 68 468 68 468 83 468 c 256,7,8
 98 468 98 468 108 458 c 128,-1,9
 118 448 118 448 118 433 c 256,10,11
 118 418 118 418 108 408 c 128,-1,12
 98 398 98 398 83 398 c 256,13,14
 68 398 68 398 58 408 c 128,-1,15
 48 418 48 418 48 433 c 256,4,5
EndSplineSet
KernsSLIFO: 85 -20 0 0 77 2 0 0 74 2 0 0 71 -20 0 0
EndChar
StartChar: j
Encoding: 106 106 75
Width: 165
Flags: W
Fore
60 339 m 1,0,-1
 105 339 l 1,1,-1
 105 0 l 2,2,3
 105 -28 105 -28 94.5 -52.5 c 128,-1,4
 84 -77 84 -77 65.5 -95.5 c 128,-1,5
 47 -114 47 -114 22.5 -124.5 c 128,-1,6
 -2 -135 -2 -135 -30 -135 c 2,7,-1
 -70 -135 l 1,8,-1
 -70 -90 l 1,9,-1
 -30 -90 l 2,10,11
 8 -90 8 -90 33.5 -64 c 128,-1,12
 59 -38 59 -38 60 0 c 2,13,-1
 60 339 l 1,0,-1
48 433 m 256,14,15
 48 448 48 448 58 458 c 128,-1,16
 68 468 68 468 83 468 c 256,17,18
 98 468 98 468 108 458 c 128,-1,19
 118 448 118 448 118 433 c 256,20,21
 118 418 118 418 108 408 c 128,-1,22
 98 398 98 398 83 398 c 256,23,24
 68 398 68 398 58 408 c 128,-1,25
 48 418 48 418 48 433 c 256,14,15
EndSplineSet
EndChar
StartChar: k
Encoding: 107 107 76
Width: 336
Flags: W
Fore
130 202 m 1,0,1
 139 199 139 199 150.5 190 c 128,-1,2
 162 181 162 181 170 173 c 2,3,-1
 335 0 l 1,4,-1
 274 0 l 1,5,-1
 135 144 l 2,6,7
 112 167 112 167 81 170 c 1,8,-1
 81 0 l 1,9,-1
 36 0 l 1,10,-1
 36 475 l 1,11,-1
 81 475 l 1,12,-1
 81 216 l 1,13,-1
 242 339 l 1,14,-1
 311 339 l 1,15,-1
 130 202 l 1,0,1
EndSplineSet
KernsSLIFO: 196 -18 0 0 185 -18 0 0 80 -18 0 0 70 -18 0 0 14 -40 0 0
EndChar
StartChar: l
Encoding: 108 108 77
Width: 165
Flags: W
Fore
60 475 m 1,0,-1
 105 475 l 1,1,-1
 105 0 l 1,2,-1
 60 0 l 1,3,-1
 60 475 l 1,0,-1
EndSplineSet
KernsSLIFO: 176 10 0 0 175 10 0 0 85 -20 0 0 77 6 0 0 74 2 0 0 71 -20 0 0
EndChar
StartChar: m
Encoding: 109 109 78
Width: 523
Flags: W
Fore
239 0 m 1,0,-1
 239 228 l 2,1,2
 239 241 239 241 233.5 255 c 128,-1,3
 228 269 228 269 219 279.5 c 128,-1,4
 210 290 210 290 198 297 c 128,-1,5
 186 304 186 304 173 304 c 0,6,7
 156 304 156 304 139.5 297 c 128,-1,8
 123 290 123 290 110 279 c 128,-1,9
 97 268 97 268 89 252.5 c 128,-1,10
 81 237 81 237 81 221 c 2,11,-1
 81 0 l 1,12,-1
 36 0 l 1,13,-1
 36 339 l 1,14,-1
 81 339 l 1,15,-1
 81 303 l 1,16,17
 99 320 99 320 122.5 332 c 128,-1,18
 146 344 146 344 173 344 c 0,19,20
 201 344 201 344 224.5 329 c 128,-1,21
 248 314 248 314 263 293 c 1,22,23
 283 316 283 316 313 330 c 128,-1,24
 343 344 343 344 376 344 c 0,25,26
 399 344 399 344 419.5 334.5 c 128,-1,27
 440 325 440 325 455 309 c 128,-1,28
 470 293 470 293 478.5 272 c 128,-1,29
 487 251 487 251 487 228 c 2,30,-1
 487 0 l 1,31,-1
 442 0 l 1,32,-1
 442 230 l 2,33,34
 442 243 442 243 436.5 256.5 c 128,-1,35
 431 270 431 270 422 280.5 c 128,-1,36
 413 291 413 291 401 297.5 c 128,-1,37
 389 304 389 304 376 304 c 0,38,39
 359 304 359 304 342.5 298.5 c 128,-1,40
 326 293 326 293 313 282.5 c 128,-1,41
 300 272 300 272 292 258 c 128,-1,42
 284 244 284 244 284 227 c 2,43,-1
 284 0 l 1,44,-1
 239 0 l 1,0,-1
EndSplineSet
KernsSLIFO: 88 -10 0 0 87 -18 0 0
EndChar
StartChar: n
Encoding: 110 110 79
Width: 360
Flags: W
Fore
279 230 m 2,0,1
 279 243 279 243 273.5 256.5 c 128,-1,2
 268 270 268 270 259 280.5 c 128,-1,3
 250 291 250 291 238 297.5 c 128,-1,4
 226 304 226 304 213 304 c 2,5,-1
 173 304 l 2,6,7
 156 304 156 304 140.5 297 c 128,-1,8
 125 290 125 290 112.5 278.5 c 128,-1,9
 100 267 100 267 92 252 c 128,-1,10
 84 237 84 237 81 221 c 1,11,-1
 81 0 l 1,12,-1
 36 0 l 1,13,-1
 36 339 l 1,14,-1
 81 339 l 1,15,-1
 81 303 l 1,16,17
 99 320 99 320 122.5 332 c 128,-1,18
 146 344 146 344 173 344 c 2,19,-1
 213 344 l 2,20,21
 236 344 236 344 256.5 334.5 c 128,-1,22
 277 325 277 325 292 309 c 128,-1,23
 307 293 307 293 315.5 272 c 128,-1,24
 324 251 324 251 324 228 c 2,25,-1
 324 0 l 1,26,-1
 279 0 l 1,27,-1
 279 230 l 2,0,1
EndSplineSet
KernsSLIFO: 90 -18 0 0 88 -10 0 0 87 -18 0 0
EndChar
StartChar: o
Encoding: 111 111 80
Width: 350
Flags: W
Fore
318 135 m 2,0,1
 318 106 318 106 307.5 81 c 128,-1,2
 297 56 297 56 278.5 36.5 c 128,-1,3
 260 17 260 17 235.5 6 c 128,-1,4
 211 -5 211 -5 183 -5 c 2,5,-1
 143 -5 l 2,6,7
 120 -5 120 -5 99.5 4.5 c 128,-1,8
 79 14 79 14 64 30 c 128,-1,9
 49 46 49 46 40.5 67 c 128,-1,10
 32 88 32 88 32 111 c 2,11,-1
 32 204 l 2,12,13
 32 232 32 232 42.5 257.5 c 128,-1,14
 53 283 53 283 71.5 302.5 c 128,-1,15
 90 322 90 322 114.5 333 c 128,-1,16
 139 344 139 344 167 344 c 2,17,-1
 207 344 l 2,18,19
 230 344 230 344 250.5 334.5 c 128,-1,20
 271 325 271 325 286 309 c 128,-1,21
 301 293 301 293 309.5 272 c 128,-1,22
 318 251 318 251 318 228 c 2,23,-1
 318 135 l 2,0,1
273 228 m 2,24,25
 273 241 273 241 267.5 255 c 128,-1,26
 262 269 262 269 253 279.5 c 128,-1,27
 244 290 244 290 232 297 c 128,-1,28
 220 304 220 304 207 304 c 2,29,-1
 167 304 l 2,30,31
 148 304 148 304 131.5 295.5 c 128,-1,32
 115 287 115 287 103 273 c 128,-1,33
 91 259 91 259 84 241 c 128,-1,34
 77 223 77 223 77 204 c 2,35,-1
 77 111 l 2,36,37
 77 97 77 97 82 83.5 c 128,-1,38
 87 70 87 70 96 59.5 c 128,-1,39
 105 49 105 49 117 42 c 128,-1,40
 129 35 129 35 143 35 c 2,41,-1
 183 35 l 2,42,43
 202 35 202 35 218.5 43.5 c 128,-1,44
 235 52 235 52 247 66 c 128,-1,45
 259 80 259 80 266 98 c 128,-1,46
 273 116 273 116 273 135 c 2,47,-1
 273 228 l 2,24,25
EndSplineSet
KernsSLIFO: 314 -40 0 0 90 -12 0 0 89 -18 0 0 87 -12 0 0 15 -40 0 0 13 -29 0 0
EndChar
StartChar: p
Encoding: 112 112 81
Width: 354
Flags: W
Fore
36 339 m 1,0,-1
 81 339 l 1,1,-1
 81 300 l 1,2,3
 92 316 92 316 116.5 330 c 128,-1,4
 141 344 141 344 171 344 c 2,5,-1
 211 344 l 2,6,7
 234 344 234 344 254.5 334.5 c 128,-1,8
 275 325 275 325 290 309 c 128,-1,9
 305 293 305 293 313.5 272 c 128,-1,10
 322 251 322 251 322 228 c 2,11,-1
 322 135 l 2,12,13
 322 106 322 106 311.5 81 c 128,-1,14
 301 56 301 56 282.5 36.5 c 128,-1,15
 264 17 264 17 239.5 6 c 128,-1,16
 215 -5 215 -5 187 -5 c 2,17,-1
 147 -5 l 2,18,19
 124 -5 124 -5 108 5 c 128,-1,20
 92 15 92 15 81 26 c 1,21,-1
 81 -125 l 1,22,-1
 36 -125 l 1,23,-1
 36 339 l 1,0,-1
277 228 m 2,24,25
 277 241 277 241 271.5 255 c 128,-1,26
 266 269 266 269 257 279.5 c 128,-1,27
 248 290 248 290 236 297 c 128,-1,28
 224 304 224 304 211 304 c 2,29,-1
 171 304 l 2,30,31
 153 304 153 304 136.5 296 c 128,-1,32
 120 288 120 288 107.5 274.5 c 128,-1,33
 95 261 95 261 88 243.5 c 128,-1,34
 81 226 81 226 81 208 c 2,35,-1
 81 111 l 2,36,37
 81 97 81 97 86 83.5 c 128,-1,38
 91 70 91 70 100 59.5 c 128,-1,39
 109 49 109 49 121 42 c 128,-1,40
 133 35 133 35 147 35 c 2,41,-1
 187 35 l 2,42,43
 206 35 206 35 222.5 43.5 c 128,-1,44
 239 52 239 52 251 66 c 128,-1,45
 263 80 263 80 270 98 c 128,-1,46
 277 116 277 116 277 135 c 2,47,-1
 277 228 l 2,24,25
EndSplineSet
KernsSLIFO: 314 -18 0 0 90 -4 0 0 15 -18 0 0 13 -29 0 0
EndChar
StartChar: q
Encoding: 113 113 82
Width: 354
Flags: W
Fore
273 42 m 1,0,1
 258 22 258 22 233.5 8.5 c 128,-1,2
 209 -5 209 -5 183 -5 c 2,3,-1
 143 -5 l 2,4,5
 120 -5 120 -5 99.5 4.5 c 128,-1,6
 79 14 79 14 64 30 c 128,-1,7
 49 46 49 46 40.5 67 c 128,-1,8
 32 88 32 88 32 111 c 2,9,-1
 32 204 l 2,10,11
 32 232 32 232 42.5 257.5 c 128,-1,12
 53 283 53 283 71.5 302.5 c 128,-1,13
 90 322 90 322 114.5 333 c 128,-1,14
 139 344 139 344 167 344 c 2,15,-1
 207 344 l 2,16,17
 232 344 232 344 246.5 334.5 c 128,-1,18
 261 325 261 325 273 313 c 1,19,-1
 273 339 l 1,20,-1
 318 339 l 1,21,-1
 318 -125 l 1,22,-1
 273 -125 l 1,23,-1
 273 42 l 1,0,1
273 233 m 2,24,25
 271 259 271 259 252 281 c 128,-1,26
 233 303 233 303 207 303 c 2,27,-1
 167 303 l 2,28,29
 148 303 148 303 131.5 294.5 c 128,-1,30
 115 286 115 286 103 272.5 c 128,-1,31
 91 259 91 259 84 241 c 128,-1,32
 77 223 77 223 77 204 c 2,33,-1
 77 111 l 2,34,35
 77 97 77 97 82 83.5 c 128,-1,36
 87 70 87 70 96 59.5 c 128,-1,37
 105 49 105 49 117 42 c 128,-1,38
 129 35 129 35 143 35 c 2,39,-1
 183 35 l 2,40,41
 201 35 201 35 217 43 c 128,-1,42
 233 51 233 51 245 64.5 c 128,-1,43
 257 78 257 78 264.5 95.5 c 128,-1,44
 272 113 272 113 273 131 c 2,45,-1
 273 233 l 2,24,25
EndSplineSet
EndChar
StartChar: r
Encoding: 114 114 83
Width: 232
Flags: W
Fore
37 339 m 1,0,-1
 82 339 l 1,1,-1
 82 304 l 1,2,3
 100 320 100 320 123 332 c 128,-1,4
 146 344 146 344 172 344 c 2,5,-1
 212 344 l 1,6,-1
 212 304 l 1,7,-1
 172 304 l 2,8,9
 154 304 154 304 137.5 295 c 128,-1,10
 121 286 121 286 108.5 272 c 128,-1,11
 96 258 96 258 89 240 c 128,-1,12
 82 222 82 222 82 204 c 2,13,-1
 82 0 l 1,14,-1
 37 0 l 1,15,-1
 37 339 l 1,0,-1
EndSplineSet
KernsSLIFO: 314 -100 0 0 309 29 0 0 306 29 0 0 196 -10 0 0 185 -10 0 0 170 -10 0 0 168 -10 0 0 167 -39 0 0 82 -10 0 0 80 -10 0 0 72 -10 0 0 70 -10 0 0 69 -10 0 0 68 -10 0 0 66 -20 0 0 15 -80 0 0 14 -25 0 0 13 -60 0 0
EndChar
StartChar: s
Encoding: 115 115 84
Width: 380
Flags: W
Fore
126 163 m 2,0,1
 100 167 100 167 85 176 c 128,-1,2
 70 185 70 185 61.5 196.5 c 128,-1,3
 53 208 53 208 50.5 220.5 c 128,-1,4
 48 233 48 233 48 245 c 0,5,6
 48 270 48 270 59.5 288.5 c 128,-1,7
 71 307 71 307 88.5 319.5 c 128,-1,8
 106 332 106 332 127 338 c 128,-1,9
 148 344 148 344 168 344 c 2,10,-1
 237 344 l 2,11,12
 284 344 284 344 316 314.5 c 128,-1,13
 348 285 348 285 348 238 c 1,14,-1
 303 238 l 1,15,16
 303 265 303 265 283.5 284.5 c 128,-1,17
 264 304 264 304 237 304 c 2,18,-1
 168 304 l 2,19,20
 159 304 159 304 146 300.5 c 128,-1,21
 133 297 133 297 121.5 289.5 c 128,-1,22
 110 282 110 282 101.5 271 c 128,-1,23
 93 260 93 260 93 246 c 0,24,25
 93 241 93 241 94 234.5 c 128,-1,26
 95 228 95 228 99 222 c 128,-1,27
 103 216 103 216 112 211 c 128,-1,28
 121 206 121 206 137 203 c 2,29,-1
 279 186 l 2,30,31
 305 182 305 182 320.5 171.5 c 128,-1,32
 336 161 336 161 344 147.5 c 128,-1,33
 352 134 352 134 354.5 120 c 128,-1,34
 357 106 357 106 357 94 c 0,35,36
 357 73 357 73 347.5 54.5 c 128,-1,37
 338 36 338 36 322 23 c 128,-1,38
 306 10 306 10 284 2.5 c 128,-1,39
 262 -5 262 -5 237 -5 c 2,40,-1
 143 -5 l 2,41,42
 96 -5 96 -5 64 24.5 c 128,-1,43
 32 54 32 54 32 101 c 1,44,-1
 77 101 l 1,45,46
 77 74 77 74 96.5 54.5 c 128,-1,47
 116 35 116 35 143 35 c 2,48,-1
 237 35 l 2,49,50
 246 35 246 35 259 39 c 128,-1,51
 272 43 272 43 283.5 50.5 c 128,-1,52
 295 58 295 58 303.5 68.5 c 128,-1,53
 312 79 312 79 312 93 c 0,54,55
 312 112 312 112 304 126.5 c 128,-1,56
 296 141 296 141 268 146 c 2,57,-1
 126 163 l 2,0,1
EndSplineSet
EndChar
StartChar: t
Encoding: 116 116 85
Width: 212
Flags: W
Fore
85 304 m 1,0,-1
 20 304 l 1,1,-1
 20 339 l 1,2,-1
 85 339 l 1,3,-1
 85 475 l 1,4,-1
 130 475 l 1,5,-1
 130 339 l 1,6,-1
 192 339 l 1,7,-1
 192 304 l 1,8,-1
 130 304 l 1,9,-1
 130 0 l 1,10,-1
 85 0 l 1,11,-1
 85 304 l 1,0,-1
EndSplineSet
KernsSLIFO: 309 18 0 0 306 18 0 0 85 -40 0 0
EndChar
StartChar: u
Encoding: 117 117 86
Width: 357
Flags: W
Fore
81 109 m 2,0,1
 81 82 81 82 99 58.5 c 128,-1,2
 117 35 117 35 144 35 c 2,3,-1
 184 35 l 2,4,5
 201 35 201 35 216.5 42 c 128,-1,6
 232 49 232 49 244.5 60.5 c 128,-1,7
 257 72 257 72 265 87 c 128,-1,8
 273 102 273 102 276 118 c 1,9,-1
 276 339 l 1,10,-1
 321 339 l 1,11,-1
 321 0 l 1,12,-1
 276 0 l 1,13,-1
 276 43 l 1,14,15
 262 23 262 23 236.5 9 c 128,-1,16
 211 -5 211 -5 184 -5 c 2,17,-1
 144 -5 l 2,18,19
 121 -5 121 -5 101 4.5 c 128,-1,20
 81 14 81 14 66.5 30 c 128,-1,21
 52 46 52 46 44 67 c 128,-1,22
 36 88 36 88 36 111 c 2,23,-1
 36 339 l 1,24,-1
 81 339 l 1,25,-1
 81 109 l 2,0,1
EndSplineSet
EndChar
StartChar: v
Encoding: 118 118 87
Width: 349
Flags: W
Fore
199 -5 m 1,0,1
 178 -5 178 -5 159.5 4 c 128,-1,2
 141 13 141 13 133 31 c 2,3,-1
 20 339 l 1,4,-1
 67 339 l 1,5,-1
 174 48 l 1,6,-1
 282 339 l 1,7,-1
 329 339 l 1,8,-1
 199 -5 l 1,0,1
EndSplineSet
KernsSLIFO: 314 -100 0 0 306 31 0 0 196 -12 0 0 185 -16 0 0 167 -39 0 0 80 -16 0 0 70 -16 0 0 66 -39 0 0 15 -100 0 0 13 -80 0 0
EndChar
StartChar: w
Encoding: 119 119 88
Width: 561
Flags: W
Fore
280 280 m 1,0,-1
 183 -5 l 1,1,2
 167 -5 167 -5 154 2 c 128,-1,3
 141 9 141 9 136 23 c 2,4,-1
 20 339 l 1,5,-1
 68 339 l 1,6,-1
 165 53 l 1,7,-1
 262 345 l 1,8,9
 278 345 278 345 291.5 337.5 c 128,-1,10
 305 330 305 330 310 316 c 2,11,-1
 396 53 l 1,12,-1
 493 339 l 1,13,-1
 541 339 l 1,14,-1
 426 23 l 2,15,16
 421 9 421 9 407.5 2 c 128,-1,17
 394 -5 394 -5 378 -5 c 1,18,-1
 280 280 l 1,0,-1
EndSplineSet
KernsSLIFO: 314 -68 0 0 306 20 0 0 167 -18 0 0 66 -18 0 0 15 -68 0 0 14 -18 0 0 13 -68 0 0
EndChar
StartChar: x
Encoding: 120 120 89
Width: 373
Flags: W
Fore
285 339 m 1,0,-1
 341 339 l 1,1,-1
 216 179 l 1,2,-1
 359 0 l 1,3,-1
 302 0 l 1,4,-1
 186 145 l 1,5,-1
 71 0 l 1,6,-1
 14 0 l 1,7,-1
 156 179 l 1,8,-1
 32 339 l 1,9,-1
 88 339 l 1,10,-1
 186 213 l 1,11,-1
 285 339 l 1,0,-1
EndSplineSet
KernsSLIFO: 196 -18 0 0 185 -25 0 0 168 -18 0 0 80 -25 0 0 72 -10 0 0 70 -25 0 0 69 -10 0 0 68 -18 0 0 14 -20 0 0
EndChar
StartChar: y
Encoding: 121 121 90
Width: 358
Flags: W
Fore
92 -50 m 1,0,1
 101 -64 101 -64 115.5 -75 c 128,-1,2
 130 -86 130 -86 147 -86 c 2,3,-1
 187 -86 l 2,4,5
 204 -86 204 -86 220 -79.5 c 128,-1,6
 236 -73 236 -73 248.5 -62.5 c 128,-1,7
 261 -52 261 -52 268.5 -37.5 c 128,-1,8
 276 -23 276 -23 276 -6 c 2,9,-1
 276 61 l 1,10,11
 258 44 258 44 234.5 32 c 128,-1,12
 211 20 211 20 184 20 c 2,13,-1
 144 20 l 2,14,15
 121 20 121 20 101 29.5 c 128,-1,16
 81 39 81 39 66.5 55 c 128,-1,17
 52 71 52 71 44 92 c 128,-1,18
 36 113 36 113 36 136 c 2,19,-1
 36 339 l 1,20,-1
 81 339 l 1,21,-1
 81 134 l 2,22,23
 81 107 81 107 99 84 c 128,-1,24
 117 61 117 61 144 61 c 2,25,-1
 184 61 l 2,26,27
 201 61 201 61 216.5 68 c 128,-1,28
 232 75 232 75 244.5 86 c 128,-1,29
 257 97 257 97 265 112 c 128,-1,30
 273 127 273 127 276 143 c 1,31,-1
 276 339 l 1,32,-1
 321 339 l 1,33,-1
 321 -6 l 2,34,35
 321 -30 321 -30 308.5 -51.5 c 128,-1,36
 296 -73 296 -73 276 -89 c 128,-1,37
 256 -105 256 -105 232 -114.5 c 128,-1,38
 208 -124 208 -124 184 -124 c 2,39,-1
 144 -124 l 2,40,41
 107 -124 107 -124 78.5 -103 c 128,-1,42
 50 -82 50 -82 39 -50 c 1,43,-1
 92 -50 l 1,0,1
EndSplineSet
KernsSLIFO: 314 -40 0 0 306 31 0 0 196 -12 0 0 185 -16 0 0 168 -16 0 0 167 -20 0 0 80 -16 0 0 15 -30 0 0
EndChar
StartChar: z
Encoding: 122 122 91
Width: 375
Flags: W
Fore
336 0 m 1,0,-1
 32 0 l 1,1,-1
 257 304 l 1,2,-1
 42 304 l 1,3,-1
 42 339 l 1,4,-1
 343 339 l 1,5,-1
 117 35 l 1,6,-1
 336 35 l 1,7,-1
 336 0 l 1,0,-1
EndSplineSet
KernsSLIFO: 185 -10 0 0 168 -10 0 0 82 -10 0 0 80 -10 0 0 72 -10 0 0 70 -10 0 0 69 -10 0 0 68 -10 0 0 14 -18 0 0
EndChar
StartChar: braceleft
Encoding: 123 123 92
Width: 284
Flags: W
Fore
159 -67 m 2,0,1
 159 -89 159 -89 177.5 -97 c 128,-1,2
 196 -105 196 -105 217 -105 c 2,3,-1
 241 -105 l 1,4,-1
 241 -142 l 1,5,-1
 217 -142 l 2,6,7
 197 -142 197 -142 179 -138 c 128,-1,8
 161 -134 161 -134 147 -125.5 c 128,-1,9
 133 -117 133 -117 125 -103.5 c 128,-1,10
 117 -90 117 -90 117 -70 c 2,11,-1
 117 79 l 2,12,13
 117 96 117 96 106 113.5 c 128,-1,14
 95 131 95 131 79.5 145.5 c 128,-1,15
 64 160 64 160 47 169 c 128,-1,16
 30 178 30 178 18 178 c 1,17,18
 30 178 30 178 47 185.5 c 128,-1,19
 64 193 64 193 79.5 206.5 c 128,-1,20
 95 220 95 220 106 238.5 c 128,-1,21
 117 257 117 257 117 278 c 2,22,-1
 117 457 l 2,23,24
 117 477 117 477 125 491 c 128,-1,25
 133 505 133 505 147 514 c 128,-1,26
 161 523 161 523 179 527 c 128,-1,27
 197 531 197 531 217 531 c 2,28,-1
 241 531 l 1,29,-1
 241 494 l 1,30,-1
 217 494 l 2,31,32
 196 494 196 494 177.5 485 c 128,-1,33
 159 476 159 476 159 454 c 2,34,-1
 159 278 l 2,35,36
 159 257 159 257 152.5 239.5 c 128,-1,37
 146 222 146 222 136.5 209 c 128,-1,38
 127 196 127 196 116.5 188 c 128,-1,39
 106 180 106 180 98 178 c 1,40,41
 106 173 106 173 116.5 164 c 128,-1,42
 127 155 127 155 136.5 142 c 128,-1,43
 146 129 146 129 152.5 113 c 128,-1,44
 159 97 159 97 159 79 c 2,45,-1
 159 -67 l 2,0,1
EndSplineSet
KernsSLIFO: 75 80 0 0
EndChar
StartChar: bar
Encoding: 124 124 93
Width: 164
Flags: W
Fore
60 575 m 1,0,-1
 105 575 l 1,1,-1
 105 -100 l 1,2,-1
 60 -100 l 1,3,-1
 60 575 l 1,0,-1
EndSplineSet
EndChar
StartChar: braceright
Encoding: 125 125 94
Width: 284
Flags: W
Fore
124 79 m 2,0,1
 124 97 124 97 130.5 113 c 128,-1,2
 137 129 137 129 146.5 142 c 128,-1,3
 156 155 156 155 166.5 164 c 128,-1,4
 177 173 177 173 185 178 c 1,5,6
 177 180 177 180 166.5 188 c 128,-1,7
 156 196 156 196 146.5 209 c 128,-1,8
 137 222 137 222 130.5 239.5 c 128,-1,9
 124 257 124 257 124 278 c 2,10,-1
 124 454 l 2,11,12
 124 476 124 476 105.5 485 c 128,-1,13
 87 494 87 494 66 494 c 2,14,-1
 42 494 l 1,15,-1
 42 531 l 1,16,-1
 66 531 l 2,17,18
 86 531 86 531 104 527 c 128,-1,19
 122 523 122 523 136 514 c 128,-1,20
 150 505 150 505 158 491 c 128,-1,21
 166 477 166 477 166 457 c 2,22,-1
 166 278 l 2,23,24
 166 257 166 257 177 238.5 c 128,-1,25
 188 220 188 220 203.5 206.5 c 128,-1,26
 219 193 219 193 236 185.5 c 128,-1,27
 253 178 253 178 265 178 c 1,28,29
 253 178 253 178 236 169 c 128,-1,30
 219 160 219 160 203.5 145.5 c 128,-1,31
 188 131 188 131 177 113.5 c 128,-1,32
 166 96 166 96 166 79 c 2,33,-1
 166 -70 l 2,34,35
 166 -90 166 -90 158 -103.5 c 128,-1,36
 150 -117 150 -117 136 -125.5 c 128,-1,37
 122 -134 122 -134 104 -138 c 128,-1,38
 86 -142 86 -142 66 -142 c 2,39,-1
 42 -142 l 1,40,-1
 42 -105 l 1,41,-1
 66 -105 l 2,42,43
 87 -105 87 -105 105.5 -97 c 128,-1,44
 124 -89 124 -89 124 -67 c 2,45,-1
 124 79 l 2,0,1
EndSplineSet
EndChar
StartChar: asciitilde
Encoding: 126 126 95
Width: 400
Flags: W
Fore
276 217 m 0,0,1
 297 217 297 217 314 238.5 c 128,-1,2
 331 260 331 260 336 294 c 1,3,-1
 372 294 l 1,4,5
 372 263 372 263 362 240 c 128,-1,6
 352 217 352 217 337.5 202 c 128,-1,7
 323 187 323 187 306.5 179.5 c 128,-1,8
 290 172 290 172 276 172 c 0,9,10
 243 172 243 172 223 185 c 128,-1,11
 203 198 203 198 188.5 214 c 128,-1,12
 174 230 174 230 161 243 c 128,-1,13
 148 256 148 256 129 256 c 0,14,15
 108 256 108 256 91 234.5 c 128,-1,16
 74 213 74 213 69 179 c 1,17,-1
 33 179 l 1,18,19
 33 210 33 210 43 233 c 128,-1,20
 53 256 53 256 67.5 271 c 128,-1,21
 82 286 82 286 98.5 293.5 c 128,-1,22
 115 301 115 301 129 301 c 0,23,24
 157 301 157 301 174 288 c 128,-1,25
 191 275 191 275 205.5 259 c 128,-1,26
 220 243 220 243 235.5 230 c 128,-1,27
 251 217 251 217 276 217 c 0,0,1
EndSplineSet
EndChar
StartChar: quotedbl
Encoding: 34 34 97
Width: 232
Flags: W
Fore
36 505 m 1,0,-1
 83 505 l 1,1,-1
 83 359 l 1,2,-1
 36 359 l 1,3,-1
 36 505 l 1,0,-1
148 505 m 1,4,-1
 195 505 l 1,5,-1
 195 359 l 1,6,-1
 148 359 l 1,7,-1
 148 505 l 1,4,-1
EndSplineSet
EndChar
StartChar: exclam
Encoding: 33 33 98
Width: 181
Flags: W
Fore
71 476 m 1,0,-1
 116 476 l 1,1,-1
 116 109 l 1,2,-1
 71 109 l 1,3,-1
 71 476 l 1,0,-1
59 30 m 256,4,5
 59 15 59 15 69 5 c 128,-1,6
 79 -5 79 -5 94 -5 c 256,7,8
 109 -5 109 -5 119 5 c 128,-1,9
 129 15 129 15 129 30 c 256,10,11
 129 45 129 45 119 55 c 128,-1,12
 109 65 109 65 94 65 c 256,13,14
 79 65 79 65 69 55 c 128,-1,15
 59 45 59 45 59 30 c 256,4,5
EndSplineSet
EndChar
StartChar: cent
Encoding: 162 162 101
Width: 382
Flags: W
Fore
219 104 m 1,0,1
 251 109 251 109 272.5 132 c 128,-1,2
 294 155 294 155 294 190 c 1,3,-1
 339 190 l 1,4,5
 339 163 339 163 329.5 141 c 128,-1,6
 320 119 320 119 304 103 c 128,-1,7
 288 87 288 87 266 77 c 128,-1,8
 244 67 244 67 219 65 c 1,9,-1
 219 -14 l 1,10,-1
 174 -14 l 1,11,-1
 174 64 l 1,12,-1
 164 64 l 2,13,14
 141 64 141 64 120.5 73.5 c 128,-1,15
 100 83 100 83 85 99 c 128,-1,16
 70 115 70 115 61.5 136 c 128,-1,17
 53 157 53 157 53 180 c 2,18,-1
 53 273 l 2,19,20
 53 300 53 300 62.5 323.5 c 128,-1,21
 72 347 72 347 88 366 c 128,-1,22
 104 385 104 385 126 397 c 128,-1,23
 148 409 148 409 174 412 c 1,24,-1
 174 492 l 1,25,-1
 219 492 l 1,26,-1
 219 413 l 1,27,-1
 227 413 l 2,28,29
 274 413 274 413 306 383.5 c 128,-1,30
 338 354 338 354 338 307 c 1,31,-1
 293 307 l 1,32,33
 293 334 293 334 273.5 353.5 c 128,-1,34
 254 373 254 373 227 373 c 2,35,-1
 174 373 l 1,36,37
 158 370 158 370 144 360.5 c 128,-1,38
 130 351 130 351 120 337.5 c 128,-1,39
 110 324 110 324 104 307 c 128,-1,40
 98 290 98 290 98 273 c 2,41,-1
 98 180 l 2,42,43
 98 166 98 166 103 152.5 c 128,-1,44
 108 139 108 139 117 128.5 c 128,-1,45
 126 118 126 118 138 111 c 128,-1,46
 150 104 150 104 164 104 c 2,47,-1
 219 104 l 1,0,1
EndSplineSet
EndChar
StartChar: sterling
Encoding: 163 163 102
Width: 382
Flags: W
Fore
186 209 m 1,0,-1
 198 129 l 1,1,2
 198 115 198 115 192 99 c 128,-1,3
 186 83 186 83 177 70 c 128,-1,4
 168 57 168 57 158 48.5 c 128,-1,5
 148 40 148 40 139 40 c 1,6,-1
 354 40 l 1,7,-1
 354 0 l 1,8,-1
 45 0 l 1,9,-1
 45 40 l 1,10,11
 59 40 59 40 78 47.5 c 128,-1,12
 97 55 97 55 113.5 67.5 c 128,-1,13
 130 80 130 80 141.5 96 c 128,-1,14
 153 112 153 112 153 130 c 0,15,16
 153 131 153 131 152.5 133 c 128,-1,17
 152 135 152 135 151 142.5 c 128,-1,18
 150 150 150 150 147.5 165.5 c 128,-1,19
 145 181 145 181 141 209 c 1,20,-1
 43 209 l 1,21,-1
 43 254 l 1,22,-1
 133 254 l 1,23,24
 130 270 130 270 129 281 c 128,-1,25
 128 292 128 292 127 301 c 128,-1,26
 126 310 126 310 126 319 c 128,-1,27
 126 328 126 328 126 340 c 0,28,29
 126 368 126 368 136.5 393.5 c 128,-1,30
 147 419 147 419 165.5 438.5 c 128,-1,31
 184 458 184 458 208.5 469 c 128,-1,32
 233 480 233 480 261 480 c 0,33,34
 304 480 304 480 336 450 c 1,35,-1
 306 414 l 1,36,37
 297 423 297 423 285.5 429 c 128,-1,38
 274 435 274 435 261 435 c 0,39,40
 242 435 242 435 225.5 427.5 c 128,-1,41
 209 420 209 420 197 407 c 128,-1,42
 185 394 185 394 178 376.5 c 128,-1,43
 171 359 171 359 171 340 c 256,44,45
 171 321 171 321 172 300 c 128,-1,46
 173 279 173 279 178 254 c 1,47,-1
 308 254 l 1,48,-1
 308 209 l 1,49,-1
 186 209 l 1,0,-1
EndSplineSet
EndChar
StartChar: currency
Encoding: 164 164 103
Width: 486
Flags: W
Fore
96 116 m 1,0,1
 76 140 76 140 66 169 c 128,-1,2
 56 198 56 198 56 230 c 256,3,4
 56 262 56 262 66 292 c 128,-1,5
 76 322 76 322 96 346 c 1,6,-1
 56 387 l 1,7,-1
 86 418 l 1,8,-1
 127 376 l 1,9,10
 152 396 152 396 181.5 406.5 c 128,-1,11
 211 417 211 417 243 417 c 256,12,13
 275 417 275 417 304.5 406.5 c 128,-1,14
 334 396 334 396 359 376 c 1,15,-1
 402 418 l 1,16,-1
 431 387 l 1,17,-1
 390 346 l 1,18,19
 411 322 411 322 420 292 c 128,-1,20
 429 262 429 262 429 230 c 0,21,22
 429 199 429 199 419.5 169.5 c 128,-1,23
 410 140 410 140 390 116 c 1,24,-1
 431 74 l 1,25,-1
 401 44 l 1,26,-1
 359 87 l 1,27,28
 335 65 335 65 304.5 54.5 c 128,-1,29
 274 44 274 44 242 44 c 256,30,31
 210 44 210 44 180 54 c 128,-1,32
 150 64 150 64 127 87 c 1,33,-1
 86 44 l 1,34,-1
 56 74 l 1,35,-1
 96 116 l 1,0,1
242 374 m 0,36,37
 212 374 212 374 186 361.5 c 128,-1,38
 160 349 160 349 141.5 329 c 128,-1,39
 123 309 123 309 112.5 283 c 128,-1,40
 102 257 102 257 102 230 c 0,41,42
 102 201 102 201 113 175 c 128,-1,43
 124 149 124 149 143 129.5 c 128,-1,44
 162 110 162 110 187.5 98.5 c 128,-1,45
 213 87 213 87 242 87 c 256,46,47
 271 87 271 87 297 98.5 c 128,-1,48
 323 110 323 110 342 129.5 c 128,-1,49
 361 149 361 149 372 175 c 128,-1,50
 383 201 383 201 383 230 c 0,51,52
 383 258 383 258 372 284.5 c 128,-1,53
 361 311 361 311 341.5 330.5 c 128,-1,54
 322 350 322 350 296.5 362 c 128,-1,55
 271 374 271 374 242 374 c 0,36,37
EndSplineSet
EndChar
StartChar: yen
Encoding: 165 165 104
Width: 382
Flags: W
Fore
161 174 m 1,0,-1
 52 174 l 1,1,-1
 52 217 l 1,2,-1
 161 217 l 1,3,-1
 161 237 l 1,4,-1
 4 475 l 1,5,-1
 55 475 l 1,6,-1
 183 275 l 1,7,-1
 313 475 l 1,8,-1
 364 475 l 1,9,-1
 206 237 l 1,10,-1
 206 217 l 1,11,-1
 317 217 l 1,12,-1
 317 174 l 1,13,-1
 206 174 l 1,14,-1
 206 0 l 1,15,-1
 161 0 l 1,16,-1
 161 174 l 1,0,-1
EndSplineSet
EndChar
StartChar: brokenbar
Encoding: 166 166 105
Width: 158
Flags: W
Fore
60 295 m 1,0,-1
 60 575 l 1,1,-1
 105 575 l 1,2,-1
 105 295 l 1,3,-1
 60 295 l 1,0,-1
105 205 m 1,4,-1
 105 -100 l 1,5,-1
 60 -100 l 1,6,-1
 60 205 l 1,7,-1
 105 205 l 1,4,-1
EndSplineSet
EndChar
StartChar: section
Encoding: 167 167 106
Width: 399
Flags: W
Fore
63 395 m 0,0,1
 63 420 63 420 74.5 438.5 c 128,-1,2
 86 457 86 457 103.5 469.5 c 128,-1,3
 121 482 121 482 142 488 c 128,-1,4
 163 494 163 494 183 494 c 2,5,-1
 252 494 l 2,6,7
 299 494 299 494 331 464.5 c 128,-1,8
 363 435 363 435 363 388 c 1,9,-1
 318 388 l 1,10,11
 318 415 318 415 298.5 434.5 c 128,-1,12
 279 454 279 454 252 454 c 2,13,-1
 183 454 l 2,14,15
 174 454 174 454 161 450.5 c 128,-1,16
 148 447 148 447 136.5 439.5 c 128,-1,17
 125 432 125 432 116.5 421 c 128,-1,18
 108 410 108 410 108 396 c 0,19,20
 108 386 108 386 114.5 375 c 128,-1,21
 121 364 121 364 152 353 c 2,22,-1
 294 304 l 2,23,24
 319 295 319 295 334 284 c 128,-1,25
 349 273 349 273 357.5 261 c 128,-1,26
 366 249 366 249 369 236.5 c 128,-1,27
 372 224 372 224 372 212 c 0,28,29
 372 186 372 186 358.5 165 c 128,-1,30
 345 144 345 144 322 131 c 1,31,32
 341 115 341 115 347 97.5 c 128,-1,33
 353 80 353 80 353 64 c 0,34,35
 353 43 353 43 343.5 24.5 c 128,-1,36
 334 6 334 6 318 -7 c 128,-1,37
 302 -20 302 -20 280 -27.5 c 128,-1,38
 258 -35 258 -35 233 -35 c 2,39,-1
 139 -35 l 2,40,41
 92 -35 92 -35 60 -5.5 c 128,-1,42
 28 24 28 24 28 71 c 1,43,-1
 73 71 l 1,44,45
 73 44 73 44 92.5 24.5 c 128,-1,46
 112 5 112 5 139 5 c 2,47,-1
 233 5 l 2,48,49
 242 5 242 5 255 9 c 128,-1,50
 268 13 268 13 279.5 20.5 c 128,-1,51
 291 28 291 28 299.5 38.5 c 128,-1,52
 308 49 308 49 308 63 c 0,53,54
 308 82 308 82 299 94.5 c 128,-1,55
 290 107 290 107 264 116 c 2,56,-1
 122 165 l 2,57,58
 98 173 98 173 82.5 182.5 c 128,-1,59
 67 192 67 192 58.5 202.5 c 128,-1,60
 50 213 50 213 47 224 c 128,-1,61
 44 235 44 235 44 247 c 0,62,63
 44 277 44 277 60.5 298 c 128,-1,64
 77 319 77 319 101 331 c 1,65,66
 78 345 78 345 70.5 361.5 c 128,-1,67
 63 378 63 378 63 395 c 0,0,1
327 211 m 0,68,69
 327 230 327 230 318 242.5 c 128,-1,70
 309 255 309 255 283 264 c 2,71,-1
 161 306 l 1,72,73
 152 306 152 306 139.5 302 c 128,-1,74
 127 298 127 298 115.5 290.5 c 128,-1,75
 104 283 104 283 96.5 272.5 c 128,-1,76
 89 262 89 262 89 248 c 0,77,78
 89 238 89 238 95.5 227 c 128,-1,79
 102 216 102 216 133 205 c 2,80,-1
 273 156 l 1,81,82
 292 162 292 162 309.5 176 c 128,-1,83
 327 190 327 190 327 211 c 0,68,69
EndSplineSet
EndChar
StartChar: dieresis
Encoding: 168 168 107
Width: 231
Flags: W
Fore
8 437 m 256,0,1
 8 452 8 452 18 462 c 128,-1,2
 28 472 28 472 43 472 c 256,3,4
 58 472 58 472 68 462 c 128,-1,5
 78 452 78 452 78 437 c 256,6,7
 78 422 78 422 68 412 c 128,-1,8
 58 402 58 402 43 402 c 256,9,10
 28 402 28 402 18 412 c 128,-1,11
 8 422 8 422 8 437 c 256,0,1
151 437 m 256,12,13
 151 452 151 452 161 462 c 128,-1,14
 171 472 171 472 186 472 c 256,15,16
 201 472 201 472 211 462 c 128,-1,17
 221 452 221 452 221 437 c 256,18,19
 221 422 221 422 211 412 c 128,-1,20
 201 402 201 402 186 402 c 256,21,22
 171 402 171 402 161 412 c 128,-1,23
 151 422 151 422 151 437 c 256,12,13
EndSplineSet
EndChar
StartChar: copyright
Encoding: 169 169 108
Width: 487
Flags: W
Fore
245 459 m 0,0,1
 290 459 290 459 329.5 440.5 c 128,-1,2
 369 422 369 422 398.5 391.5 c 128,-1,3
 428 361 428 361 445 320.5 c 128,-1,4
 462 280 462 280 462 236 c 0,5,6
 462 191 462 191 445 151 c 128,-1,7
 428 111 428 111 398.5 81 c 128,-1,8
 369 51 369 51 329.5 33 c 128,-1,9
 290 15 290 15 245 15 c 256,10,11
 200 15 200 15 160.5 33 c 128,-1,12
 121 51 121 51 91.5 81 c 128,-1,13
 62 111 62 111 45 151 c 128,-1,14
 28 191 28 191 28 236 c 0,15,16
 28 278 28 278 44 318 c 128,-1,17
 60 358 60 358 89 389.5 c 128,-1,18
 118 421 118 421 158 440 c 128,-1,19
 198 459 198 459 245 459 c 0,0,1
245 423 m 0,20,21
 205 423 205 423 171.5 407 c 128,-1,22
 138 391 138 391 114 364.5 c 128,-1,23
 90 338 90 338 76.5 304.5 c 128,-1,24
 63 271 63 271 63 236 c 0,25,26
 63 198 63 198 77 164.5 c 128,-1,27
 91 131 91 131 116 106 c 128,-1,28
 141 81 141 81 174 66 c 128,-1,29
 207 51 207 51 245 51 c 256,30,31
 283 51 283 51 316 66 c 128,-1,32
 349 81 349 81 374 106 c 128,-1,33
 399 131 399 131 413 164.5 c 128,-1,34
 427 198 427 198 427 236 c 0,35,36
 427 273 427 273 412.5 307 c 128,-1,37
 398 341 398 341 373.5 366.5 c 128,-1,38
 349 392 349 392 315.5 407.5 c 128,-1,39
 282 423 282 423 245 423 c 0,20,21
306 288 m 1,40,41
 306 305 306 305 293.5 317 c 128,-1,42
 281 329 281 329 264 329 c 2,43,-1
 237 329 l 2,44,45
 213 329 213 329 195.5 308.5 c 128,-1,46
 178 288 178 288 178 262 c 2,47,-1
 178 202 l 2,48,49
 178 184 178 184 191 167.5 c 128,-1,50
 204 151 204 151 221 151 c 2,51,-1
 248 151 l 2,52,53
 273 151 273 151 290.5 166 c 128,-1,54
 308 181 308 181 308 207 c 1,55,-1
 344 207 l 1,56,57
 344 166 344 166 316 142 c 128,-1,58
 288 118 288 118 248 118 c 2,59,-1
 220 118 l 2,60,61
 204 118 204 118 189.5 124.5 c 128,-1,62
 175 131 175 131 164.5 142.5 c 128,-1,63
 154 154 154 154 148 168.5 c 128,-1,64
 142 183 142 183 142 199 c 2,65,-1
 142 264 l 2,66,67
 142 284 142 284 149.5 302 c 128,-1,68
 157 320 157 320 170 333.5 c 128,-1,69
 183 347 183 347 200 355 c 128,-1,70
 217 363 217 363 237 363 c 2,71,-1
 265 363 l 2,72,73
 298 363 298 363 320 341.5 c 128,-1,74
 342 320 342 320 342 288 c 1,75,-1
 306 288 l 1,40,41
EndSplineSet
EndChar
StartChar: logicalnot
Encoding: 172 172 111
Width: 429
Flags: W
Fore
354 93 m 1,0,-1
 354 246 l 1,1,-1
 28 246 l 1,2,-1
 28 291 l 1,3,-1
 399 291 l 1,4,-1
 399 93 l 1,5,-1
 354 93 l 1,0,-1
EndSplineSet
EndChar
StartChar: registered
Encoding: 174 174 112
Width: 367
Flags: W
Fore
185 485 m 0,0,1
 217 485 217 485 245 472 c 128,-1,2
 273 459 273 459 294 437 c 128,-1,3
 315 415 315 415 327.5 386 c 128,-1,4
 340 357 340 357 340 326 c 0,5,6
 340 294 340 294 328 266 c 128,-1,7
 316 238 316 238 295 216 c 128,-1,8
 274 194 274 194 245.5 181.5 c 128,-1,9
 217 169 217 169 185 169 c 256,10,11
 153 169 153 169 125 181.5 c 128,-1,12
 97 194 97 194 76 216 c 128,-1,13
 55 238 55 238 43 266 c 128,-1,14
 31 294 31 294 31 326 c 0,15,16
 31 356 31 356 42.5 384.5 c 128,-1,17
 54 413 54 413 74.5 435.5 c 128,-1,18
 95 458 95 458 123.5 471.5 c 128,-1,19
 152 485 152 485 185 485 c 0,0,1
185 459 m 0,20,21
 157 459 157 459 133.5 447.5 c 128,-1,22
 110 436 110 436 92.5 417.5 c 128,-1,23
 75 399 75 399 65.5 375 c 128,-1,24
 56 351 56 351 56 326 c 0,25,26
 56 299 56 299 66 275.5 c 128,-1,27
 76 252 76 252 93.5 234 c 128,-1,28
 111 216 111 216 134.5 205.5 c 128,-1,29
 158 195 158 195 185 195 c 256,30,31
 212 195 212 195 235.5 205.5 c 128,-1,32
 259 216 259 216 277 234 c 128,-1,33
 295 252 295 252 305 275.5 c 128,-1,34
 315 299 315 299 315 326 c 256,35,36
 315 353 315 353 305 377 c 128,-1,37
 295 401 295 401 277 419 c 128,-1,38
 259 437 259 437 235.5 448 c 128,-1,39
 212 459 212 459 185 459 c 0,20,21
126 410 m 1,40,-1
 211 410 l 2,41,42
 228 410 228 410 240.5 396.5 c 128,-1,43
 253 383 253 383 253 366 c 256,44,45
 253 349 253 349 240.5 337 c 128,-1,46
 228 325 228 325 211 325 c 2,47,-1
 207 325 l 1,48,49
 210 325 210 325 218 312 c 2,50,-1
 259 251 l 1,51,-1
 231 251 l 1,52,-1
 191 313 l 2,53,54
 188 317 188 317 183.5 320.5 c 128,-1,55
 179 324 179 324 172 324 c 2,56,-1
 152 324 l 1,57,-1
 152 251 l 1,58,-1
 126 251 l 1,59,-1
 126 410 l 1,40,-1
152 389 m 1,60,-1
 152 345 l 1,61,-1
 206 345 l 2,62,63
 214 345 214 345 220 351.5 c 128,-1,64
 226 358 226 358 226 366 c 256,65,66
 226 374 226 374 220 381.5 c 128,-1,67
 214 389 214 389 206 389 c 2,68,-1
 152 389 l 1,60,-1
EndSplineSet
EndChar
StartChar: macron
Encoding: 175 175 113
Width: 237
Flags: W
Fore
28 422 m 1,0,-1
 28 462 l 1,1,-1
 208 462 l 1,2,-1
 208 422 l 1,3,-1
 28 422 l 1,0,-1
EndSplineSet
EndChar
StartChar: degree
Encoding: 176 176 114
Width: 216
Flags: W
Fore
20 409 m 256,0,1
 20 446 20 446 45.5 471.5 c 128,-1,2
 71 497 71 497 108 497 c 256,3,4
 145 497 145 497 170.5 471.5 c 128,-1,5
 196 446 196 446 196 409 c 256,6,7
 196 372 196 372 170.5 346.5 c 128,-1,8
 145 321 145 321 108 321 c 256,9,10
 71 321 71 321 45.5 346.5 c 128,-1,11
 20 372 20 372 20 409 c 256,0,1
50 409 m 256,12,13
 50 385 50 385 67 368 c 128,-1,14
 84 351 84 351 108 351 c 256,15,16
 132 351 132 351 149 368 c 128,-1,17
 166 385 166 385 166 409 c 256,18,19
 166 433 166 433 149 450 c 128,-1,20
 132 467 132 467 108 467 c 256,21,22
 84 467 84 467 67 450 c 128,-1,23
 50 433 50 433 50 409 c 256,12,13
EndSplineSet
EndChar
StartChar: plusminus
Encoding: 177 177 115
Width: 429
Flags: W
Fore
235 223 m 1,0,-1
 235 90 l 1,1,-1
 193 90 l 1,2,-1
 193 223 l 1,3,-1
 60 223 l 1,4,-1
 60 265 l 1,5,-1
 193 265 l 1,6,-1
 193 398 l 1,7,-1
 235 398 l 1,8,-1
 235 265 l 1,9,-1
 368 265 l 1,10,-1
 368 223 l 1,11,-1
 235 223 l 1,0,-1
368 0 m 1,12,-1
 60 0 l 1,13,-1
 60 42 l 1,14,-1
 368 42 l 1,15,-1
 368 0 l 1,12,-1
EndSplineSet
EndChar
StartChar: twosuperior
Encoding: 178 178 116
Width: 259
Flags: W
Fore
137 488 m 2,0,1
 180 488 180 488 202.5 465.5 c 128,-1,2
 225 443 225 443 225 404 c 0,3,4
 225 383 225 383 218 368.5 c 128,-1,5
 211 354 211 354 188 337 c 2,6,-1
 88 263 l 2,7,8
 77 254 77 254 71.5 241.5 c 128,-1,9
 66 229 66 229 65 219 c 1,10,-1
 229 219 l 1,11,-1
 229 187 l 1,12,-1
 28 187 l 1,13,-1
 28 218 l 2,14,15
 28 240 28 240 37 257 c 128,-1,16
 46 274 46 274 62 285 c 0,17,18
 88 306 88 306 118.5 328.5 c 128,-1,19
 149 351 149 351 175 371 c 0,20,21
 181 375 181 375 185.5 385 c 128,-1,22
 190 395 190 395 190 404 c 0,23,24
 190 429 190 429 176.5 443 c 128,-1,25
 163 457 163 457 138 457 c 2,26,-1
 128 457 l 2,27,28
 108 457 108 457 91.5 446 c 128,-1,29
 75 435 75 435 62 420 c 1,30,-1
 34 441 l 1,31,32
 51 463 51 463 75.5 475.5 c 128,-1,33
 100 488 100 488 128 488 c 2,34,-1
 137 488 l 2,0,1
EndSplineSet
EndChar
StartChar: threesuperior
Encoding: 179 179 117
Width: 245
Flags: W
Fore
86 372 m 1,0,-1
 146 372 l 2,1,2
 160 373 160 373 169 381.5 c 128,-1,3
 178 390 178 390 178 404 c 0,4,5
 178 456 178 456 126 456 c 2,6,-1
 115 456 l 2,7,8
 96 456 96 456 78.5 445.5 c 128,-1,9
 61 435 61 435 49 420 c 1,10,-1
 22 440 l 1,11,12
 39 462 39 462 63 475 c 128,-1,13
 87 488 87 488 115 488 c 2,14,-1
 125 488 l 2,15,16
 168 488 168 488 191 465 c 128,-1,17
 214 442 214 442 214 404 c 0,18,19
 214 374 214 374 196 356 c 1,20,21
 212 345 212 345 219.5 327 c 128,-1,22
 227 309 227 309 227 289 c 0,23,24
 227 242 227 242 195.5 213.5 c 128,-1,25
 164 185 164 185 117 185 c 0,26,27
 82 185 82 185 58.5 198.5 c 128,-1,28
 35 212 35 212 14 238 c 1,29,-1
 40 261 l 1,30,31
 57 242 57 242 75.5 229.5 c 128,-1,32
 94 217 94 217 118 217 c 0,33,34
 148 217 148 217 170.5 238 c 128,-1,35
 193 259 193 259 193 289 c 0,36,37
 193 309 193 309 178.5 324.5 c 128,-1,38
 164 340 164 340 143 340 c 2,39,-1
 86 340 l 1,40,-1
 86 372 l 1,0,-1
EndSplineSet
EndChar
StartChar: acute
Encoding: 180 180 118
Width: 119
Flags: W
Fore
70 485 m 1,0,-1
 117 485 l 1,1,-1
 44 375 l 1,2,-1
 -3 375 l 1,3,-1
 70 485 l 1,0,-1
EndSplineSet
EndChar
StartChar: mu
Encoding: 181 181 119
Width: 361
Flags: W
Fore
36 -124 m 1,0,-1
 36 339 l 1,1,-1
 81 339 l 1,2,-1
 81 109 l 2,3,4
 81 82 81 82 99 58.5 c 128,-1,5
 117 35 117 35 144 35 c 2,6,-1
 184 35 l 2,7,8
 201 35 201 35 216.5 42 c 128,-1,9
 232 49 232 49 244.5 60.5 c 128,-1,10
 257 72 257 72 265 87 c 128,-1,11
 273 102 273 102 276 118 c 1,12,-1
 276 339 l 1,13,-1
 321 339 l 1,14,-1
 321 0 l 1,15,-1
 276 0 l 1,16,-1
 276 43 l 1,17,18
 262 23 262 23 236.5 9 c 128,-1,19
 211 -5 211 -5 184 -5 c 2,20,-1
 144 -5 l 2,21,22
 108 -5 108 -5 81 16 c 1,23,-1
 81 -124 l 1,24,-1
 36 -124 l 1,0,-1
EndSplineSet
EndChar
StartChar: paragraph
Encoding: 182 182 120
Width: 411
Flags: W
Fore
378 476 m 1,0,-1
 378 -39 l 1,1,-1
 333 -39 l 1,2,-1
 333 431 l 1,3,-1
 289 431 l 1,4,-1
 289 -39 l 1,5,-1
 244 -39 l 1,6,-1
 244 188 l 1,7,-1
 155 188 l 2,8,9
 129 188 129 188 106.5 200 c 128,-1,10
 84 212 84 212 67 231.5 c 128,-1,11
 50 251 50 251 40 276.5 c 128,-1,12
 30 302 30 302 30 330 c 256,13,14
 30 358 30 358 40 384 c 128,-1,15
 50 410 50 410 67 430 c 128,-1,16
 84 450 84 450 106.5 462.5 c 128,-1,17
 129 475 129 475 155 475 c 2,18,-1
 378 476 l 1,0,-1
EndSplineSet
EndChar
StartChar: periodcentered
Encoding: 183 183 121
Width: 230
Flags: W
Fore
65 230 m 256,0,1
 65 252 65 252 79 266 c 128,-1,2
 93 280 93 280 115 280 c 256,3,4
 137 280 137 280 151 266 c 128,-1,5
 165 252 165 252 165 230 c 256,6,7
 165 208 165 208 151 194 c 128,-1,8
 137 180 137 180 115 180 c 256,9,10
 93 180 93 180 79 194 c 128,-1,11
 65 208 65 208 65 230 c 256,0,1
EndSplineSet
EndChar
StartChar: cedilla
Encoding: 184 184 122
Width: 216
Flags: W
Fore
104 -93 m 2,0,1
 114 -93 114 -93 121 -91 c 128,-1,2
 128 -89 128 -89 128 -78 c 0,3,4
 128 -74 128 -74 123.5 -67.5 c 128,-1,5
 119 -61 119 -61 109 -56 c 0,6,7
 88 -42 88 -42 84.5 -30 c 128,-1,8
 81 -18 81 -18 81 -11 c 2,9,-1
 81 4 l 1,10,-1
 118 4 l 1,11,-1
 118 -11 l 1,12,13
 122 -23 122 -23 128 -28 c 128,-1,14
 134 -33 134 -33 142 -38 c 0,15,16
 152 -44 152 -44 159.5 -54 c 128,-1,17
 167 -64 167 -64 167 -79 c 0,18,19
 167 -108 167 -108 148.5 -118 c 128,-1,20
 130 -128 130 -128 104 -128 c 2,21,-1
 96 -128 l 2,22,23
 70 -126 70 -126 54.5 -112 c 128,-1,24
 39 -98 39 -98 39 -70 c 1,25,-1
 78 -70 l 1,26,27
 78 -80 78 -80 83 -86.5 c 128,-1,28
 88 -93 88 -93 96 -93 c 2,29,-1
 104 -93 l 2,0,1
EndSplineSet
EndChar
StartChar: onesuperior
Encoding: 185 185 123
Width: 216
Flags: W
Fore
111 187 m 1,0,-1
 111 399 l 1,1,2
 98 388 98 388 82.5 384 c 128,-1,3
 67 380 67 380 47 380 c 1,4,-1
 47 411 l 1,5,6
 73 411 73 411 91.5 430.5 c 128,-1,7
 110 450 110 450 111 475 c 1,8,-1
 146 475 l 1,9,-1
 146 187 l 1,10,-1
 111 187 l 1,0,-1
EndSplineSet
EndChar
StartChar: onequarter
Encoding: 188 188 126
Width: 547
Flags: W
Fore
462 0 m 1,0,-1
 462 58 l 1,1,-1
 497 58 l 1,2,-1
 497 90 l 1,3,-1
 462 90 l 1,4,-1
 462 288 l 1,5,-1
 428 288 l 1,6,-1
 291 88 l 1,7,8
 291 58 291 58 322 58 c 2,9,-1
 426 58 l 1,10,-1
 426 0 l 1,11,-1
 462 0 l 1,0,-1
426 90 m 1,12,-1
 335 90 l 1,13,-1
 426 225 l 1,14,-1
 426 90 l 1,12,-1
91 -17 m 1,15,-1
 348 490 l 1,16,-1
 392 490 l 1,17,-1
 137 -17 l 1,18,-1
 91 -17 l 1,15,-1
128 187 m 1,19,-1
 128 475 l 1,20,-1
 93 475 l 1,21,22
 92 450 92 450 73.5 430.5 c 128,-1,23
 55 411 55 411 29 411 c 1,24,-1
 29 380 l 1,25,26
 49 380 49 380 64 384 c 128,-1,27
 79 388 79 388 93 399 c 1,28,-1
 93 187 l 1,29,-1
 128 187 l 1,19,-1
EndSplineSet
Ligature: 0 0 'frac' one fraction four
Ligature: 0 0 'frac' one slash four
EndChar
StartChar: onehalf
Encoding: 189 189 127
Width: 547
Flags: W
Fore
421 288 m 2,0,1
 463 288 463 288 484.5 266.5 c 128,-1,2
 506 245 506 245 506 208 c 0,3,4
 506 188 506 188 498 173 c 128,-1,5
 490 158 490 158 470 144 c 2,6,-1
 374 73 l 2,7,8
 362 64 362 64 357.5 52 c 128,-1,9
 353 40 353 40 352 31 c 1,10,-1
 511 31 l 1,11,-1
 511 0 l 1,12,-1
 317 0 l 1,13,-1
 317 30 l 2,14,15
 317 50 317 50 326 66.5 c 128,-1,16
 335 83 335 83 349 94 c 2,17,-1
 458 176 l 2,18,19
 464 180 464 180 468 189.5 c 128,-1,20
 472 199 472 199 472 208 c 0,21,22
 472 231 472 231 459 244.5 c 128,-1,23
 446 258 446 258 422 258 c 2,24,-1
 412 258 l 2,25,26
 394 258 394 258 377 247.5 c 128,-1,27
 360 237 360 237 349 223 c 1,28,-1
 323 243 l 1,29,30
 340 264 340 264 363 276 c 128,-1,31
 386 288 386 288 412 288 c 2,32,-1
 421 288 l 2,0,1
91 -17 m 1,33,-1
 348 490 l 1,34,-1
 392 490 l 1,35,-1
 137 -17 l 1,36,-1
 91 -17 l 1,33,-1
128 187 m 1,37,-1
 128 475 l 1,38,-1
 93 475 l 1,39,40
 92 450 92 450 73.5 430.5 c 128,-1,41
 55 411 55 411 29 411 c 1,42,-1
 29 380 l 1,43,44
 49 380 49 380 64 384 c 128,-1,45
 79 388 79 388 93 399 c 1,46,-1
 93 187 l 1,47,-1
 128 187 l 1,37,-1
EndSplineSet
Ligature: 0 0 'frac' one fraction two
Ligature: 0 0 'frac' one slash two
EndChar
StartChar: threequarters
Encoding: 190 190 128
Width: 547
Flags: W
Fore
98 340 m 1,0,-1
 156 340 l 2,1,2
 177 340 177 340 191.5 324 c 128,-1,3
 206 308 206 308 206 288 c 0,4,5
 206 259 206 259 183.5 237.5 c 128,-1,6
 161 216 161 216 131 216 c 0,7,8
 106 216 106 216 88 228.5 c 128,-1,9
 70 241 70 241 53 260 c 1,10,-1
 27 237 l 1,11,12
 48 211 48 211 71.5 197.5 c 128,-1,13
 95 184 95 184 130 184 c 0,14,15
 177 184 177 184 208.5 212.5 c 128,-1,16
 240 241 240 241 240 288 c 0,17,18
 240 308 240 308 231.5 326.5 c 128,-1,19
 223 345 223 345 209 356 c 1,20,21
 226 375 226 375 226 404 c 0,22,23
 226 442 226 442 203.5 465 c 128,-1,24
 181 488 181 488 138 488 c 2,25,-1
 128 488 l 2,26,27
 100 488 100 488 75.5 475 c 128,-1,28
 51 462 51 462 34 440 c 1,29,-1
 62 420 l 1,30,31
 74 435 74 435 91 445.5 c 128,-1,32
 108 456 108 456 128 456 c 2,33,-1
 139 456 l 2,34,35
 191 456 191 456 191 404 c 0,36,37
 191 389 191 389 181.5 381 c 128,-1,38
 172 373 172 373 158 371 c 1,39,-1
 98 371 l 1,40,-1
 98 340 l 1,0,-1
462 0 m 1,41,-1
 462 58 l 1,42,-1
 497 58 l 1,43,-1
 497 90 l 1,44,-1
 462 90 l 1,45,-1
 462 288 l 1,46,-1
 428 288 l 1,47,-1
 291 88 l 1,48,49
 291 58 291 58 322 58 c 2,50,-1
 426 58 l 1,51,-1
 426 0 l 1,52,-1
 462 0 l 1,41,-1
426 90 m 1,53,-1
 335 90 l 1,54,-1
 426 225 l 1,55,-1
 426 90 l 1,53,-1
140 -17 m 1,56,-1
 397 490 l 1,57,-1
 441 490 l 1,58,-1
 186 -17 l 1,59,-1
 140 -17 l 1,56,-1
EndSplineSet
Ligature: 0 0 'frac' three fraction four
Ligature: 0 0 'frac' three slash four
EndChar
StartChar: Aring
Encoding: 197 197 134
Width: 530
Flags: W
Fore
230 464 m 1,0,1
 213 472 213 472 202 489 c 128,-1,2
 191 506 191 506 191 527 c 0,3,4
 191 556 191 556 211.5 577 c 128,-1,5
 232 598 232 598 262 598 c 0,6,7
 291 598 291 598 311.5 577 c 128,-1,8
 332 556 332 556 332 527 c 0,9,10
 332 504 332 504 318.5 486 c 128,-1,11
 305 468 305 468 285 461 c 1,12,13
 296 451 296 451 302 440 c 2,14,-1
 498 0 l 1,15,-1
 448 0 l 1,16,-1
 389 133 l 1,17,-1
 133 133 l 1,18,-1
 75 0 l 1,19,-1
 25 0 l 1,20,-1
 230 464 l 1,0,1
150 173 m 1,21,-1
 371 173 l 1,22,-1
 261 422 l 1,23,-1
 150 173 l 1,21,-1
225 527 m 256,24,25
 225 512 225 512 235.5 501.5 c 128,-1,26
 246 491 246 491 262 491 c 0,27,28
 276 491 276 491 287 501.5 c 128,-1,29
 298 512 298 512 298 527 c 256,30,31
 298 542 298 542 287 553 c 128,-1,32
 276 564 276 564 262 564 c 0,33,34
 246 564 246 564 235.5 553 c 128,-1,35
 225 542 225 542 225 527 c 256,24,25
EndSplineSet
EndChar
StartChar: AE
Encoding: 198 198 135
Width: 634
Flags: W
Fore
228 476 m 1,0,1
 234 476 234 476 239 475.5 c 128,-1,2
 244 475 244 475 248 475 c 2,3,-1
 523 475 l 1,4,-1
 523 435 l 1,5,-1
 284 435 l 1,6,-1
 322 268 l 1,7,-1
 565 268 l 1,8,-1
 565 228 l 1,9,-1
 331 228 l 1,10,-1
 373 40 l 1,11,-1
 614 40 l 1,12,-1
 614 0 l 1,13,-1
 337 0 l 1,14,-1
 307 133 l 1,15,-1
 125 133 l 1,16,-1
 67 0 l 1,17,-1
 17 0 l 1,18,-1
 228 476 l 1,0,1
142 173 m 1,19,-1
 298 173 l 1,20,-1
 242 420 l 1,21,-1
 142 173 l 1,19,-1
EndSplineSet
EndChar
StartChar: Ccedilla
Encoding: 199 199 136
Width: 461
Flags: W
Fore
387 333 m 1,0,1
 387 355 387 355 378.5 375.5 c 128,-1,2
 370 396 370 396 355 411.5 c 128,-1,3
 340 427 340 427 320 436 c 128,-1,4
 300 445 300 445 277 445 c 2,5,-1
 223 445 l 2,6,7
 193 445 193 445 167 431.5 c 128,-1,8
 141 418 141 418 121.5 396 c 128,-1,9
 102 374 102 374 90.5 345 c 128,-1,10
 79 316 79 316 79 286 c 2,11,-1
 79 155 l 2,12,13
 79 132 79 132 87.5 109.5 c 128,-1,14
 96 87 96 87 111 69.5 c 128,-1,15
 126 52 126 52 146 41 c 128,-1,16
 166 30 166 30 189 30 c 2,17,-1
 245 30 l 2,18,19
 274 30 274 30 300.5 40.5 c 128,-1,20
 327 51 327 51 346.5 70 c 128,-1,21
 366 89 366 89 377.5 114.5 c 128,-1,22
 389 140 389 140 389 169 c 1,23,-1
 434 169 l 1,24,25
 434 130 434 130 419.5 98 c 128,-1,26
 405 66 405 66 380.5 42.5 c 128,-1,27
 356 19 356 19 323 5 c 128,-1,28
 290 -9 290 -9 253 -10 c 1,29,-1
 253 -11 l 1,30,31
 257 -23 257 -23 263 -28 c 128,-1,32
 269 -33 269 -33 277 -38 c 0,33,34
 287 -44 287 -44 294.5 -54 c 128,-1,35
 302 -64 302 -64 302 -79 c 0,36,37
 302 -108 302 -108 283.5 -118 c 128,-1,38
 265 -128 265 -128 239 -128 c 2,39,-1
 231 -128 l 2,40,41
 205 -126 205 -126 189.5 -112 c 128,-1,42
 174 -98 174 -98 174 -70 c 1,43,-1
 213 -70 l 1,44,45
 213 -80 213 -80 218 -86.5 c 128,-1,46
 223 -93 223 -93 231 -93 c 2,47,-1
 239 -93 l 2,48,49
 249 -93 249 -93 256 -91 c 128,-1,50
 263 -89 263 -89 263 -78 c 0,51,52
 263 -74 263 -74 258.5 -67.5 c 128,-1,53
 254 -61 254 -61 244 -56 c 0,54,55
 223 -42 223 -42 219.5 -30 c 128,-1,56
 216 -18 216 -18 216 -11 c 2,57,-1
 216 -10 l 1,58,-1
 189 -10 l 2,59,60
 157 -10 157 -10 128.5 3.5 c 128,-1,61
 100 17 100 17 79 40 c 128,-1,62
 58 63 58 63 46 93 c 128,-1,63
 34 123 34 123 34 155 c 2,64,-1
 34 286 l 2,65,66
 34 326 34 326 49 362 c 128,-1,67
 64 398 64 398 89.5 425.5 c 128,-1,68
 115 453 115 453 149.5 469 c 128,-1,69
 184 485 184 485 223 485 c 2,70,-1
 277 485 l 2,71,72
 310 485 310 485 338 473.5 c 128,-1,73
 366 462 366 462 387 441.5 c 128,-1,74
 408 421 408 421 420 393.5 c 128,-1,75
 432 366 432 366 432 333 c 1,76,-1
 387 333 l 1,0,1
EndSplineSet
EndChar
StartChar: Eth
Encoding: 208 208 145
Width: 533
Flags: W
Fore
134 264 m 1,0,-1
 302 264 l 1,1,-1
 302 222 l 1,2,-1
 134 222 l 1,3,-1
 134 40 l 1,4,-1
 300 40 l 2,5,6
 329 40 329 40 355.5 52 c 128,-1,7
 382 64 382 64 401.5 84.5 c 128,-1,8
 421 105 421 105 432.5 132 c 128,-1,9
 444 159 444 159 444 190 c 2,10,-1
 444 319 l 2,11,12
 444 342 444 342 435.5 363 c 128,-1,13
 427 384 427 384 412 400 c 128,-1,14
 397 416 397 416 376.5 425.5 c 128,-1,15
 356 435 356 435 333 435 c 2,16,-1
 134 435 l 1,17,-1
 134 264 l 1,0,-1
89 222 m 1,18,-1
 44 222 l 1,19,-1
 44 264 l 1,20,-1
 89 264 l 1,21,-1
 89 475 l 1,22,-1
 333 475 l 2,23,24
 366 475 366 475 394.5 463 c 128,-1,25
 423 451 423 451 444 430 c 128,-1,26
 465 409 465 409 477 380.5 c 128,-1,27
 489 352 489 352 489 319 c 2,28,-1
 489 190 l 2,29,30
 489 150 489 150 474 115 c 128,-1,31
 459 80 459 80 433 54.5 c 128,-1,32
 407 29 407 29 373 14.5 c 128,-1,33
 339 0 339 0 300 0 c 2,34,-1
 131 0 l 2,35,36
 114 0 114 0 101.5 13.5 c 128,-1,37
 89 27 89 27 89 44 c 2,38,-1
 89 222 l 1,18,-1
EndSplineSet
EndChar
StartChar: multiply
Encoding: 215 215 152
Width: 429
Flags: W
Fore
245 221 m 1,0,1
 249 216 249 216 259 206.5 c 128,-1,2
 269 197 269 197 280.5 185 c 128,-1,3
 292 173 292 173 304.5 160 c 128,-1,4
 317 147 317 147 328 137 c 0,5,6
 333 132 333 132 339.5 125.5 c 128,-1,7
 346 119 346 119 351 114 c 1,8,-1
 322 85 l 1,9,-1
 215 192 l 1,10,-1
 109 85 l 1,11,-1
 85 108 l 1,12,-1
 80 114 l 1,13,-1
 186 221 l 1,14,15
 179 227 179 227 164 241.5 c 128,-1,16
 149 256 149 256 133 272.5 c 128,-1,17
 117 289 117 289 102 304 c 128,-1,18
 87 319 87 319 80 327 c 1,19,-1
 109 356 l 1,20,-1
 215 250 l 1,21,-1
 322 356 l 1,22,-1
 345 332 l 1,23,-1
 351 327 l 1,24,-1
 245 221 l 1,0,1
EndSplineSet
EndChar
StartChar: Oslash
Encoding: 216 216 153
Width: 476
Flags: W
Fore
40 -17 m 1,0,-1
 79 41 l 1,1,2
 58 64 58 64 46.5 94 c 128,-1,3
 35 124 35 124 35 156 c 2,4,-1
 35 285 l 2,5,6
 35 325 35 325 50 361.5 c 128,-1,7
 65 398 65 398 91 425.5 c 128,-1,8
 117 453 117 453 151.5 469 c 128,-1,9
 186 485 186 485 225 485 c 2,10,-1
 279 485 l 2,11,12
 325 485 325 485 364 457 c 1,13,-1
 386 490 l 1,14,-1
 430 490 l 1,15,-1
 391 433 l 1,16,17
 411 410 411 410 423 380.5 c 128,-1,18
 435 351 435 351 435 319 c 2,19,-1
 435 190 l 2,20,21
 435 150 435 150 420 113.5 c 128,-1,22
 405 77 405 77 379 49.5 c 128,-1,23
 353 22 353 22 319 6 c 128,-1,24
 285 -10 285 -10 246 -10 c 2,25,-1
 191 -10 l 2,26,27
 168 -10 168 -10 147 -3 c 128,-1,28
 126 4 126 4 108 16 c 1,29,-1
 85 -17 l 1,30,-1
 40 -17 l 1,0,-1
80 156 m 2,31,32
 80 113 80 113 105 79 c 1,33,-1
 340 422 l 1,34,35
 326 433 326 433 311 439 c 128,-1,36
 296 445 296 445 279 445 c 2,37,-1
 225 445 l 2,38,39
 195 445 195 445 169 431.5 c 128,-1,40
 143 418 143 418 123 395.5 c 128,-1,41
 103 373 103 373 91.5 344.5 c 128,-1,42
 80 316 80 316 80 285 c 2,43,-1
 80 156 l 2,31,32
390 319 m 2,44,45
 390 339 390 339 383.5 358.5 c 128,-1,46
 377 378 377 378 365 395 c 1,47,-1
 131 51 l 1,48,49
 158 30 158 30 191 30 c 2,50,-1
 246 30 l 2,51,52
 275 30 275 30 301.5 43.5 c 128,-1,53
 328 57 328 57 347.5 79.5 c 128,-1,54
 367 102 367 102 378.5 130.5 c 128,-1,55
 390 159 390 159 390 190 c 2,56,-1
 390 319 l 2,44,45
EndSplineSet
KernsSLIFO: 314 -60 0 0 59 -18 0 0 58 -20 0 0 57 -20 0 0 53 -20 0 0 15 -50 0 0 13 -50 0 0
EndChar
StartChar: Thorn
Encoding: 222 222 159
Width: 395
Flags: W
Fore
194 390 m 2,0,1
 227 390 227 390 256 381.5 c 128,-1,2
 285 373 285 373 307.5 356.5 c 128,-1,3
 330 340 330 340 343 315.5 c 128,-1,4
 356 291 356 291 356 258 c 0,5,6
 356 218 356 218 341 190 c 128,-1,7
 326 162 326 162 300.5 144.5 c 128,-1,8
 275 127 275 127 241 119 c 128,-1,9
 207 111 207 111 168 111 c 2,10,-1
 105 111 l 1,11,-1
 105 0 l 1,12,-1
 60 0 l 1,13,-1
 60 486 l 1,14,-1
 105 486 l 1,15,-1
 105 390 l 1,16,-1
 194 390 l 2,0,1
105 151 m 1,17,-1
 168 151 l 2,18,19
 197 151 197 151 223 156 c 128,-1,20
 249 161 249 161 268.5 173.5 c 128,-1,21
 288 186 288 186 299.5 206.5 c 128,-1,22
 311 227 311 227 311 258 c 0,23,24
 311 281 311 281 300.5 298.5 c 128,-1,25
 290 316 290 316 273 327.5 c 128,-1,26
 256 339 256 339 235.5 344.5 c 128,-1,27
 215 350 215 350 194 350 c 2,28,-1
 105 350 l 1,29,-1
 105 151 l 1,17,-1
EndSplineSet
EndChar
StartChar: uni00DF
Encoding: 223 223 160
Width: 402
Flags: W
Fore
44 -126 m 1,0,-1
 44 343 l 2,1,2
 44 371 44 371 54.5 396.5 c 128,-1,3
 65 422 65 422 83.5 441.5 c 128,-1,4
 102 461 102 461 126.5 472 c 128,-1,5
 151 483 151 483 179 483 c 2,6,-1
 219 483 l 2,7,8
 242 483 242 483 262.5 473.5 c 128,-1,9
 283 464 283 464 298 448 c 128,-1,10
 313 432 313 432 321.5 411 c 128,-1,11
 330 390 330 390 330 367 c 2,12,-1
 330 321 l 1,13,14
 317 316 317 316 303.5 310 c 128,-1,15
 290 304 290 304 279.5 296.5 c 128,-1,16
 269 289 269 289 262.5 280 c 128,-1,17
 256 271 256 271 256 261 c 0,18,19
 256 238 256 238 268.5 226 c 128,-1,20
 281 214 281 214 301 196 c 0,21,22
 313 184 313 184 324 175.5 c 128,-1,23
 335 167 335 167 344 158 c 128,-1,24
 353 149 353 149 358 136.5 c 128,-1,25
 363 124 363 124 363 104 c 0,26,27
 363 57 363 57 331.5 24 c 128,-1,28
 300 -9 300 -9 240 -9 c 0,29,30
 218 -9 218 -9 190.5 -1.5 c 128,-1,31
 163 6 163 6 144 17 c 1,32,-1
 164 58 l 1,33,34
 205 36 205 36 240 36 c 0,35,36
 277 36 277 36 297.5 57 c 128,-1,37
 318 78 318 78 318 101 c 0,38,39
 318 114 318 114 315 122 c 128,-1,40
 312 130 312 130 305.5 136.5 c 128,-1,41
 299 143 299 143 290 149 c 128,-1,42
 281 155 281 155 269 166 c 0,43,44
 239 192 239 192 225 213.5 c 128,-1,45
 211 235 211 235 211 261 c 0,46,47
 211 288 211 288 232 310 c 128,-1,48
 253 332 253 332 285 349 c 1,49,-1
 285 367 l 2,50,51
 285 380 285 380 279.5 394 c 128,-1,52
 274 408 274 408 265 418.5 c 128,-1,53
 256 429 256 429 244 436 c 128,-1,54
 232 443 232 443 219 443 c 2,55,-1
 179 443 l 2,56,57
 160 443 160 443 143.5 434.5 c 128,-1,58
 127 426 127 426 115 412 c 128,-1,59
 103 398 103 398 96 380 c 128,-1,60
 89 362 89 362 89 343 c 2,61,-1
 89 -126 l 1,62,-1
 44 -126 l 1,0,-1
EndSplineSet
EndChar
StartChar: ae
Encoding: 230 230 167
Width: 601
Flags: W
Fore
71 317 m 1,0,1
 107 345 107 345 151 345 c 2,2,-1
 212 345 l 2,3,4
 241 345 241 345 266 328.5 c 128,-1,5
 291 312 291 312 306 288 c 1,6,7
 325 313 325 313 352.5 328.5 c 128,-1,8
 380 344 380 344 413 344 c 2,9,-1
 453 344 l 2,10,11
 476 344 476 344 496.5 334.5 c 128,-1,12
 517 325 517 325 532 309 c 128,-1,13
 547 293 547 293 555.5 272 c 128,-1,14
 564 251 564 251 564 228 c 2,15,-1
 564 177 l 1,16,-1
 323 177 l 1,17,-1
 323 146 l 1,18,-1
 323 140 l 1,19,-1
 323 111 l 2,20,21
 323 98 323 98 328 84.5 c 128,-1,22
 333 71 333 71 342 60 c 128,-1,23
 351 49 351 49 363 42 c 128,-1,24
 375 35 375 35 389 35 c 2,25,-1
 429 35 l 2,26,27
 467 35 467 35 493 61 c 128,-1,28
 519 87 519 87 519 125 c 1,29,-1
 564 125 l 1,30,31
 564 97 564 97 553 73 c 128,-1,32
 542 49 542 49 523.5 32 c 128,-1,33
 505 15 505 15 480.5 5 c 128,-1,34
 456 -5 456 -5 429 -5 c 2,35,-1
 389 -5 l 2,36,37
 357 -5 357 -5 331 12.5 c 128,-1,38
 305 30 305 30 291 57 c 1,39,40
 271 30 271 30 241 13 c 128,-1,41
 211 -4 211 -4 178 -4 c 2,42,-1
 138 -4 l 2,43,44
 96 -4 96 -4 67 24 c 128,-1,45
 38 52 38 52 38 94 c 0,46,47
 38 120 38 120 50 142 c 128,-1,48
 62 164 62 164 81 179.5 c 128,-1,49
 100 195 100 195 124 203.5 c 128,-1,50
 148 212 148 212 172 212 c 2,51,-1
 278 212 l 1,52,-1
 278 234 l 2,53,54
 277 246 277 246 271.5 258.5 c 128,-1,55
 266 271 266 271 257 281.5 c 128,-1,56
 248 292 248 292 236.5 298.5 c 128,-1,57
 225 305 225 305 212 305 c 2,58,-1
 151 305 l 2,59,60
 135 305 135 305 121 299 c 128,-1,61
 107 293 107 293 96 282 c 1,62,-1
 71 317 l 1,0,1
172 177 m 2,63,64
 157 177 157 177 141 170 c 128,-1,65
 125 163 125 163 112.5 152 c 128,-1,66
 100 141 100 141 91.5 126.5 c 128,-1,67
 83 112 83 112 83 96 c 0,68,69
 83 73 83 73 98.5 54.5 c 128,-1,70
 114 36 114 36 138 36 c 2,71,-1
 178 36 l 2,72,73
 196 36 196 36 213.5 44 c 128,-1,74
 231 52 231 52 245 65.5 c 128,-1,75
 259 79 259 79 268 96.5 c 128,-1,76
 277 114 277 114 278 132 c 2,77,-1
 278 177 l 1,78,-1
 172 177 l 2,63,64
413 304 m 2,79,80
 375 304 375 304 349 277 c 128,-1,81
 323 250 323 250 323 212 c 1,82,-1
 519 212 l 1,83,-1
 519 228 l 2,84,85
 519 241 519 241 514 254.5 c 128,-1,86
 509 268 509 268 500 279 c 128,-1,87
 491 290 491 290 479 297 c 128,-1,88
 467 304 467 304 453 304 c 2,89,-1
 413 304 l 2,79,80
EndSplineSet
EndChar
StartChar: ccedilla
Encoding: 231 231 168
Width: 349
Flags: W
Fore
181 -93 m 2,0,1
 191 -93 191 -93 198 -91 c 128,-1,2
 205 -89 205 -89 205 -78 c 0,3,4
 205 -74 205 -74 200.5 -67.5 c 128,-1,5
 196 -61 196 -61 186 -56 c 0,6,7
 165 -42 165 -42 161.5 -30 c 128,-1,8
 158 -18 158 -18 158 -11 c 2,9,-1
 158 -5 l 1,10,-1
 143 -5 l 2,11,12
 120 -5 120 -5 99.5 4.5 c 128,-1,13
 79 14 79 14 64 30 c 128,-1,14
 49 46 49 46 40.5 67 c 128,-1,15
 32 88 32 88 32 111 c 2,16,-1
 32 204 l 2,17,18
 32 232 32 232 42.5 257.5 c 128,-1,19
 53 283 53 283 71.5 302.5 c 128,-1,20
 90 322 90 322 114.5 333 c 128,-1,21
 139 344 139 344 167 344 c 2,22,-1
 206 344 l 2,23,24
 253 344 253 344 285 314.5 c 128,-1,25
 317 285 317 285 317 238 c 1,26,-1
 272 238 l 1,27,28
 272 265 272 265 252.5 284.5 c 128,-1,29
 233 304 233 304 206 304 c 2,30,-1
 167 304 l 2,31,32
 148 304 148 304 131.5 295.5 c 128,-1,33
 115 287 115 287 103 273 c 128,-1,34
 91 259 91 259 84 241 c 128,-1,35
 77 223 77 223 77 204 c 2,36,-1
 77 111 l 2,37,38
 77 97 77 97 82 83.5 c 128,-1,39
 87 70 87 70 96 59.5 c 128,-1,40
 105 49 105 49 117 42 c 128,-1,41
 129 35 129 35 143 35 c 2,42,-1
 183 35 l 2,43,44
 221 35 221 35 247 59 c 128,-1,45
 273 83 273 83 273 121 c 1,46,-1
 318 121 l 1,47,48
 318 94 318 94 308.5 71.5 c 128,-1,49
 299 49 299 49 282 33 c 128,-1,50
 265 17 265 17 242.5 7 c 128,-1,51
 220 -3 220 -3 195 -4 c 1,52,-1
 195 -11 l 1,53,54
 199 -23 199 -23 205 -28 c 128,-1,55
 211 -33 211 -33 219 -38 c 0,56,57
 229 -44 229 -44 236.5 -54 c 128,-1,58
 244 -64 244 -64 244 -79 c 0,59,60
 244 -108 244 -108 225.5 -118 c 128,-1,61
 207 -128 207 -128 181 -128 c 2,62,-1
 173 -128 l 2,63,64
 147 -126 147 -126 131.5 -112 c 128,-1,65
 116 -98 116 -98 116 -70 c 1,66,-1
 155 -70 l 1,67,68
 155 -80 155 -80 160 -86.5 c 128,-1,69
 165 -93 165 -93 173 -93 c 2,70,-1
 181 -93 l 2,0,1
EndSplineSet
EndChar
StartChar: eth
Encoding: 240 240 177
Width: 416
Flags: W
Fore
382 183 m 0,0,1
 382 133 382 133 366 96.5 c 128,-1,2
 350 60 350 60 324.5 36.5 c 128,-1,3
 299 13 299 13 267 2 c 128,-1,4
 235 -9 235 -9 202 -9 c 0,5,6
 164 -9 164 -9 132 4.5 c 128,-1,7
 100 18 100 18 77.5 42 c 128,-1,8
 55 66 55 66 42.5 98.5 c 128,-1,9
 30 131 30 131 30 169 c 0,10,11
 30 212 30 212 45 246.5 c 128,-1,12
 60 281 60 281 85 305.5 c 128,-1,13
 110 330 110 330 141 343 c 128,-1,14
 172 356 172 356 205 356 c 0,15,16
 231 356 231 356 257 349 c 128,-1,17
 283 342 283 342 308 323 c 1,18,19
 290 352 290 352 265.5 377.5 c 128,-1,20
 241 403 241 403 211 426 c 1,21,22
 182 412 182 412 154 398.5 c 128,-1,23
 126 385 126 385 97 373 c 1,24,-1
 83 406 l 1,25,-1
 176 449 l 1,26,27
 159 460 159 460 137 470 c 128,-1,28
 115 480 115 480 93 488 c 1,29,-1
 111 525 l 1,30,31
 140 513 140 513 166 500 c 128,-1,32
 192 487 192 487 216 469 c 1,33,34
 239 480 239 480 263.5 491.5 c 128,-1,35
 288 503 288 503 311 515 c 1,36,-1
 327 480 l 1,37,-1
 249 445 l 1,38,39
 251 444 251 444 251.5 443 c 128,-1,40
 252 442 252 442 253 441 c 0,41,42
 313 391 313 391 347.5 328 c 128,-1,43
 382 265 382 265 382 183 c 0,0,1
338 178 m 0,44,45
 337 214 337 214 329 239 c 128,-1,46
 321 264 321 264 305 280.5 c 128,-1,47
 289 297 289 297 264.5 305.5 c 128,-1,48
 240 314 240 314 205 319 c 1,49,50
 170 319 170 319 144.5 305.5 c 128,-1,51
 119 292 119 292 102.5 270.5 c 128,-1,52
 86 249 86 249 78 222.5 c 128,-1,53
 70 196 70 196 70 170 c 0,54,55
 70 135 70 135 81.5 108.5 c 128,-1,56
 93 82 93 82 111.5 64 c 128,-1,57
 130 46 130 46 153.5 37 c 128,-1,58
 177 28 177 28 201 28 c 0,59,60
 230 28 230 28 255 37.5 c 128,-1,61
 280 47 280 47 298.5 66 c 128,-1,62
 317 85 317 85 327.5 113 c 128,-1,63
 338 141 338 141 338 178 c 0,44,45
EndSplineSet
EndChar
StartChar: divide
Encoding: 247 247 184
Width: 429
Flags: W
Fore
37 199 m 1,0,-1
 37 241 l 1,1,-1
 345 241 l 1,2,-1
 345 199 l 1,3,-1
 37 199 l 1,0,-1
161 317 m 256,4,5
 161 332 161 332 171 342 c 128,-1,6
 181 352 181 352 196 352 c 256,7,8
 211 352 211 352 221 342 c 128,-1,9
 231 332 231 332 231 317 c 256,10,11
 231 302 231 302 221 292 c 128,-1,12
 211 282 211 282 196 282 c 256,13,14
 181 282 181 282 171 292 c 128,-1,15
 161 302 161 302 161 317 c 256,4,5
161 117 m 256,16,17
 161 132 161 132 171 142 c 128,-1,18
 181 152 181 152 196 152 c 256,19,20
 211 152 211 152 221 142 c 128,-1,21
 231 132 231 132 231 117 c 256,22,23
 231 102 231 102 221 92 c 128,-1,24
 211 82 211 82 196 82 c 256,25,26
 181 82 181 82 171 92 c 128,-1,27
 161 102 161 102 161 117 c 256,16,17
EndSplineSet
EndChar
StartChar: oslash
Encoding: 248 248 185
Width: 359
Flags: W
Fore
26 -17 m 1,0,-1
 63 36 l 1,1,2
 36 68 36 68 36 111 c 2,3,-1
 36 204 l 2,4,5
 36 232 36 232 46.5 257.5 c 128,-1,6
 57 283 57 283 75.5 302.5 c 128,-1,7
 94 322 94 322 118.5 333 c 128,-1,8
 143 344 143 344 171 344 c 2,9,-1
 211 344 l 2,10,11
 240 344 240 344 266 328 c 1,12,-1
 286 356 l 1,13,-1
 331 356 l 1,14,-1
 294 303 l 1,15,16
 307 288 307 288 314.5 268.5 c 128,-1,17
 322 249 322 249 322 228 c 2,18,-1
 322 135 l 2,19,20
 322 106 322 106 311.5 81 c 128,-1,21
 301 56 301 56 282.5 36.5 c 128,-1,22
 264 17 264 17 239.5 6 c 128,-1,23
 215 -5 215 -5 187 -5 c 2,24,-1
 147 -5 l 2,25,26
 116 -5 116 -5 92 10 c 1,27,-1
 73 -17 l 1,28,-1
 26 -17 l 1,0,-1
277 228 m 2,29,30
 277 246 277 246 267 264 c 1,31,-1
 116 45 l 1,32,33
 129 35 129 35 147 35 c 2,34,-1
 187 35 l 2,35,36
 206 35 206 35 222.5 43.5 c 128,-1,37
 239 52 239 52 251 66 c 128,-1,38
 263 80 263 80 270 98 c 128,-1,39
 277 116 277 116 277 135 c 2,40,-1
 277 228 l 2,29,30
81 111 m 2,41,42
 81 91 81 91 90 75 c 1,43,-1
 242 293 l 1,44,45
 228 304 228 304 211 304 c 2,46,-1
 171 304 l 2,47,48
 152 304 152 304 135.5 295.5 c 128,-1,49
 119 287 119 287 107 273 c 128,-1,50
 95 259 95 259 88 241 c 128,-1,51
 81 223 81 223 81 204 c 2,52,-1
 81 111 l 2,41,42
EndSplineSet
KernsSLIFO: 314 -40 0 0 90 -12 0 0 89 -18 0 0 87 -12 0 0 15 -18 0 0 13 -29 0 0
EndChar
StartChar: thorn
Encoding: 254 254 191
Width: 441
Flags: W
Fore
371 135 m 2,0,1
 371 106 371 106 360.5 81 c 128,-1,2
 350 56 350 56 331.5 36.5 c 128,-1,3
 313 17 313 17 288.5 6 c 128,-1,4
 264 -5 264 -5 236 -5 c 2,5,-1
 196 -5 l 2,6,7
 158 -5 158 -5 130 18 c 1,8,-1
 130 -151 l 1,9,-1
 85 -151 l 1,10,-1
 85 475 l 1,11,-1
 130 475 l 1,12,-1
 130 308 l 1,13,14
 148 325 148 325 171 334.5 c 128,-1,15
 194 344 194 344 220 344 c 2,16,-1
 260 344 l 2,17,18
 283 344 283 344 303.5 334.5 c 128,-1,19
 324 325 324 325 339 309 c 128,-1,20
 354 293 354 293 362.5 272 c 128,-1,21
 371 251 371 251 371 228 c 2,22,-1
 371 135 l 2,0,1
326 228 m 2,23,24
 326 241 326 241 320.5 255 c 128,-1,25
 315 269 315 269 306 279.5 c 128,-1,26
 297 290 297 290 285 297 c 128,-1,27
 273 304 273 304 260 304 c 2,28,-1
 220 304 l 2,29,30
 202 304 202 304 185.5 296 c 128,-1,31
 169 288 169 288 156.5 274.5 c 128,-1,32
 144 261 144 261 137 243.5 c 128,-1,33
 130 226 130 226 130 208 c 2,34,-1
 130 111 l 2,35,36
 130 97 130 97 135 83.5 c 128,-1,37
 140 70 140 70 149 59.5 c 128,-1,38
 158 49 158 49 170 42 c 128,-1,39
 182 35 182 35 196 35 c 2,40,-1
 236 35 l 2,41,42
 255 35 255 35 271.5 43.5 c 128,-1,43
 288 52 288 52 300 66 c 128,-1,44
 312 80 312 80 319 98 c 128,-1,45
 326 116 326 116 326 135 c 2,46,-1
 326 228 l 2,23,24
EndSplineSet
EndChar
StartChar: Lslash
Encoding: 321 321 193
Width: 439
Flags: W
Fore
10 199 m 1,0,-1
 65 239 l 1,1,-1
 65 475 l 1,2,-1
 110 475 l 1,3,-1
 110 273 l 1,4,-1
 183 327 l 1,5,-1
 183 274 l 1,6,-1
 110 220 l 1,7,-1
 110 40 l 1,8,-1
 405 40 l 1,9,-1
 405 0 l 1,10,-1
 65 0 l 1,11,-1
 65 186 l 1,12,-1
 10 146 l 1,13,-1
 10 199 l 1,0,-1
EndSplineSet
EndChar
StartChar: lslash
Encoding: 322 322 194
Width: 193
Flags: W
Fore
22 201 m 1,0,-1
 75 246 l 1,1,-1
 75 475 l 1,2,-1
 120 475 l 1,3,-1
 120 284 l 1,4,-1
 170 326 l 1,5,-1
 170 271 l 1,6,-1
 120 228 l 1,7,-1
 120 0 l 1,8,-1
 75 0 l 1,9,-1
 75 189 l 1,10,-1
 24 146 l 1,11,-1
 22 201 l 1,0,-1
EndSplineSet
EndChar
StartChar: OE
Encoding: 338 338 195
Width: 751
Flags: W
Fore
192 0 m 2,0,1
 159 0 159 0 130.5 12 c 128,-1,2
 102 24 102 24 81 45 c 128,-1,3
 60 66 60 66 48 94.5 c 128,-1,4
 36 123 36 123 36 156 c 2,5,-1
 36 285 l 2,6,7
 36 325 36 325 51 360 c 128,-1,8
 66 395 66 395 92 420.5 c 128,-1,9
 118 446 118 446 152.5 460.5 c 128,-1,10
 187 475 187 475 226 475 c 2,11,-1
 710 475 l 1,12,-1
 710 430 l 1,13,-1
 392 430 l 1,14,-1
 392 270 l 1,15,-1
 661 270 l 1,16,-1
 661 225 l 1,17,-1
 392 225 l 1,18,-1
 392 45 l 1,19,-1
 710 45 l 1,20,-1
 710 0 l 1,21,-1
 192 0 l 2,0,1
247 45 m 2,22,23
 276 45 276 45 301.5 55.5 c 128,-1,24
 327 66 327 66 347 85 c 1,25,-1
 347 408 l 1,26,27
 317 430 317 430 280 430 c 2,28,-1
 226 430 l 2,29,30
 196 430 196 430 170 419 c 128,-1,31
 144 408 144 408 124 388.5 c 128,-1,32
 104 369 104 369 92.5 342.5 c 128,-1,33
 81 316 81 316 81 285 c 2,34,-1
 81 156 l 2,35,36
 81 133 81 133 89.5 112.5 c 128,-1,37
 98 92 98 92 113 77 c 128,-1,38
 128 62 128 62 148.5 53.5 c 128,-1,39
 169 45 169 45 192 45 c 2,40,-1
 247 45 l 2,22,23
EndSplineSet
EndChar
StartChar: oe
Encoding: 339 339 196
Width: 610
Flags: W
Fore
321 111 m 2,0,1
 321 97 321 97 326 83.5 c 128,-1,2
 331 70 331 70 340 59.5 c 128,-1,3
 349 49 349 49 361 42 c 128,-1,4
 373 35 373 35 387 35 c 2,5,-1
 427 35 l 2,6,7
 446 35 446 35 462.5 42 c 128,-1,8
 479 49 479 49 491 61 c 128,-1,9
 503 73 503 73 510 89.5 c 128,-1,10
 517 106 517 106 517 125 c 1,11,-1
 562 125 l 1,12,13
 562 96 562 96 551.5 72.5 c 128,-1,14
 541 49 541 49 522.5 31.5 c 128,-1,15
 504 14 504 14 479.5 4.5 c 128,-1,16
 455 -5 455 -5 427 -5 c 2,17,-1
 387 -5 l 2,18,19
 357 -5 357 -5 332 10.5 c 128,-1,20
 307 26 307 26 293 50 c 1,21,22
 274 25 274 25 246 10 c 128,-1,23
 218 -5 218 -5 186 -5 c 2,24,-1
 146 -5 l 2,25,26
 123 -5 123 -5 102.5 4.5 c 128,-1,27
 82 14 82 14 67 30 c 128,-1,28
 52 46 52 46 43.5 67 c 128,-1,29
 35 88 35 88 35 111 c 2,30,-1
 35 204 l 2,31,32
 35 232 35 232 45.5 257.5 c 128,-1,33
 56 283 56 283 74.5 302.5 c 128,-1,34
 93 322 93 322 117.5 333 c 128,-1,35
 142 344 142 344 170 344 c 2,36,-1
 210 344 l 2,37,38
 240 344 240 344 264.5 328.5 c 128,-1,39
 289 313 289 313 304 288 c 1,40,41
 323 314 323 314 350.5 329 c 128,-1,42
 378 344 378 344 411 344 c 2,43,-1
 451 344 l 2,44,45
 474 344 474 344 494.5 334.5 c 128,-1,46
 515 325 515 325 530 309 c 128,-1,47
 545 293 545 293 553.5 272 c 128,-1,48
 562 251 562 251 562 228 c 2,49,-1
 562 177 l 1,50,-1
 321 177 l 1,51,-1
 321 111 l 2,0,1
276 228 m 2,52,53
 276 241 276 241 270.5 255 c 128,-1,54
 265 269 265 269 256 279.5 c 128,-1,55
 247 290 247 290 235 297 c 128,-1,56
 223 304 223 304 210 304 c 2,57,-1
 170 304 l 2,58,59
 151 304 151 304 134.5 295.5 c 128,-1,60
 118 287 118 287 106 273 c 128,-1,61
 94 259 94 259 87 241 c 128,-1,62
 80 223 80 223 80 204 c 2,63,-1
 80 111 l 2,64,65
 80 97 80 97 85 83.5 c 128,-1,66
 90 70 90 70 99 59.5 c 128,-1,67
 108 49 108 49 120 42 c 128,-1,68
 132 35 132 35 146 35 c 2,69,-1
 186 35 l 2,70,71
 205 35 205 35 221.5 43.5 c 128,-1,72
 238 52 238 52 250 66 c 128,-1,73
 262 80 262 80 269 98 c 128,-1,74
 276 116 276 116 276 135 c 2,75,-1
 276 228 l 2,52,53
411 304 m 2,76,77
 392 304 392 304 375.5 297 c 128,-1,78
 359 290 359 290 347 277.5 c 128,-1,79
 335 265 335 265 328 248 c 128,-1,80
 321 231 321 231 321 212 c 1,81,-1
 517 212 l 1,82,-1
 517 228 l 2,83,84
 517 241 517 241 511.5 255 c 128,-1,85
 506 269 506 269 497 279.5 c 128,-1,86
 488 290 488 290 476 297 c 128,-1,87
 464 304 464 304 451 304 c 2,88,-1
 411 304 l 2,76,77
EndSplineSet
EndChar
StartChar: florin
Encoding: 402 402 202
Width: 486
Flags: W
Fore
251 43 m 1,0,1
 246 -3 246 -3 226.5 -38.5 c 128,-1,2
 207 -74 207 -74 176.5 -98.5 c 128,-1,3
 146 -123 146 -123 108 -135.5 c 128,-1,4
 70 -148 70 -148 29 -148 c 1,5,-1
 33 -103 l 1,6,7
 67 -103 67 -103 97 -93.5 c 128,-1,8
 127 -84 127 -84 150.5 -65 c 128,-1,9
 174 -46 174 -46 188.5 -19 c 128,-1,10
 203 8 203 8 206 43 c 2,11,-1
 229 309 l 1,12,-1
 154 309 l 1,13,-1
 156 339 l 1,14,-1
 231 339 l 1,15,16
 235 385 235 385 255 420.5 c 128,-1,17
 275 456 275 456 305.5 480.5 c 128,-1,18
 336 505 336 505 374 517.5 c 128,-1,19
 412 530 412 530 453 530 c 1,20,-1
 449 485 l 1,21,22
 380 485 380 485 332 447 c 128,-1,23
 284 409 284 409 276 339 c 1,24,-1
 348 339 l 1,25,-1
 346 309 l 1,26,-1
 274 309 l 1,27,-1
 251 43 l 1,28,-1
 251 43 l 1,0,1
EndSplineSet
EndChar
StartChar: circumflex
Encoding: 710 710 203
Width: 321
Flags: W
Fore
147 611 m 1,0,-1
 186 611 l 1,1,-1
 268 494 l 1,2,-1
 225 494 l 1,3,-1
 166 581 l 1,4,-1
 108 494 l 1,5,-1
 65 494 l 1,6,-1
 147 611 l 1,0,-1
EndSplineSet
EndChar
StartChar: caron
Encoding: 711 711 204
Width: 321
Flags: W
Fore
65 611 m 1,0,-1
 108 611 l 1,1,-1
 166 524 l 1,2,-1
 225 611 l 1,3,-1
 268 611 l 1,4,-1
 186 494 l 1,5,-1
 147 494 l 1,6,-1
 65 611 l 1,0,-1
EndSplineSet
EndChar
StartChar: breve
Encoding: 728 728 205
Width: 300
Flags: W
Fore
257 528 m 1,0,1
 257 506 257 506 248.5 486.5 c 128,-1,2
 240 467 240 467 225.5 452 c 128,-1,3
 211 437 211 437 191.5 428.5 c 128,-1,4
 172 420 172 420 150 420 c 256,5,6
 128 420 128 420 108.5 428.5 c 128,-1,7
 89 437 89 437 74.5 452 c 128,-1,8
 60 467 60 467 51.5 486.5 c 128,-1,9
 43 506 43 506 43 528 c 1,10,-1
 78 528 l 1,11,12
 78 497 78 497 98 474.5 c 128,-1,13
 118 452 118 452 150 452 c 256,14,15
 182 452 182 452 202 474.5 c 128,-1,16
 222 497 222 497 222 528 c 1,17,-1
 257 528 l 1,0,1
EndSplineSet
EndChar
StartChar: dotaccent
Encoding: 729 729 206
Width: 158
Flags: W
Fore
43 466 m 256,0,1
 43 483 43 483 54 494 c 128,-1,2
 65 505 65 505 82 505 c 256,3,4
 99 505 99 505 110 494 c 128,-1,5
 121 483 121 483 121 466 c 256,6,7
 121 449 121 449 110 438 c 128,-1,8
 99 427 99 427 82 427 c 256,9,10
 65 427 65 427 54 438 c 128,-1,11
 43 449 43 449 43 466 c 256,0,1
EndSplineSet
EndChar
StartChar: ring
Encoding: 730 730 207
Width: 278
Flags: W
Fore
65 469 m 0,0,1
 65 501 65 501 86 522 c 128,-1,2
 107 543 107 543 139 543 c 0,3,4
 170 543 170 543 190.5 522 c 128,-1,5
 211 501 211 501 211 469 c 0,6,7
 211 438 211 438 190.5 417.5 c 128,-1,8
 170 397 170 397 139 397 c 0,9,10
 107 397 107 397 86 417.5 c 128,-1,11
 65 438 65 438 65 469 c 0,0,1
97 469 m 0,12,13
 97 453 97 453 109.5 441 c 128,-1,14
 122 429 122 429 139 429 c 0,15,16
 155 429 155 429 167 441 c 128,-1,17
 179 453 179 453 179 469 c 0,18,19
 179 486 179 486 167 498.5 c 128,-1,20
 155 511 155 511 139 511 c 0,21,22
 122 511 122 511 109.5 498.5 c 128,-1,23
 97 486 97 486 97 469 c 0,12,13
EndSplineSet
EndChar
StartChar: ogonek
Encoding: 731 731 208
Width: 194
Flags: W
Fore
100 -93 m 2,0,1
 108 -93 108 -93 113 -86.5 c 128,-1,2
 118 -80 118 -80 118 -70 c 1,3,-1
 157 -70 l 1,4,5
 157 -98 157 -98 141.5 -112 c 128,-1,6
 126 -126 126 -126 100 -128 c 2,7,-1
 92 -128 l 2,8,9
 66 -128 66 -128 47.5 -118 c 128,-1,10
 29 -108 29 -108 29 -79 c 0,11,12
 29 -64 29 -64 36.5 -54 c 128,-1,13
 44 -44 44 -44 54 -38 c 0,14,15
 62 -33 62 -33 68 -28 c 128,-1,16
 74 -23 74 -23 78 -11 c 1,17,-1
 78 4 l 1,18,-1
 115 4 l 1,19,-1
 115 -11 l 2,20,21
 115 -18 115 -18 111.5 -30 c 128,-1,22
 108 -42 108 -42 87 -56 c 0,23,24
 77 -61 77 -61 72.5 -67.5 c 128,-1,25
 68 -74 68 -74 68 -78 c 0,26,27
 68 -89 68 -89 75 -91 c 128,-1,28
 82 -93 82 -93 92 -93 c 2,29,-1
 100 -93 l 2,0,1
EndSplineSet
EndChar
StartChar: tilde
Encoding: 732 732 209
Width: 216
Flags: W
Fore
147 398 m 0,0,1
 133 398 133 398 123 406 c 128,-1,2
 113 414 113 414 104 423.5 c 128,-1,3
 95 433 95 433 86 441 c 128,-1,4
 77 449 77 449 66 449 c 0,5,6
 56 449 56 449 48 439.5 c 128,-1,7
 40 430 40 430 40 414 c 1,8,-1
 6 414 l 1,9,10
 7 434 7 434 13 447 c 128,-1,11
 19 460 19 460 28 467.5 c 128,-1,12
 37 475 37 475 48 477.5 c 128,-1,13
 59 480 59 480 70 480 c 0,14,15
 87 480 87 480 99 472 c 128,-1,16
 111 464 111 464 120 454.5 c 128,-1,17
 129 445 129 445 136.5 437 c 128,-1,18
 144 429 144 429 153 429 c 0,19,20
 163 429 163 429 171 438.5 c 128,-1,21
 179 448 179 448 179 464 c 1,22,-1
 213 464 l 1,23,24
 212 444 212 444 206 431 c 128,-1,25
 200 418 200 418 191 410.5 c 128,-1,26
 182 403 182 403 170.5 400.5 c 128,-1,27
 159 398 159 398 147 398 c 0,0,1
EndSplineSet
EndChar
StartChar: uni0E01
Encoding: 3585 3585 212
Width: 394
Flags: W
Fore
294 296 m 1,0,1
 293 319 293 319 276.5 337.5 c 128,-1,2
 260 356 260 356 238 356 c 2,3,-1
 175 356 l 2,4,5
 160 356 160 356 145 349.5 c 128,-1,6
 130 343 130 343 117.5 332 c 128,-1,7
 105 321 105 321 95 307.5 c 128,-1,8
 85 294 85 294 80 280 c 1,9,10
 100 264 100 264 107.5 245 c 128,-1,11
 115 226 115 226 115 207 c 2,12,-1
 115 0 l 1,13,-1
 70 0 l 1,14,-1
 70 207 l 2,15,16
 70 225 70 225 57 241.5 c 128,-1,17
 44 258 44 258 26 260 c 1,18,19
 29 288 29 288 42.5 313 c 128,-1,20
 56 338 56 338 76.5 356.5 c 128,-1,21
 97 375 97 375 123 385.5 c 128,-1,22
 149 396 149 396 177 396 c 2,23,-1
 238 396 l 2,24,25
 257 396 257 396 275 387.5 c 128,-1,26
 293 379 293 379 307.5 365.5 c 128,-1,27
 322 352 322 352 330.5 333.5 c 128,-1,28
 339 315 339 315 339 296 c 2,29,-1
 339 0 l 1,30,-1
 294 0 l 1,31,-1
 294 296 l 1,32,-1
 294 296 l 1,0,1
EndSplineSet
EndChar
StartChar: uni0E02
Encoding: 3586 3586 213
Width: 371
Flags: W
Fore
212 40 m 1,0,-1
 227 40 l 2,1,2
 246 42 246 42 261.5 57 c 128,-1,3
 277 72 277 72 277 94 c 2,4,-1
 277 396 l 1,5,-1
 322 396 l 1,6,-1
 322 101 l 2,7,8
 322 82 322 82 314 64 c 128,-1,9
 306 46 306 46 293 32 c 128,-1,10
 280 18 280 18 263 9.5 c 128,-1,11
 246 1 246 1 227 1 c 2,12,-1
 210 1 l 2,13,14
 193 1 193 1 180 14.5 c 128,-1,15
 167 28 167 28 167 46 c 2,16,-1
 167 204 l 2,17,18
 167 214 167 214 169 222.5 c 128,-1,19
 171 231 171 231 173 240 c 128,-1,20
 175 249 175 249 177 259.5 c 128,-1,21
 179 270 179 270 179 284 c 0,22,23
 177 316 177 316 158 340.5 c 128,-1,24
 139 365 139 365 109 365 c 0,25,26
 97 365 97 365 85.5 359 c 128,-1,27
 74 353 74 353 66 341 c 1,28,29
 71 342 71 342 76 342.5 c 128,-1,30
 81 343 81 343 86 343 c 0,31,32
 111 343 111 343 130 324.5 c 128,-1,33
 149 306 149 306 149 280 c 0,34,35
 149 255 149 255 130 236 c 128,-1,36
 111 217 111 217 86 217 c 0,37,38
 70 217 70 217 57.5 223.5 c 128,-1,39
 45 230 45 230 36 241 c 128,-1,40
 27 252 27 252 22.5 266 c 128,-1,41
 18 280 18 280 18 294 c 0,42,43
 18 322 18 322 29 344 c 0,44,45
 43 368 43 368 64.5 382 c 128,-1,46
 86 396 86 396 114 396 c 0,47,48
 161 395 161 395 186.5 363.5 c 128,-1,49
 212 332 212 332 212 285 c 2,50,-1
 212 40 l 1,0,-1
51 280 m 256,51,52
 51 266 51 266 61.5 255.5 c 128,-1,53
 72 245 72 245 86 245 c 0,54,55
 99 245 99 245 109.5 255.5 c 128,-1,56
 120 266 120 266 120 280 c 256,57,58
 120 294 120 294 110 304.5 c 128,-1,59
 100 315 100 315 86 315 c 256,60,61
 72 315 72 315 61.5 304.5 c 128,-1,62
 51 294 51 294 51 280 c 256,51,52
EndSplineSet
EndChar
StartChar: uni0E03
Encoding: 3587 3587 214
Width: 382
Flags: W
Fore
329 101 m 2,0,1
 329 82 329 82 321 64 c 128,-1,2
 313 46 313 46 300 31.5 c 128,-1,3
 287 17 287 17 270 8.5 c 128,-1,4
 253 0 253 0 234 0 c 2,5,-1
 217 0 l 2,6,7
 200 0 200 0 187 13.5 c 128,-1,8
 174 27 174 27 174 45 c 2,9,-1
 174 230 l 2,10,11
 174 241 174 241 181 250.5 c 128,-1,12
 188 260 188 260 197 271 c 0,13,14
 205 281 205 281 211.5 294.5 c 128,-1,15
 218 308 218 308 218 323 c 0,16,17
 218 343 218 343 202 359 c 1,18,-1
 155 288 l 1,19,-1
 104 361 l 1,20,21
 85 360 85 360 67 347.5 c 128,-1,22
 49 335 49 335 45 315 c 1,23,24
 59 325 59 325 75 325 c 0,25,26
 98 325 98 325 116 307.5 c 128,-1,27
 134 290 134 290 134 264 c 0,28,29
 134 241 134 241 115.5 224 c 128,-1,30
 97 207 97 207 74 207 c 0,31,32
 42 207 42 207 25.5 233 c 128,-1,33
 9 259 9 259 9 289 c 0,34,35
 9 311 9 311 18 331 c 128,-1,36
 27 351 27 351 42 365 c 128,-1,37
 57 379 57 379 77 387.5 c 128,-1,38
 97 396 97 396 119 396 c 1,39,-1
 155 341 l 1,40,-1
 193 396 l 1,41,42
 222 389 222 389 236.5 366.5 c 128,-1,43
 251 344 251 344 251 317 c 0,44,45
 251 282 251 282 230 253 c 0,46,47
 225 247 225 247 222 240.5 c 128,-1,48
 219 234 219 234 219 221 c 2,49,-1
 219 40 l 1,50,-1
 234 40 l 2,51,52
 253 42 253 42 268.5 57 c 128,-1,53
 284 72 284 72 284 94 c 2,54,-1
 284 396 l 1,55,-1
 329 396 l 1,56,-1
 329 101 l 2,0,1
75 300 m 0,57,58
 64 300 64 300 53 290.5 c 128,-1,59
 42 281 42 281 42 267 c 0,60,61
 42 254 42 254 51.5 244 c 128,-1,62
 61 234 61 234 75 234 c 0,63,64
 88 234 88 234 98 244.5 c 128,-1,65
 108 255 108 255 108 267 c 0,66,67
 108 281 108 281 98 290.5 c 128,-1,68
 88 300 88 300 75 300 c 0,57,58
EndSplineSet
EndChar
StartChar: uni0E04
Encoding: 3588 3588 215
Width: 421
Flags: W
Fore
269 396 m 2,0,1
 312 396 312 396 341 368 c 128,-1,2
 370 340 370 340 370 296 c 2,3,-1
 370 0 l 1,4,-1
 325 0 l 1,5,-1
 325 296 l 2,6,7
 325 318 325 318 308.5 337 c 128,-1,8
 292 356 292 356 269 356 c 2,9,-1
 200 356 l 2,10,11
 181 356 181 356 163 346.5 c 128,-1,12
 145 337 145 337 130.5 321.5 c 128,-1,13
 116 306 116 306 107.5 287 c 128,-1,14
 99 268 99 268 99 249 c 2,15,-1
 99 74 l 1,16,-1
 150 217 l 2,17,18
 157 237 157 237 173.5 249.5 c 128,-1,19
 190 262 190 262 211 262 c 0,20,21
 239 262 239 262 257 242.5 c 128,-1,22
 275 223 275 223 275 198 c 0,23,24
 275 172 275 172 255.5 153.5 c 128,-1,25
 236 135 236 135 211 135 c 256,26,27
 186 135 186 135 166 152 c 1,28,-1
 112 0 l 1,29,-1
 54 0 l 1,30,-1
 54 249 l 2,31,32
 54 276 54 276 66 302.5 c 128,-1,33
 78 329 78 329 98 349.5 c 128,-1,34
 118 370 118 370 144 383 c 128,-1,35
 170 396 170 396 197 396 c 2,36,-1
 269 396 l 2,0,1
176 198 m 0,37,38
 176 183 176 183 186.5 173.5 c 128,-1,39
 197 164 197 164 211 164 c 0,40,41
 224 164 224 164 235 174 c 128,-1,42
 246 184 246 184 246 198 c 256,43,44
 246 212 246 212 235.5 222.5 c 128,-1,45
 225 233 225 233 211 233 c 256,46,47
 197 233 197 233 186.5 222.5 c 128,-1,48
 176 212 176 212 176 198 c 0,37,38
EndSplineSet
EndChar
StartChar: uni0E05
Encoding: 3589 3589 216
Width: 424
Flags: W
Fore
370 0 m 1,0,-1
 325 0 l 1,1,-1
 325 297 l 2,2,3
 325 316 325 316 313 331 c 128,-1,4
 301 346 301 346 283 351 c 1,5,-1
 237 292 l 1,6,-1
 182 349 l 1,7,8
 166 345 166 345 151 335.5 c 128,-1,9
 136 326 136 326 124.5 312.5 c 128,-1,10
 113 299 113 299 106 283 c 128,-1,11
 99 267 99 267 99 250 c 2,12,-1
 99 74 l 1,13,-1
 151 218 l 2,14,15
 158 237 158 237 174.5 250 c 128,-1,16
 191 263 191 263 212 263 c 0,17,18
 237 263 237 263 256.5 244 c 128,-1,19
 276 225 276 225 276 199 c 256,20,21
 276 173 276 173 256.5 154 c 128,-1,22
 237 135 237 135 212 135 c 0,23,24
 186 135 186 135 167 153 c 1,25,-1
 112 0 l 1,26,-1
 54 0 l 1,27,-1
 54 250 l 2,28,29
 54 277 54 277 65.5 302 c 128,-1,30
 77 327 77 327 95.5 347.5 c 128,-1,31
 114 368 114 368 138.5 381 c 128,-1,32
 163 394 163 394 190 396 c 1,33,-1
 237 348 l 1,34,-1
 276 396 l 1,35,36
 295 395 295 395 312 387 c 128,-1,37
 329 379 329 379 341.5 365.5 c 128,-1,38
 354 352 354 352 362 334.5 c 128,-1,39
 370 317 370 317 370 297 c 2,40,-1
 370 0 l 1,0,-1
177 199 m 256,41,42
 177 185 177 185 187.5 174.5 c 128,-1,43
 198 164 198 164 212 164 c 0,44,45
 225 164 225 164 236 174.5 c 128,-1,46
 247 185 247 185 247 199 c 256,47,48
 247 213 247 213 236.5 223.5 c 128,-1,49
 226 234 226 234 212 234 c 256,50,51
 198 234 198 234 187.5 223.5 c 128,-1,52
 177 213 177 213 177 199 c 256,41,42
EndSplineSet
EndChar
StartChar: uni0E06
Encoding: 3590 3590 217
Width: 474
Flags: W
Fore
167 107 m 2,0,1
 150 107 150 107 139 95.5 c 128,-1,2
 128 84 128 84 128 70 c 0,3,4
 128 53 128 53 143 41.5 c 128,-1,5
 158 30 158 30 175 30 c 1,6,-1
 175 107 l 1,7,-1
 167 107 l 2,0,1
220 145 m 1,8,9
 244 139 244 139 268 130 c 128,-1,10
 292 121 292 121 312.5 109.5 c 128,-1,11
 333 98 333 98 349.5 85 c 128,-1,12
 366 72 366 72 376 59 c 1,13,-1
 376 396 l 1,14,-1
 421 396 l 1,15,-1
 421 0 l 1,16,-1
 376 0 l 1,17,18
 347 42 347 42 307.5 67 c 128,-1,19
 268 92 268 92 220 103 c 1,20,-1
 220 30 l 1,21,22
 212 16 212 16 202.5 8 c 128,-1,23
 193 0 193 0 167 0 c 0,24,25
 140 0 140 0 118.5 21 c 128,-1,26
 97 42 97 42 97 70 c 256,27,28
 97 98 97 98 118.5 118.5 c 128,-1,29
 140 139 140 139 167 139 c 2,30,-1
 175 139 l 1,31,-1
 175 230 l 2,32,33
 175 241 175 241 182 250.5 c 128,-1,34
 189 260 189 260 198 271 c 0,35,36
 206 281 206 281 212.5 294.5 c 128,-1,37
 219 308 219 308 219 323 c 0,38,39
 219 343 219 343 203 359 c 1,40,-1
 156 288 l 1,41,-1
 105 361 l 1,42,43
 86 360 86 360 68 347.5 c 128,-1,44
 50 335 50 335 46 315 c 1,45,46
 60 325 60 325 76 325 c 0,47,48
 99 325 99 325 117 307.5 c 128,-1,49
 135 290 135 290 135 264 c 0,50,51
 135 241 135 241 116.5 224 c 128,-1,52
 98 207 98 207 75 207 c 0,53,54
 43 207 43 207 26.5 233 c 128,-1,55
 10 259 10 259 10 289 c 0,56,57
 10 311 10 311 19 331 c 128,-1,58
 28 351 28 351 43 365 c 128,-1,59
 58 379 58 379 78 387.5 c 128,-1,60
 98 396 98 396 120 396 c 1,61,-1
 156 341 l 1,62,-1
 194 396 l 1,63,64
 223 389 223 389 237.5 366.5 c 128,-1,65
 252 344 252 344 252 317 c 0,66,67
 252 282 252 282 231 253 c 0,68,69
 226 247 226 247 223 240.5 c 128,-1,70
 220 234 220 234 220 221 c 2,71,-1
 220 145 l 1,8,9
76 300 m 0,72,73
 65 300 65 300 54 290.5 c 128,-1,74
 43 281 43 281 43 267 c 0,75,76
 43 254 43 254 52.5 244 c 128,-1,77
 62 234 62 234 76 234 c 0,78,79
 89 234 89 234 99 244.5 c 128,-1,80
 109 255 109 255 109 267 c 0,81,82
 109 281 109 281 99 290.5 c 128,-1,83
 89 300 89 300 76 300 c 0,72,73
EndSplineSet
EndChar
StartChar: uni0E07
Encoding: 3591 3591 218
Width: 343
Flags: W
Fore
290 0 m 1,0,-1
 245 0 l 2,1,2
 231 0 231 0 220.5 3 c 128,-1,3
 210 6 210 6 199 12 c 0,4,5
 188 17 188 17 177.5 27.5 c 128,-1,6
 167 38 167 38 160 49 c 2,7,-1
 24 260 l 1,8,-1
 76 260 l 1,9,-1
 206 58 l 1,10,11
 213 50 213 50 223.5 45 c 128,-1,12
 234 40 234 40 245 40 c 1,13,-1
 245 271 l 1,14,15
 236 268 236 268 227 268 c 0,16,17
 201 268 201 268 182 287 c 128,-1,18
 163 306 163 306 163 332 c 256,19,20
 163 358 163 358 182.5 376.5 c 128,-1,21
 202 395 202 395 228 395 c 0,22,23
 252 395 252 395 271 377 c 128,-1,24
 290 359 290 359 290 334 c 2,25,-1
 290 0 l 1,0,-1
227 367 m 256,26,27
 213 367 213 367 202.5 356.5 c 128,-1,28
 192 346 192 346 192 332 c 0,29,30
 192 319 192 319 202.5 308 c 128,-1,31
 213 297 213 297 227 297 c 256,32,33
 241 297 241 297 251 308 c 128,-1,34
 261 319 261 319 261 332 c 0,35,36
 261 346 261 346 251 356.5 c 128,-1,37
 241 367 241 367 227 367 c 256,26,27
EndSplineSet
EndChar
StartChar: uni0E08
Encoding: 3592 3592 219
Width: 384
Flags: W
Fore
284 295 m 2,0,1
 284 317 284 317 267.5 336.5 c 128,-1,2
 251 356 251 356 229 356 c 2,3,-1
 167 356 l 2,4,5
 130 356 130 356 105.5 332 c 128,-1,6
 81 308 81 308 68 278 c 1,7,-1
 24 293 l 1,8,9
 42 336 42 336 80 365.5 c 128,-1,10
 118 395 118 395 167 396 c 2,11,-1
 231 396 l 2,12,13
 251 396 251 396 268.5 387.5 c 128,-1,14
 286 379 286 379 299.5 365 c 128,-1,15
 313 351 313 351 321 332.5 c 128,-1,16
 329 314 329 314 329 295 c 2,17,-1
 329 97 l 2,18,19
 329 79 329 79 321 61.5 c 128,-1,20
 313 44 313 44 300 30.5 c 128,-1,21
 287 17 287 17 270 8.5 c 128,-1,22
 253 0 253 0 235 0 c 2,23,-1
 190 0 l 1,24,-1
 190 136 l 1,25,26
 192 136 192 136 185.5 135 c 128,-1,27
 179 134 179 134 172 134 c 0,28,29
 146 134 146 134 127 153 c 128,-1,30
 108 172 108 172 108 198 c 256,31,32
 108 224 108 224 127 242.5 c 128,-1,33
 146 261 146 261 172 261 c 256,34,35
 198 261 198 261 216.5 242 c 128,-1,36
 235 223 235 223 235 198 c 2,37,-1
 235 40 l 1,38,39
 254 42 254 42 269 60.5 c 128,-1,40
 284 79 284 79 284 100 c 2,41,-1
 284 295 l 2,0,1
172 232 m 256,42,43
 158 232 158 232 147.5 222 c 128,-1,44
 137 212 137 212 137 198 c 0,45,46
 137 185 137 185 147.5 174 c 128,-1,47
 158 163 158 163 172 163 c 256,48,49
 186 163 186 163 196.5 173.5 c 128,-1,50
 207 184 207 184 207 198 c 256,51,52
 207 212 207 212 196.5 222 c 128,-1,53
 186 232 186 232 172 232 c 256,42,43
EndSplineSet
EndChar
StartChar: uni0E09
Encoding: 3593 3593 220
Width: 405
Flags: W
Fore
185 356 m 2,0,1
 165 356 165 356 146 346 c 128,-1,2
 127 336 127 336 112.5 320 c 128,-1,3
 98 304 98 304 89.5 283.5 c 128,-1,4
 81 263 81 263 81 243 c 1,5,-1
 35 243 l 1,6,7
 35 273 35 273 47.5 300.5 c 128,-1,8
 60 328 60 328 80 349 c 128,-1,9
 100 370 100 370 127.5 383 c 128,-1,10
 155 396 155 396 185 396 c 2,11,-1
 252 396 l 2,12,13
 272 396 272 396 290 387.5 c 128,-1,14
 308 379 308 379 321.5 365 c 128,-1,15
 335 351 335 351 343 332.5 c 128,-1,16
 351 314 351 314 351 294 c 2,17,-1
 351 137 l 1,18,19
 374 128 374 128 386 110 c 128,-1,20
 398 92 398 92 398 72 c 0,21,22
 398 43 398 43 378 21.5 c 128,-1,23
 358 0 358 0 326 0 c 0,24,25
 298 0 298 0 278.5 21 c 128,-1,26
 259 42 259 42 258 70 c 1,27,-1
 149 0 l 1,28,-1
 104 0 l 1,29,-1
 104 95 l 1,30,31
 99 94 99 94 95.5 93.5 c 128,-1,32
 92 93 92 93 88 93 c 0,33,34
 63 93 63 93 44 111 c 128,-1,35
 25 129 25 129 25 155 c 256,36,37
 25 181 25 181 44 199 c 128,-1,38
 63 217 63 217 88 217 c 0,39,40
 112 217 112 217 130.5 199 c 128,-1,41
 149 181 149 181 149 157 c 2,42,-1
 149 50 l 1,43,-1
 306 149 l 1,44,-1
 306 294 l 2,45,46
 306 317 306 317 290 336 c 128,-1,47
 274 355 274 355 250 356 c 2,48,-1
 185 356 l 2,0,1
53 155 m 0,49,50
 53 141 53 141 63.5 131 c 128,-1,51
 74 121 74 121 88 121 c 256,52,53
 102 121 102 121 112 131 c 128,-1,54
 122 141 122 141 122 155 c 256,55,56
 122 169 122 169 112 179.5 c 128,-1,57
 102 190 102 190 88 190 c 256,58,59
 74 190 74 190 63.5 180 c 128,-1,60
 53 170 53 170 53 155 c 0,49,50
328 109 m 256,61,62
 312 109 312 109 301 97 c 128,-1,63
 290 85 290 85 290 70 c 0,64,65
 290 54 290 54 301.5 43 c 128,-1,66
 313 32 313 32 329 32 c 0,67,68
 344 32 344 32 355.5 43 c 128,-1,69
 367 54 367 54 367 70 c 0,70,71
 367 87 367 87 355.5 98 c 128,-1,72
 344 109 344 109 328 109 c 256,61,62
EndSplineSet
EndChar
StartChar: uni0E0A
Encoding: 3594 3594 221
Width: 374
Flags: W
Fore
51 280 m 256,0,1
 51 266 51 266 61.5 255.5 c 128,-1,2
 72 245 72 245 86 245 c 0,3,4
 99 245 99 245 109.5 255.5 c 128,-1,5
 120 266 120 266 120 280 c 256,6,7
 120 294 120 294 110 304.5 c 128,-1,8
 100 315 100 315 86 315 c 256,9,10
 72 315 72 315 61.5 304.5 c 128,-1,11
 51 294 51 294 51 280 c 256,0,1
212 40 m 1,12,-1
 227 40 l 2,13,14
 246 42 246 42 261.5 57.5 c 128,-1,15
 277 73 277 73 277 95 c 2,16,-1
 277 245 l 2,17,18
 277 251 277 251 271 257 c 128,-1,19
 265 263 265 263 256 267.5 c 128,-1,20
 247 272 247 272 237.5 275 c 128,-1,21
 228 278 228 278 221 278 c 1,22,-1
 221 298 l 1,23,24
 249 308 249 308 267 322 c 128,-1,25
 285 336 285 336 295.5 355 c 128,-1,26
 306 374 306 374 311 398 c 128,-1,27
 316 422 316 422 318 454 c 1,28,-1
 363 454 l 1,29,30
 359 428 359 428 354.5 402 c 128,-1,31
 350 376 350 376 341 354 c 128,-1,32
 332 332 332 332 316 314.5 c 128,-1,33
 300 297 300 297 273 287 c 1,34,35
 285 284 285 284 301 272.5 c 128,-1,36
 317 261 317 261 322 251 c 1,37,-1
 322 101 l 2,38,39
 322 82 322 82 314 64 c 128,-1,40
 306 46 306 46 293 31.5 c 128,-1,41
 280 17 280 17 263 8.5 c 128,-1,42
 246 0 246 0 227 0 c 2,43,-1
 210 0 l 2,44,45
 193 0 193 0 180 13.5 c 128,-1,46
 167 27 167 27 167 45 c 2,47,-1
 167 204 l 2,48,49
 167 214 167 214 169 222.5 c 128,-1,50
 171 231 171 231 173 240 c 128,-1,51
 175 249 175 249 177 259.5 c 128,-1,52
 179 270 179 270 179 284 c 0,53,54
 177 316 177 316 158 340.5 c 128,-1,55
 139 365 139 365 109 365 c 0,56,57
 97 365 97 365 85.5 359 c 128,-1,58
 74 353 74 353 66 341 c 1,59,60
 71 342 71 342 76 342.5 c 128,-1,61
 81 343 81 343 86 343 c 0,62,63
 111 343 111 343 130 324.5 c 128,-1,64
 149 306 149 306 149 280 c 0,65,66
 149 255 149 255 130 236 c 128,-1,67
 111 217 111 217 86 217 c 0,68,69
 70 217 70 217 57.5 223.5 c 128,-1,70
 45 230 45 230 36 241 c 128,-1,71
 27 252 27 252 22.5 266 c 128,-1,72
 18 280 18 280 18 294 c 0,73,74
 18 322 18 322 29 344 c 0,75,76
 43 368 43 368 64.5 382 c 128,-1,77
 86 396 86 396 114 396 c 0,78,79
 161 395 161 395 186.5 363.5 c 128,-1,80
 212 332 212 332 212 285 c 2,81,-1
 212 40 l 1,12,-1
EndSplineSet
EndChar
StartChar: uni0E0B
Encoding: 3595 3595 222
Width: 380
Flags: W
Fore
173 230 m 2,0,1
 173 241 173 241 180 250.5 c 128,-1,2
 187 260 187 260 196 271 c 0,3,4
 204 281 204 281 210.5 294.5 c 128,-1,5
 217 308 217 308 217 323 c 0,6,7
 217 343 217 343 201 359 c 1,8,-1
 154 288 l 1,9,-1
 103 361 l 1,10,11
 84 360 84 360 66 347.5 c 128,-1,12
 48 335 48 335 44 315 c 1,13,14
 58 325 58 325 74 325 c 0,15,16
 97 325 97 325 115 307.5 c 128,-1,17
 133 290 133 290 133 264 c 0,18,19
 133 241 133 241 114.5 224 c 128,-1,20
 96 207 96 207 73 207 c 0,21,22
 41 207 41 207 24.5 233 c 128,-1,23
 8 259 8 259 8 289 c 0,24,25
 8 311 8 311 17 331 c 128,-1,26
 26 351 26 351 41 365 c 128,-1,27
 56 379 56 379 76 387.5 c 128,-1,28
 96 396 96 396 118 396 c 1,29,-1
 154 341 l 1,30,-1
 192 396 l 1,31,32
 221 389 221 389 235.5 366.5 c 128,-1,33
 250 344 250 344 250 317 c 0,34,35
 250 282 250 282 229 253 c 0,36,37
 224 247 224 247 221 240.5 c 128,-1,38
 218 234 218 234 218 221 c 2,39,-1
 218 40 l 1,40,-1
 233 40 l 2,41,42
 252 42 252 42 267.5 57.5 c 128,-1,43
 283 73 283 73 283 95 c 2,44,-1
 283 248 l 1,45,46
 281 255 281 255 275.5 260.5 c 128,-1,47
 270 266 270 266 262 271 c 2,48,49
 260 273 260 273 258 273 c 1,50,51
 261 283 261 283 261 294 c 256,52,53
 261 305 261 305 258 319 c 1,54,55
 280 331 280 331 292 343.5 c 128,-1,56
 304 356 304 356 310.5 372 c 128,-1,57
 317 388 317 388 319.5 408.5 c 128,-1,58
 322 429 322 429 324 457 c 1,59,-1
 368 457 l 1,60,61
 365 432 365 432 362 407.5 c 128,-1,62
 359 383 359 383 351.5 361.5 c 128,-1,63
 344 340 344 340 329 323 c 128,-1,64
 314 306 314 306 287 296 c 1,65,66
 328 273 328 273 328 256 c 2,67,-1
 328 101 l 2,68,69
 328 82 328 82 320 64 c 128,-1,70
 312 46 312 46 299 31.5 c 128,-1,71
 286 17 286 17 269 8.5 c 128,-1,72
 252 0 252 0 233 0 c 2,73,-1
 216 0 l 2,74,75
 199 0 199 0 186 13.5 c 128,-1,76
 173 27 173 27 173 45 c 2,77,-1
 173 230 l 2,0,1
74 300 m 0,78,79
 63 300 63 300 52 290.5 c 128,-1,80
 41 281 41 281 41 267 c 0,81,82
 41 254 41 254 50.5 244 c 128,-1,83
 60 234 60 234 74 234 c 0,84,85
 87 234 87 234 97 244.5 c 128,-1,86
 107 255 107 255 107 267 c 0,87,88
 107 281 107 281 97 290.5 c 128,-1,89
 87 300 87 300 74 300 c 0,78,79
EndSplineSet
EndChar
StartChar: uni0E0C
Encoding: 3596 3596 223
Width: 567
Flags: W
Fore
512 0 m 1,0,-1
 468 0 l 1,1,2
 438 31 438 31 406.5 56 c 128,-1,3
 375 81 375 81 337 93 c 1,4,-1
 337 23 l 1,5,6
 328 14 328 14 316 7.5 c 128,-1,7
 304 1 304 1 291 1 c 0,8,9
 261 1 261 1 240 20.5 c 128,-1,10
 219 40 219 40 219 68 c 0,11,12
 219 98 219 98 239 117 c 128,-1,13
 259 136 259 136 291 136 c 1,14,-1
 291 296 l 2,15,16
 291 319 291 319 274.5 337.5 c 128,-1,17
 258 356 258 356 236 356 c 2,18,-1
 173 356 l 2,19,20
 158 356 158 356 143 349.5 c 128,-1,21
 128 343 128 343 115.5 332 c 128,-1,22
 103 321 103 321 93 307.5 c 128,-1,23
 83 294 83 294 78 280 c 1,24,25
 98 264 98 264 105.5 245 c 128,-1,26
 113 226 113 226 113 207 c 2,27,-1
 113 125 l 1,28,29
 118 126 118 126 122 126.5 c 128,-1,30
 126 127 126 127 131 127 c 0,31,32
 156 127 156 127 175 108.5 c 128,-1,33
 194 90 194 90 194 65 c 0,34,35
 194 39 194 39 175.5 20 c 128,-1,36
 157 1 157 1 131 1 c 0,37,38
 108 1 108 1 89.5 16 c 128,-1,39
 71 31 71 31 68 53 c 2,40,-1
 68 207 l 2,41,42
 68 225 68 225 55 241.5 c 128,-1,43
 42 258 42 258 24 260 c 1,44,45
 27 288 27 288 40.5 313 c 128,-1,46
 54 338 54 338 74.5 356.5 c 128,-1,47
 95 375 95 375 121 385.5 c 128,-1,48
 147 396 147 396 175 396 c 2,49,-1
 236 396 l 2,50,51
 255 396 255 396 273 387.5 c 128,-1,52
 291 379 291 379 305.5 365.5 c 128,-1,53
 320 352 320 352 328.5 333.5 c 128,-1,54
 337 315 337 315 337 296 c 2,55,-1
 337 130 l 1,56,57
 374 118 374 118 408 97.5 c 128,-1,58
 442 77 442 77 468 48 c 1,59,-1
 468 396 l 1,60,-1
 512 396 l 1,61,-1
 512 0 l 1,0,-1
96 65 m 0,62,63
 96 51 96 51 106.5 40.5 c 128,-1,64
 117 30 117 30 131 30 c 256,65,66
 145 30 145 30 155 40.5 c 128,-1,67
 165 51 165 51 165 65 c 0,68,69
 165 78 165 78 155 88 c 128,-1,70
 145 98 145 98 131 98 c 256,71,72
 117 98 117 98 106.5 87.5 c 128,-1,73
 96 77 96 77 96 65 c 0,62,63
249 68 m 256,74,75
 249 51 249 51 261.5 41.5 c 128,-1,76
 274 32 274 32 291 32 c 1,77,-1
 291 105 l 1,78,79
 274 105 274 105 261.5 95 c 128,-1,80
 249 85 249 85 249 68 c 256,74,75
EndSplineSet
EndChar
StartChar: uni0E0D
Encoding: 3597 3597 224
Width: 571
Flags: W
Fore
118 126 m 1,0,1
 127 129 127 129 136 129 c 0,2,3
 159 129 159 129 179.5 111 c 128,-1,4
 200 93 200 93 200 65 c 0,5,6
 200 39 200 39 181 19.5 c 128,-1,7
 162 0 162 0 136 0 c 0,8,9
 111 0 111 0 92 17 c 128,-1,10
 73 34 73 34 73 55 c 2,11,-1
 73 207 l 2,12,13
 73 225 73 225 59.5 241.5 c 128,-1,14
 46 258 46 258 28 260 c 1,15,16
 31 288 31 288 44.5 313 c 128,-1,17
 58 338 58 338 78.5 356.5 c 128,-1,18
 99 375 99 375 125 385.5 c 128,-1,19
 151 396 151 396 179 396 c 2,20,-1
 241 396 l 2,21,22
 260 396 260 396 278 387.5 c 128,-1,23
 296 379 296 379 310.5 365.5 c 128,-1,24
 325 352 325 352 333.5 333.5 c 128,-1,25
 342 315 342 315 342 296 c 2,26,-1
 342 40 l 1,27,-1
 420 40 l 2,28,29
 442 42 442 42 458.5 60.5 c 128,-1,30
 475 79 475 79 475 102 c 2,31,-1
 475 396 l 1,32,-1
 520 396 l 1,33,-1
 520 102 l 2,34,35
 520 82 520 82 512 63.5 c 128,-1,36
 504 45 504 45 490.5 31 c 128,-1,37
 477 17 477 17 459 8.5 c 128,-1,38
 441 0 441 0 420 0 c 2,39,-1
 343 0 l 2,40,41
 325 0 325 0 312 14 c 128,-1,42
 299 28 299 28 297 45 c 2,43,-1
 297 296 l 2,44,45
 297 319 297 319 280 337.5 c 128,-1,46
 263 356 263 356 241 356 c 2,47,-1
 177 356 l 2,48,49
 162 356 162 356 147 349.5 c 128,-1,50
 132 343 132 343 119.5 332 c 128,-1,51
 107 321 107 321 97 307.5 c 128,-1,52
 87 294 87 294 82 280 c 1,53,54
 102 264 102 264 109.5 245 c 128,-1,55
 117 226 117 226 118 207 c 2,56,-1
 118 126 l 1,0,1
136 101 m 256,57,58
 122 101 122 101 112.5 90.5 c 128,-1,59
 103 80 103 80 103 66 c 256,60,61
 103 52 103 52 112.5 41.5 c 128,-1,62
 122 31 122 31 136 31 c 256,63,64
 150 31 150 31 160.5 41.5 c 128,-1,65
 171 52 171 52 171 66 c 256,66,67
 171 80 171 80 160.5 90.5 c 128,-1,68
 150 101 150 101 136 101 c 256,57,58
397 -85 m 0,69,70
 397 -100 397 -100 388 -111 c 128,-1,71
 379 -122 379 -122 371 -129 c 1,72,73
 383 -132 383 -132 394 -132 c 0,74,75
 431 -132 431 -132 460 -106 c 128,-1,76
 489 -80 489 -80 497 -43 c 1,77,-1
 532 -43 l 1,78,79
 527 -68 527 -68 514 -90.5 c 128,-1,80
 501 -113 501 -113 481.5 -129.5 c 128,-1,81
 462 -146 462 -146 438 -155.5 c 128,-1,82
 414 -165 414 -165 388 -165 c 0,83,84
 368 -165 368 -165 348 -160 c 128,-1,85
 328 -155 328 -155 312.5 -145 c 128,-1,86
 297 -135 297 -135 287 -120 c 128,-1,87
 277 -105 277 -105 277 -85 c 0,88,89
 277 -62 277 -62 295 -43.5 c 128,-1,90
 313 -25 313 -25 337 -25 c 0,91,92
 362 -25 362 -25 379.5 -42 c 128,-1,93
 397 -59 397 -59 397 -85 c 0,69,70
337 -52 m 0,94,95
 323 -52 323 -52 313.5 -61.5 c 128,-1,96
 304 -71 304 -71 304 -85 c 0,97,98
 304 -98 304 -98 313.5 -108 c 128,-1,99
 323 -118 323 -118 337 -118 c 256,100,101
 351 -118 351 -118 360.5 -108 c 128,-1,102
 370 -98 370 -98 370 -85 c 0,103,104
 370 -71 370 -71 360 -61.5 c 128,-1,105
 350 -52 350 -52 337 -52 c 0,94,95
EndSplineSet
Substitution: 0 65534 'L026' uni0E0D.alt1
Substitution: 0 65534 'L026' uni0E0D.alt1
EndChar
StartChar: uni0E0E
Encoding: 3598 3598 225
Width: 408
Flags: W
Fore
151 60 m 2,0,1
 151 35 151 35 132 17.5 c 128,-1,2
 113 0 113 0 88 0 c 0,3,4
 62 0 62 0 43.5 19 c 128,-1,5
 25 38 25 38 25 63 c 0,6,7
 25 89 25 89 43.5 107.5 c 128,-1,8
 62 126 62 126 88 126 c 0,9,10
 93 126 93 126 97 126 c 128,-1,11
 101 126 101 126 106 124 c 1,12,-1
 106 206 l 2,13,14
 106 214 106 214 100 223.5 c 128,-1,15
 94 233 94 233 84.5 241.5 c 128,-1,16
 75 250 75 250 63.5 256 c 128,-1,17
 52 262 52 262 41 263 c 1,18,19
 44 291 44 291 57.5 315.5 c 128,-1,20
 71 340 71 340 91.5 358 c 128,-1,21
 112 376 112 376 138 386 c 128,-1,22
 164 396 164 396 192 396 c 2,23,-1
 253 396 l 2,24,25
 272 396 272 396 290 387.5 c 128,-1,26
 308 379 308 379 322.5 365.5 c 128,-1,27
 337 352 337 352 345.5 333.5 c 128,-1,28
 354 315 354 315 354 296 c 2,29,-1
 354 -97 l 1,30,31
 337 -132 337 -132 312.5 -158.5 c 128,-1,32
 288 -185 288 -185 254 -200 c 1,33,-1
 188 -151 l 1,34,35
 181 -171 181 -171 164 -183 c 128,-1,36
 147 -195 147 -195 127 -195 c 0,37,38
 103 -195 103 -195 83.5 -176 c 128,-1,39
 64 -157 64 -157 64 -131 c 256,40,41
 64 -105 64 -105 83 -86.5 c 128,-1,42
 102 -68 102 -68 127 -68 c 0,43,44
 140 -68 140 -68 152 -73 c 128,-1,45
 164 -78 164 -78 175 -86 c 2,46,-1
 255 -148 l 1,47,48
 284 -135 284 -135 309 -90 c 1,49,-1
 309 296 l 2,50,51
 309 319 309 319 292 337.5 c 128,-1,52
 275 356 275 356 253 356 c 2,53,-1
 190 356 l 2,54,55
 159 356 159 356 132.5 333.5 c 128,-1,56
 106 311 106 311 95 283 c 1,57,58
 104 280 104 280 114 272.5 c 128,-1,59
 124 265 124 265 132 254.5 c 128,-1,60
 140 244 140 244 145.5 231.5 c 128,-1,61
 151 219 151 219 151 206 c 2,62,-1
 151 60 l 2,0,1
54 63 m 256,63,64
 54 49 54 49 64.5 39 c 128,-1,65
 75 29 75 29 88 29 c 0,66,67
 102 29 102 29 112.5 39 c 128,-1,68
 123 49 123 49 123 63 c 0,69,70
 123 78 123 78 112.5 87.5 c 128,-1,71
 102 97 102 97 88 97 c 256,72,73
 74 97 74 97 64 87 c 128,-1,74
 54 77 54 77 54 63 c 256,63,64
93 -131 m 256,75,76
 93 -145 93 -145 103.5 -155.5 c 128,-1,77
 114 -166 114 -166 127 -166 c 0,78,79
 141 -166 141 -166 151.5 -155.5 c 128,-1,80
 162 -145 162 -145 162 -131 c 256,81,82
 162 -117 162 -117 153 -107 c 128,-1,83
 144 -97 144 -97 127 -97 c 0,84,85
 113 -97 113 -97 103 -107 c 128,-1,86
 93 -117 93 -117 93 -131 c 256,75,76
EndSplineSet
Substitution: 0 65534 'L026' uni0E0E.alt1
Substitution: 0 65534 'L026' uni0E0E.alt1
EndChar
StartChar: uni0E0F
Encoding: 3599 3599 226
Width: 407
Flags: W
Fore
354 -98 m 2,0,1
 354 -123 354 -123 341 -145 c 0,2,3
 327 -168 327 -168 277 -200 c 1,4,-1
 229 -123 l 1,5,-1
 184 -200 l 1,6,-1
 151 -156 l 1,7,8
 143 -170 143 -170 128 -179 c 128,-1,9
 113 -188 113 -188 96 -188 c 0,10,11
 70 -188 70 -188 51 -169 c 128,-1,12
 32 -150 32 -150 32 -124 c 256,13,14
 32 -98 32 -98 51 -79 c 128,-1,15
 70 -60 70 -60 96 -60 c 0,16,17
 125 -60 125 -60 146 -84 c 2,18,-1
 185 -141 l 1,19,-1
 231 -63 l 1,20,-1
 281 -141 l 1,21,22
 287 -137 287 -137 292 -133 c 128,-1,23
 297 -129 297 -129 301 -124 c 0,24,25
 309 -116 309 -116 309 -98 c 2,26,-1
 309 296 l 2,27,28
 309 319 309 319 292 337.5 c 128,-1,29
 275 356 275 356 253 356 c 2,30,-1
 190 356 l 2,31,32
 159 356 159 356 132.5 333.5 c 128,-1,33
 106 311 106 311 95 283 c 1,34,35
 113 276 113 276 132 254.5 c 128,-1,36
 151 233 151 233 151 207 c 2,37,-1
 151 60 l 2,38,39
 151 35 151 35 132 17.5 c 128,-1,40
 113 0 113 0 88 0 c 256,41,42
 63 0 63 0 44 18.5 c 128,-1,43
 25 37 25 37 25 63 c 0,44,45
 25 88 25 88 44 107 c 128,-1,46
 63 126 63 126 88 126 c 0,47,48
 93 126 93 126 97.5 126 c 128,-1,49
 102 126 102 126 106 124 c 1,50,-1
 106 206 l 2,51,52
 106 214 106 214 100 223.5 c 128,-1,53
 94 233 94 233 84.5 241.5 c 128,-1,54
 75 250 75 250 63.5 256 c 128,-1,55
 52 262 52 262 41 263 c 1,56,57
 44 291 44 291 57.5 315.5 c 128,-1,58
 71 340 71 340 91.5 358 c 128,-1,59
 112 376 112 376 138 386 c 128,-1,60
 164 396 164 396 192 396 c 2,61,-1
 253 396 l 2,62,63
 272 396 272 396 290 387.5 c 128,-1,64
 308 379 308 379 322.5 365.5 c 128,-1,65
 337 352 337 352 345.5 333.5 c 128,-1,66
 354 315 354 315 354 296 c 2,67,-1
 354 -98 l 2,0,1
54 63 m 0,68,69
 54 49 54 49 64.5 39 c 128,-1,70
 75 29 75 29 88 29 c 0,71,72
 103 29 103 29 113 39 c 128,-1,73
 123 49 123 49 123 63 c 256,74,75
 123 77 123 77 112.5 87 c 128,-1,76
 102 97 102 97 88 97 c 0,77,78
 74 96 74 96 64 86 c 128,-1,79
 54 76 54 76 54 63 c 0,68,69
61 -124 m 0,80,81
 61 -137 61 -137 71.5 -148 c 128,-1,82
 82 -159 82 -159 96 -159 c 256,83,84
 110 -159 110 -159 120.5 -148.5 c 128,-1,85
 131 -138 131 -138 131 -124 c 256,86,87
 131 -110 131 -110 120.5 -99.5 c 128,-1,88
 110 -89 110 -89 96 -89 c 256,89,90
 82 -89 82 -89 71.5 -99.5 c 128,-1,91
 61 -110 61 -110 61 -124 c 0,80,81
EndSplineSet
Substitution: 0 65534 'L026' uni0E0F.alt1
Substitution: 0 65534 'L026' uni0E0F.alt1
EndChar
StartChar: uni0E10
Encoding: 3600 3600 227
Width: 357
Flags: W
Fore
281 101 m 2,0,1
 281 82 281 82 273.5 64 c 128,-1,2
 266 46 266 46 253 32 c 128,-1,3
 240 18 240 18 223 9 c 128,-1,4
 206 0 206 0 185 0 c 2,5,-1
 140 0 l 1,6,-1
 140 92 l 1,7,8
 131 89 131 89 122 89 c 0,9,10
 96 89 96 89 77 108.5 c 128,-1,11
 58 128 58 128 58 154 c 256,12,13
 58 180 58 180 77 199.5 c 128,-1,14
 96 219 96 219 122 219 c 256,15,16
 148 219 148 219 166.5 200.5 c 128,-1,17
 185 182 185 182 185 154 c 2,18,-1
 185 40 l 1,19,20
 205 42 205 42 220.5 58 c 128,-1,21
 236 74 236 74 236 95 c 2,22,-1
 236 209 l 1,23,24
 163 252 163 252 27 272 c 1,25,26
 27 297 27 297 34 323.5 c 128,-1,27
 41 350 41 350 61 367 c 0,28,29
 77 380 77 380 94.5 388 c 128,-1,30
 112 396 112 396 132 396 c 0,31,32
 148 396 148 396 164 391.5 c 128,-1,33
 180 387 180 387 195 381.5 c 128,-1,34
 210 376 210 376 225.5 371 c 128,-1,35
 241 366 241 366 258 364 c 0,36,37
 276 364 276 364 292 373 c 128,-1,38
 308 382 308 382 327 400 c 1,39,-1
 327 358 l 1,40,41
 313 341 313 341 296.5 334.5 c 128,-1,42
 280 328 280 328 262 328 c 0,43,44
 245 328 245 328 229 333 c 128,-1,45
 213 338 213 338 197 344 c 128,-1,46
 181 350 181 350 164.5 355 c 128,-1,47
 148 360 148 360 132 360 c 0,48,49
 121 360 121 360 110.5 354.5 c 128,-1,50
 100 349 100 349 91.5 340 c 128,-1,51
 83 331 83 331 77.5 320 c 128,-1,52
 72 309 72 309 72 299 c 1,53,54
 126 291 126 291 178 273.5 c 128,-1,55
 230 256 230 256 281 227 c 1,56,-1
 281 101 l 2,0,1
291 -126 m 2,57,58
 291 -177 291 -177 222 -199 c 1,59,-1
 177 -125 l 1,60,-1
 122 -199 l 1,61,-1
 97 -152 l 1,62,63
 80 -178 80 -178 49 -178 c 0,64,65
 22 -178 22 -178 2 -158.5 c 128,-1,66
 -18 -139 -18 -139 -18 -113 c 256,67,68
 -18 -87 -18 -87 1.5 -68 c 128,-1,69
 21 -49 21 -49 47 -49 c 0,70,71
 62 -49 62 -49 75.5 -55 c 128,-1,72
 89 -61 89 -61 97 -73 c 1,73,-1
 129 -141 l 1,74,-1
 177 -75 l 1,75,-1
 232 -159 l 1,76,77
 258 -147 258 -147 258 -122 c 2,78,-1
 258 -100 l 1,79,80
 252 -102 252 -102 246 -102 c 0,81,82
 227 -102 227 -102 214 -88 c 128,-1,83
 201 -74 201 -74 201 -55 c 256,84,85
 201 -36 201 -36 214.5 -22.5 c 128,-1,86
 228 -9 228 -9 246 -9 c 0,87,88
 263 -9 263 -9 277 -22 c 128,-1,89
 291 -35 291 -35 291 -55 c 2,90,-1
 291 -126 l 2,57,58
12 -113 m 256,91,92
 12 -127 12 -127 22 -138 c 128,-1,93
 32 -149 32 -149 47 -149 c 256,94,95
 62 -149 62 -149 72 -138 c 128,-1,96
 82 -127 82 -127 82 -113 c 256,97,98
 82 -99 82 -99 71.5 -88.5 c 128,-1,99
 61 -78 61 -78 47 -78 c 256,100,101
 33 -78 33 -78 22.5 -88.5 c 128,-1,102
 12 -99 12 -99 12 -113 c 256,91,92
122 119 m 256,103,104
 136 119 136 119 146.5 129.5 c 128,-1,105
 157 140 157 140 157 154 c 256,106,107
 157 168 157 168 146.5 178.5 c 128,-1,108
 136 189 136 189 122 189 c 256,109,110
 108 189 108 189 97.5 178.5 c 128,-1,111
 87 168 87 168 87 154 c 0,112,113
 87 141 87 141 97.5 130 c 128,-1,114
 108 119 108 119 122 119 c 256,103,104
221 -55 m 256,115,116
 221 -65 221 -65 228 -73 c 128,-1,117
 235 -81 235 -81 246 -81 c 0,118,119
 256 -81 256 -81 263.5 -74 c 128,-1,120
 271 -67 271 -67 271 -57 c 0,121,122
 271 -46 271 -46 264 -38 c 128,-1,123
 257 -30 257 -30 246 -30 c 256,124,125
 235 -30 235 -30 228 -37.5 c 128,-1,126
 221 -45 221 -45 221 -55 c 256,115,116
EndSplineSet
Substitution: 0 65534 'L026' uni0E10.alt1
Substitution: 0 65534 'L026' uni0E10.alt1
EndChar
StartChar: uni0E11
Encoding: 3601 3601 228
Width: 518
Flags: W
Fore
221 116 m 1,0,-1
 348 396 l 1,1,2
 369 396 369 396 390.5 389 c 128,-1,3
 412 382 412 382 428.5 368.5 c 128,-1,4
 445 355 445 355 455.5 336 c 128,-1,5
 466 317 466 317 466 294 c 2,6,-1
 466 0 l 1,7,-1
 421 0 l 1,8,-1
 421 294 l 2,9,10
 421 312 421 312 409 327.5 c 128,-1,11
 397 343 397 343 377 347 c 1,12,-1
 221 0 l 1,13,-1
 176 0 l 1,14,-1
 176 230 l 2,15,16
 176 241 176 241 183 250.5 c 128,-1,17
 190 260 190 260 199 271 c 0,18,19
 207 281 207 281 213.5 294.5 c 128,-1,20
 220 308 220 308 220 323 c 0,21,22
 220 343 220 343 204 359 c 1,23,-1
 157 288 l 1,24,-1
 106 361 l 1,25,26
 87 360 87 360 69 347.5 c 128,-1,27
 51 335 51 335 47 315 c 1,28,29
 61 325 61 325 77 325 c 0,30,31
 100 325 100 325 118 307.5 c 128,-1,32
 136 290 136 290 136 264 c 0,33,34
 136 241 136 241 117.5 224 c 128,-1,35
 99 207 99 207 76 207 c 0,36,37
 44 207 44 207 27.5 233 c 128,-1,38
 11 259 11 259 11 289 c 0,39,40
 11 311 11 311 20 331 c 128,-1,41
 29 351 29 351 44 365 c 128,-1,42
 59 379 59 379 79 387.5 c 128,-1,43
 99 396 99 396 121 396 c 1,44,-1
 157 341 l 1,45,-1
 195 396 l 1,46,47
 224 389 224 389 238.5 366.5 c 128,-1,48
 253 344 253 344 253 317 c 0,49,50
 253 282 253 282 232 253 c 0,51,52
 227 247 227 247 224 242.5 c 128,-1,53
 221 238 221 238 221 225 c 2,54,-1
 221 116 l 1,0,-1
77 300 m 0,55,56
 66 300 66 300 55 290.5 c 128,-1,57
 44 281 44 281 44 267 c 0,58,59
 44 254 44 254 53.5 244 c 128,-1,60
 63 234 63 234 77 234 c 0,61,62
 90 234 90 234 100 244.5 c 128,-1,63
 110 255 110 255 110 267 c 0,64,65
 110 281 110 281 100 290.5 c 128,-1,66
 90 300 90 300 77 300 c 0,55,56
EndSplineSet
EndChar
StartChar: uni0E12
Encoding: 3602 3602 229
Width: 598
Flags: W
Fore
101 35 m 1,0,1
 133 39 133 39 161 61.5 c 128,-1,2
 189 84 189 84 206 116 c 1,3,4
 198 114 198 114 193 114 c 0,5,6
 167 114 167 114 148 133 c 128,-1,7
 129 152 129 152 129 178 c 256,8,9
 129 204 129 204 148 223 c 128,-1,10
 167 242 167 242 193 242 c 0,11,12
 218 242 218 242 237 223 c 128,-1,13
 256 204 256 204 256 178 c 0,14,15
 256 145 256 145 241.5 113 c 128,-1,16
 227 81 227 81 204 56 c 128,-1,17
 181 31 181 31 151 15.5 c 128,-1,18
 121 0 121 0 91 0 c 2,19,-1
 56 0 l 1,20,-1
 56 247 l 2,21,22
 56 274 56 274 67.5 300.5 c 128,-1,23
 79 327 79 327 97.5 348 c 128,-1,24
 116 369 116 369 140.5 382.5 c 128,-1,25
 165 396 165 396 192 396 c 1,26,-1
 236 347 l 1,27,-1
 275 396 l 1,28,29
 294 396 294 396 311 387.5 c 128,-1,30
 328 379 328 379 340.5 365.5 c 128,-1,31
 353 352 353 352 360.5 333.5 c 128,-1,32
 368 315 368 315 368 295 c 2,33,-1
 368 130 l 1,34,35
 445 108 445 108 500 48 c 1,36,-1
 500 396 l 1,37,-1
 545 396 l 1,38,-1
 545 0 l 1,39,-1
 500 0 l 1,40,41
 469 32 469 32 438 57.5 c 128,-1,42
 407 83 407 83 368 94 c 1,43,-1
 368 23 l 1,44,45
 360 12 360 12 346 6 c 128,-1,46
 332 0 332 0 319 0 c 0,47,48
 292 0 292 0 271.5 20.5 c 128,-1,49
 251 41 251 41 251 69 c 0,50,51
 251 95 251 95 271 116 c 128,-1,52
 291 137 291 137 317 137 c 2,53,-1
 323 137 l 1,54,-1
 323 295 l 2,55,56
 323 313 323 313 311 328 c 128,-1,57
 299 343 299 343 282 348 c 1,58,-1
 236 290 l 1,59,-1
 182 347 l 1,60,61
 149 338 149 338 125 310 c 128,-1,62
 101 282 101 282 101 247 c 2,63,-1
 101 35 l 1,0,1
160 178 m 256,64,65
 160 164 160 164 169.5 153.5 c 128,-1,66
 179 143 179 143 193 143 c 256,67,68
 207 143 207 143 217 153.5 c 128,-1,69
 227 164 227 164 227 178 c 256,70,71
 227 192 227 192 217 202.5 c 128,-1,72
 207 213 207 213 193 213 c 256,73,74
 179 213 179 213 169.5 202.5 c 128,-1,75
 160 192 160 192 160 178 c 256,64,65
281 69 m 0,76,77
 282 53 282 53 294 42.5 c 128,-1,78
 306 32 306 32 323 32 c 1,79,-1
 323 106 l 1,80,-1
 318 106 l 2,81,82
 304 106 304 106 293 94.5 c 128,-1,83
 282 83 282 83 281 69 c 0,76,77
EndSplineSet
EndChar
StartChar: uni0E13
Encoding: 3603 3603 230
Width: 569
Flags: W
Fore
113 125 m 1,0,1
 118 127 118 127 122.5 127.5 c 128,-1,2
 127 128 127 128 132 128 c 0,3,4
 157 128 157 128 176 109 c 128,-1,5
 195 90 195 90 195 64 c 0,6,7
 195 40 195 40 176 20 c 128,-1,8
 157 0 157 0 132 0 c 0,9,10
 109 0 109 0 90 15 c 128,-1,11
 71 30 71 30 68 53 c 2,12,-1
 68 207 l 2,13,14
 68 225 68 225 55 241.5 c 128,-1,15
 42 258 42 258 24 260 c 1,16,17
 27 288 27 288 40.5 313 c 128,-1,18
 54 338 54 338 74.5 356.5 c 128,-1,19
 95 375 95 375 121 385.5 c 128,-1,20
 147 396 147 396 175 396 c 2,21,-1
 236 396 l 2,22,23
 255 396 255 396 273 387.5 c 128,-1,24
 291 379 291 379 305.5 365.5 c 128,-1,25
 320 352 320 352 328.5 333.5 c 128,-1,26
 337 315 337 315 337 296 c 2,27,-1
 337 49 l 1,28,29
 349 62 349 62 365.5 76 c 128,-1,30
 382 90 382 90 400 103 c 128,-1,31
 418 116 418 116 436.5 126 c 128,-1,32
 455 136 455 136 470 142 c 1,33,-1
 470 396 l 1,34,-1
 515 396 l 1,35,-1
 515 136 l 1,36,37
 535 129 535 129 549 110.5 c 128,-1,38
 563 92 563 92 563 69 c 0,39,40
 563 41 563 41 541.5 20.5 c 128,-1,41
 520 0 520 0 493 0 c 0,42,43
 464 0 464 0 443.5 21 c 128,-1,44
 423 42 423 42 423 70 c 2,45,-1
 423 77 l 1,46,47
 386 52 386 52 337 0 c 1,48,-1
 292 0 l 1,49,-1
 292 296 l 2,50,51
 292 319 292 319 275 337.5 c 128,-1,52
 258 356 258 356 236 356 c 2,53,-1
 173 356 l 2,54,55
 158 356 158 356 143 349.5 c 128,-1,56
 128 343 128 343 115.5 332 c 128,-1,57
 103 321 103 321 93 307.5 c 128,-1,58
 83 294 83 294 78 280 c 1,59,60
 98 264 98 264 105.5 245 c 128,-1,61
 113 226 113 226 113 206 c 2,62,-1
 113 125 l 1,0,1
97 64 m 0,63,64
 97 51 97 51 107 40 c 128,-1,65
 117 29 117 29 132 29 c 0,66,67
 146 29 146 29 156 40 c 128,-1,68
 166 51 166 51 166 64 c 0,69,70
 166 78 166 78 155.5 88.5 c 128,-1,71
 145 99 145 99 132 99 c 0,72,73
 118 99 118 99 107.5 88.5 c 128,-1,74
 97 78 97 78 97 64 c 0,63,64
531 70 m 0,75,76
 531 85 531 85 519.5 96.5 c 128,-1,77
 508 108 508 108 492 108 c 0,78,79
 477 108 477 108 465.5 96.5 c 128,-1,80
 454 85 454 85 454 70 c 0,81,82
 454 56 454 56 465 44 c 128,-1,83
 476 32 476 32 493 32 c 0,84,85
 508 32 508 32 519.5 44 c 128,-1,86
 531 56 531 56 531 70 c 0,75,76
EndSplineSet
EndChar
StartChar: uni0E14
Encoding: 3604 3604 231
Width: 424
Flags: W
Fore
211 117 m 0,0,1
 226 117 226 117 236 127 c 128,-1,2
 246 137 246 137 246 151 c 256,3,4
 246 165 246 165 235.5 176 c 128,-1,5
 225 187 225 187 211 187 c 256,6,7
 197 187 197 187 186.5 176 c 128,-1,8
 176 165 176 165 176 152 c 0,9,10
 176 138 176 138 186.5 127.5 c 128,-1,11
 197 117 197 117 211 117 c 0,0,1
210 90 m 1,12,13
 181 90 181 90 164.5 108.5 c 128,-1,14
 148 127 148 127 148 152 c 256,15,16
 148 177 148 177 167 196 c 128,-1,17
 186 215 186 215 211 215 c 0,18,19
 234 215 234 215 253 196.5 c 128,-1,20
 272 178 272 178 272 152 c 0,21,22
 272 124 272 124 256 96.5 c 128,-1,23
 240 69 240 69 215 47.5 c 128,-1,24
 190 26 190 26 159.5 13 c 128,-1,25
 129 0 129 0 100 0 c 2,26,-1
 54 0 l 1,27,-1
 54 245 l 2,28,29
 54 274 54 274 67 301.5 c 128,-1,30
 80 329 80 329 101 350 c 128,-1,31
 122 371 122 371 149.5 383.5 c 128,-1,32
 177 396 177 396 206 396 c 2,33,-1
 269 396 l 2,34,35
 289 396 289 396 307 388 c 128,-1,36
 325 380 325 380 339 366 c 128,-1,37
 353 352 353 352 361.5 333.5 c 128,-1,38
 370 315 370 315 370 294 c 2,39,-1
 370 0 l 1,40,-1
 324 0 l 1,41,-1
 324 297 l 2,42,43
 324 307 324 307 319 318 c 128,-1,44
 314 329 314 329 306.5 337 c 128,-1,45
 299 345 299 345 289 350.5 c 128,-1,46
 279 356 279 356 269 356 c 2,47,-1
 204 356 l 2,48,49
 183 356 183 356 164.5 346 c 128,-1,50
 146 336 146 336 131.5 320 c 128,-1,51
 117 304 117 304 108.5 283.5 c 128,-1,52
 100 263 100 263 100 243 c 2,53,-1
 100 35 l 1,54,55
 129 35 129 35 159 50.5 c 128,-1,56
 189 66 189 66 210 90 c 1,12,13
EndSplineSet
EndChar
StartChar: uni0E15
Encoding: 3605 3605 232
Width: 423
Flags: W
Fore
325 295 m 2,0,1
 325 312 325 312 313.5 326.5 c 128,-1,2
 302 341 302 341 282 346 c 1,3,-1
 236 288 l 1,4,-1
 182 345 l 1,5,6
 165 341 165 341 150 331 c 128,-1,7
 135 321 135 321 124 307.5 c 128,-1,8
 113 294 113 294 106 277.5 c 128,-1,9
 99 261 99 261 99 243 c 2,10,-1
 99 35 l 1,11,12
 112 35 112 35 128 39 c 128,-1,13
 144 43 144 43 159 50 c 128,-1,14
 174 57 174 57 187.5 67 c 128,-1,15
 201 77 201 77 210 88 c 1,16,17
 178 90 178 90 163 109.5 c 128,-1,18
 148 129 148 129 148 151 c 0,19,20
 148 177 148 177 166.5 195.5 c 128,-1,21
 185 214 185 214 211 214 c 256,22,23
 237 214 237 214 254.5 195.5 c 128,-1,24
 272 177 272 177 272 152 c 0,25,26
 272 122 272 122 256 94.5 c 128,-1,27
 240 67 240 67 215 46 c 128,-1,28
 190 25 190 25 159.5 12.5 c 128,-1,29
 129 0 129 0 99 0 c 2,30,-1
 54 0 l 1,31,-1
 54 243 l 2,32,33
 54 271 54 271 66 298 c 128,-1,34
 78 325 78 325 97.5 347 c 128,-1,35
 117 369 117 369 142 382.5 c 128,-1,36
 167 396 167 396 193 396 c 1,37,-1
 236 349 l 1,38,-1
 275 397 l 1,39,40
 293 394 293 394 310 384.5 c 128,-1,41
 327 375 327 375 340.5 361.5 c 128,-1,42
 354 348 354 348 362 331 c 128,-1,43
 370 314 370 314 370 295 c 2,44,-1
 370 0 l 1,45,-1
 325 0 l 1,46,-1
 325 295 l 2,0,1
177 151 m 0,47,48
 177 138 177 138 187 127.5 c 128,-1,49
 197 117 197 117 211 117 c 256,50,51
 225 117 225 117 235.5 127 c 128,-1,52
 246 137 246 137 246 151 c 256,53,54
 246 165 246 165 235.5 175.5 c 128,-1,55
 225 186 225 186 211 186 c 256,56,57
 197 186 197 186 187 175.5 c 128,-1,58
 177 165 177 165 177 151 c 0,47,48
EndSplineSet
EndChar
StartChar: uni0E16
Encoding: 3606 3606 233
Width: 393
Flags: W
Fore
99 64 m 0,0,1
 99 50 99 50 109.5 39 c 128,-1,2
 120 28 120 28 134 28 c 256,3,4
 148 28 148 28 158 38.5 c 128,-1,5
 168 49 168 49 168 64 c 0,6,7
 168 77 168 77 158 87.5 c 128,-1,8
 148 98 148 98 134 98 c 256,9,10
 120 98 120 98 109.5 87 c 128,-1,11
 99 76 99 76 99 64 c 0,0,1
339 0 m 1,12,-1
 294 0 l 1,13,-1
 294 296 l 2,14,15
 294 319 294 319 277 337.5 c 128,-1,16
 260 356 260 356 238 356 c 2,17,-1
 175 356 l 2,18,19
 160 356 160 356 145 349.5 c 128,-1,20
 130 343 130 343 117.5 332 c 128,-1,21
 105 321 105 321 95 307.5 c 128,-1,22
 85 294 85 294 80 280 c 1,23,24
 100 264 100 264 107.5 245 c 128,-1,25
 115 226 115 226 115 206 c 2,26,-1
 115 124 l 1,27,28
 120 126 120 126 124.5 126 c 128,-1,29
 129 126 129 126 134 126 c 0,30,31
 146 126 146 126 157.5 120.5 c 128,-1,32
 169 115 169 115 178 106.5 c 128,-1,33
 187 98 187 98 192.5 87 c 128,-1,34
 198 76 198 76 198 64 c 0,35,36
 198 37 198 37 179 18.5 c 128,-1,37
 160 0 160 0 134 0 c 0,38,39
 112 0 112 0 92.5 15 c 128,-1,40
 73 30 73 30 70 52 c 2,41,-1
 70 207 l 2,42,43
 70 225 70 225 57 241.5 c 128,-1,44
 44 258 44 258 26 260 c 1,45,46
 29 288 29 288 42.5 313 c 128,-1,47
 56 338 56 338 76.5 356.5 c 128,-1,48
 97 375 97 375 123 385.5 c 128,-1,49
 149 396 149 396 177 396 c 2,50,-1
 238 396 l 2,51,52
 257 396 257 396 275 387.5 c 128,-1,53
 293 379 293 379 307.5 365.5 c 128,-1,54
 322 352 322 352 330.5 333.5 c 128,-1,55
 339 315 339 315 339 296 c 2,56,-1
 339 0 l 1,12,-1
EndSplineSet
EndChar
StartChar: uni0E17
Encoding: 3607 3607 234
Width: 447
Flags: W
Fore
279 396 m 1,0,1
 300 396 300 396 321 389 c 128,-1,2
 342 382 342 382 358.5 368.5 c 128,-1,3
 375 355 375 355 385 336 c 128,-1,4
 395 317 395 317 395 294 c 2,5,-1
 395 0 l 1,6,-1
 350 0 l 1,7,-1
 350 294 l 2,8,9
 350 312 350 312 335 327.5 c 128,-1,10
 320 343 320 343 300 347 c 1,11,-1
 150 0 l 1,12,-1
 105 0 l 1,13,-1
 105 274 l 1,14,15
 97 271 97 271 89 271 c 0,16,17
 65 271 65 271 46 289 c 128,-1,18
 27 307 27 307 27 333 c 0,19,20
 27 358 27 358 46 376 c 128,-1,21
 65 394 65 394 89 394 c 256,22,23
 113 394 113 394 131.5 376.5 c 128,-1,24
 150 359 150 359 150 334 c 2,25,-1
 150 99 l 1,26,-1
 279 396 l 1,0,1
89 366 m 256,27,28
 76 366 76 366 65.5 356.5 c 128,-1,29
 55 347 55 347 55 333 c 256,30,31
 55 319 55 319 65 309 c 128,-1,32
 75 299 75 299 89 299 c 256,33,34
 103 299 103 299 113 309 c 128,-1,35
 123 319 123 319 123 333 c 0,36,37
 123 346 123 346 112.5 356 c 128,-1,38
 102 366 102 366 89 366 c 256,27,28
EndSplineSet
EndChar
StartChar: uni0E18
Encoding: 3608 3608 235
Width: 347
Flags: W
Fore
111 235 m 1,0,-1
 111 40 l 1,1,-1
 194 40 l 2,2,3
 216 40 216 40 233 60.5 c 128,-1,4
 250 81 250 81 250 103 c 2,5,-1
 250 208 l 1,6,7
 212 229 212 229 158.5 245 c 128,-1,8
 105 261 105 261 37 272 c 1,9,10
 37 296 37 296 44 321 c 128,-1,11
 51 346 51 346 70 366 c 0,12,13
 100 396 100 396 143 396 c 0,14,15
 157 396 157 396 171 391.5 c 128,-1,16
 185 387 185 387 199.5 381 c 128,-1,17
 214 375 214 375 228 369.5 c 128,-1,18
 242 364 242 364 256 363 c 1,19,20
 274 365 274 365 290.5 376 c 128,-1,21
 307 387 307 387 318 401 c 1,22,-1
 318 359 l 1,23,24
 295 326 295 326 257 326 c 0,25,26
 242 326 242 326 228 330.5 c 128,-1,27
 214 335 214 335 200 341 c 128,-1,28
 186 347 186 347 171.5 351.5 c 128,-1,29
 157 356 157 356 142 356 c 0,30,31
 130 356 130 356 118.5 352.5 c 128,-1,32
 107 349 107 349 99 339 c 0,33,34
 90 328 90 328 85 320.5 c 128,-1,35
 80 313 80 313 80 301 c 1,36,37
 137 293 137 293 190 275 c 128,-1,38
 243 257 243 257 295 228 c 1,39,-1
 295 101 l 2,40,41
 295 81 295 81 286.5 63 c 128,-1,42
 278 45 278 45 263.5 31 c 128,-1,43
 249 17 249 17 230.5 8.5 c 128,-1,44
 212 0 212 0 192 0 c 2,45,-1
 112 0 l 2,46,47
 95 0 95 0 80.5 13 c 128,-1,48
 66 26 66 26 66 46 c 2,49,-1
 66 235 l 1,50,-1
 111 235 l 1,0,-1
EndSplineSet
EndChar
StartChar: uni0E19
Encoding: 3609 3609 236
Width: 406
Flags: W
Fore
89 396 m 256,0,1
 113 396 113 396 132 379 c 128,-1,2
 151 362 151 362 151 337 c 2,3,-1
 151 56 l 1,4,5
 177 85 177 85 218.5 111 c 128,-1,6
 260 137 260 137 305 142 c 1,7,-1
 305 396 l 1,8,-1
 351 396 l 1,9,-1
 351 137 l 1,10,11
 372 130 372 130 385 112 c 128,-1,12
 398 94 398 94 398 71 c 0,13,14
 398 42 398 42 377 21 c 128,-1,15
 356 0 356 0 328 0 c 256,16,17
 300 0 300 0 279.5 21 c 128,-1,18
 259 42 259 42 259 71 c 0,19,20
 259 76 259 76 259.5 81 c 128,-1,21
 260 86 260 86 261 91 c 1,22,23
 231 80 231 80 203 53.5 c 128,-1,24
 175 27 175 27 151 0 c 1,25,-1
 105 0 l 1,26,-1
 105 276 l 1,27,28
 100 274 100 274 89 274 c 0,29,30
 66 274 66 274 46.5 292.5 c 128,-1,31
 27 311 27 311 27 335 c 0,32,33
 27 361 27 361 46 378.5 c 128,-1,34
 65 396 65 396 89 396 c 256,0,1
89 369 m 256,35,36
 75 369 75 369 65 359 c 128,-1,37
 55 349 55 349 55 335 c 256,38,39
 55 321 55 321 65.5 311.5 c 128,-1,40
 76 302 76 302 89 302 c 0,41,42
 103 302 103 302 113 311.5 c 128,-1,43
 123 321 123 321 123 335 c 256,44,45
 123 349 123 349 113 359 c 128,-1,46
 103 369 103 369 89 369 c 256,35,36
328 109 m 0,47,48
 314 109 314 109 302 97 c 128,-1,49
 290 85 290 85 290 71 c 0,50,51
 290 56 290 56 301 44.5 c 128,-1,52
 312 33 312 33 328 33 c 0,53,54
 343 33 343 33 354.5 44 c 128,-1,55
 366 55 366 55 366 71 c 0,56,57
 366 88 366 88 355 98 c 128,-1,58
 344 108 344 108 328 109 c 0,47,48
EndSplineSet
EndChar
StartChar: uni0E1A
Encoding: 3610 3610 237
Width: 433
Flags: W
Fore
278 40 m 2,0,1
 299 40 299 40 316 58.5 c 128,-1,2
 333 77 333 77 333 99 c 2,3,-1
 333 396 l 1,4,-1
 378 396 l 1,5,-1
 378 96 l 2,6,7
 378 76 378 76 370 58.5 c 128,-1,8
 362 41 362 41 348 28 c 128,-1,9
 334 15 334 15 316 7.5 c 128,-1,10
 298 0 298 0 278 0 c 2,11,-1
 150 0 l 2,12,13
 133 0 133 0 120.5 13.5 c 128,-1,14
 108 27 108 27 108 44 c 2,15,-1
 108 269 l 1,16,17
 98 267 98 267 90 267 c 0,18,19
 64 267 64 267 45.5 286.5 c 128,-1,20
 27 306 27 306 27 332 c 0,21,22
 27 356 27 356 46 376 c 128,-1,23
 65 396 65 396 90 396 c 0,24,25
 116 396 116 396 134.5 376.5 c 128,-1,26
 153 357 153 357 153 331 c 2,27,-1
 153 40 l 1,28,-1
 278 40 l 2,0,1
90 366 m 0,29,30
 77 366 77 366 66.5 355.5 c 128,-1,31
 56 345 56 345 56 331 c 256,32,33
 56 317 56 317 66 307 c 128,-1,34
 76 297 76 297 90 297 c 256,35,36
 104 297 104 297 114.5 306.5 c 128,-1,37
 125 316 125 316 125 331 c 0,38,39
 125 345 125 345 114.5 355.5 c 128,-1,40
 104 366 104 366 90 366 c 0,29,30
EndSplineSet
EndChar
StartChar: uni0E1B
Encoding: 3611 3611 238
Width: 433
Flags: W
Fore
378 593 m 1,0,-1
 378 98 l 2,1,2
 378 78 378 78 370 60.5 c 128,-1,3
 362 43 362 43 348.5 29.5 c 128,-1,4
 335 16 335 16 316.5 8 c 128,-1,5
 298 0 298 0 278 0 c 2,6,-1
 155 0 l 2,7,8
 138 0 138 0 123 13.5 c 128,-1,9
 108 27 108 27 108 46 c 2,10,-1
 108 272 l 1,11,12
 99 269 99 269 90 269 c 0,13,14
 64 269 64 269 45 288 c 128,-1,15
 26 307 26 307 26 333 c 0,16,17
 26 358 26 358 45.5 377 c 128,-1,18
 65 396 65 396 90 396 c 256,19,20
 115 396 115 396 134 377.5 c 128,-1,21
 153 359 153 359 153 333 c 2,22,-1
 153 40 l 1,23,-1
 278 40 l 2,24,25
 300 40 300 40 316.5 59.5 c 128,-1,26
 333 79 333 79 333 101 c 2,27,-1
 333 593 l 1,28,-1
 378 593 l 1,0,-1
90 298 m 256,29,30
 104 298 104 298 114 308.5 c 128,-1,31
 124 319 124 319 124 333 c 256,32,33
 124 347 124 347 114 357.5 c 128,-1,34
 104 368 104 368 90 368 c 0,35,36
 77 368 77 368 66 357 c 128,-1,37
 55 346 55 346 55 333 c 0,38,39
 55 319 55 319 65.5 308.5 c 128,-1,40
 76 298 76 298 90 298 c 256,29,30
EndSplineSet
KernsSLIFO: 275 20 0 0 274 60 0 0 273 -20 0 0
EndChar
StartChar: uni0E1C
Encoding: 3612 3612 239
Width: 422
Flags: W
Fore
369 75 m 2,0,1
 369 65 369 65 367.5 52.5 c 128,-1,2
 366 40 366 40 360.5 29 c 128,-1,3
 355 18 355 18 344.5 9.5 c 128,-1,4
 334 1 334 1 316 0 c 1,5,-1
 214 137 l 1,6,-1
 100 0 l 1,7,8
 80 0 80 0 67.5 16 c 128,-1,9
 55 32 55 32 55 51 c 2,10,-1
 55 334 l 2,11,12
 55 359 55 359 74 377.5 c 128,-1,13
 93 396 93 396 118 396 c 256,14,15
 143 396 143 396 162.5 377 c 128,-1,16
 182 358 182 358 182 332 c 0,17,18
 182 307 182 307 162.5 288 c 128,-1,19
 143 269 143 269 118 269 c 0,20,21
 113 269 113 269 109 269 c 128,-1,22
 105 269 105 269 100 271 c 1,23,-1
 100 57 l 1,24,-1
 208 187 l 1,25,26
 221 187 221 187 231 174 c 2,27,-1
 318 60 l 1,28,29
 324 66 324 66 324 82 c 2,30,-1
 324 396 l 1,31,-1
 369 396 l 1,32,-1
 369 75 l 2,0,1
118 367 m 256,33,34
 104 367 104 367 94 357 c 128,-1,35
 84 347 84 347 84 332 c 0,36,37
 84 318 84 318 94 308 c 128,-1,38
 104 298 104 298 118 298 c 256,39,40
 132 298 132 298 142.5 308 c 128,-1,41
 153 318 153 318 153 332 c 256,42,43
 153 346 153 346 142.5 356.5 c 128,-1,44
 132 367 132 367 118 367 c 256,33,34
EndSplineSet
EndChar
StartChar: uni0E1D
Encoding: 3613 3613 240
Width: 424
Flags: W
Fore
369 76 m 2,0,1
 369 66 369 66 367.5 53.5 c 128,-1,2
 366 41 366 41 360.5 30 c 128,-1,3
 355 19 355 19 344.5 10.5 c 128,-1,4
 334 2 334 2 316 1 c 1,5,-1
 214 138 l 1,6,-1
 100 1 l 1,7,8
 80 1 80 1 67.5 17 c 128,-1,9
 55 33 55 33 55 52 c 2,10,-1
 55 334 l 2,11,12
 55 360 55 360 74 378 c 128,-1,13
 93 396 93 396 119 396 c 0,14,15
 144 396 144 396 163 377.5 c 128,-1,16
 182 359 182 359 182 333 c 0,17,18
 182 308 182 308 163 288.5 c 128,-1,19
 144 269 144 269 119 269 c 0,20,21
 109 269 109 269 100 272 c 1,22,-1
 100 58 l 1,23,-1
 208 188 l 1,24,25
 221 188 221 188 231 175 c 2,26,-1
 318 61 l 1,27,28
 324 67 324 67 324 83 c 2,29,-1
 324 593 l 1,30,-1
 369 593 l 1,31,-1
 369 76 l 2,0,1
119 368 m 0,32,33
 105 368 105 368 94.5 357.5 c 128,-1,34
 84 347 84 347 84 333 c 256,35,36
 84 319 84 319 94.5 308.5 c 128,-1,37
 105 298 105 298 119 298 c 0,38,39
 132 298 132 298 142.5 308.5 c 128,-1,40
 153 319 153 319 153 333 c 256,41,42
 153 347 153 347 142.5 357.5 c 128,-1,43
 132 368 132 368 119 368 c 0,32,33
EndSplineSet
KernsSLIFO: 275 20 0 0 274 60 0 0 273 -20 0 0
EndChar
StartChar: uni0E1E
Encoding: 3614 3614 241
Width: 468
Flags: W
Fore
416 100 m 2,0,1
 416 83 416 83 411.5 66 c 128,-1,2
 407 49 407 49 398.5 35 c 128,-1,3
 390 21 390 21 377.5 11 c 128,-1,4
 365 1 365 1 349 -2 c 1,5,-1
 263 295 l 1,6,7
 234 211 234 211 207 135.5 c 128,-1,8
 180 60 180 60 156 0 c 1,9,10
 136 0 136 0 121 11 c 128,-1,11
 106 22 106 22 106 44 c 2,12,-1
 106 274 l 1,13,14
 97 271 97 271 88 271 c 0,15,16
 63 271 63 271 44.5 290 c 128,-1,17
 26 309 26 309 26 334 c 0,18,19
 26 360 26 360 44.5 378 c 128,-1,20
 63 396 63 396 88 396 c 256,21,22
 113 396 113 396 132 377.5 c 128,-1,23
 151 359 151 359 151 334 c 2,24,-1
 151 85 l 1,25,-1
 260 391 l 1,26,27
 270 388 270 388 275 376 c 2,28,-1
 366 74 l 1,29,30
 370 78 370 78 370.5 84 c 128,-1,31
 371 90 371 90 371 95 c 2,32,-1
 371 396 l 1,33,-1
 416 396 l 1,34,-1
 416 100 l 2,0,1
88 368 m 256,35,36
 74 368 74 368 64 357.5 c 128,-1,37
 54 347 54 347 54 334 c 0,38,39
 54 322 54 322 64 311 c 128,-1,40
 74 300 74 300 88 300 c 256,41,42
 102 300 102 300 112 310.5 c 128,-1,43
 122 321 122 321 122 334 c 0,44,45
 122 348 122 348 112 358 c 128,-1,46
 102 368 102 368 88 368 c 256,35,36
EndSplineSet
EndChar
StartChar: uni0E1F
Encoding: 3615 3615 242
Width: 468
Flags: W
Fore
106 274 m 1,0,1
 97 271 97 271 88 271 c 0,2,3
 63 271 63 271 44.5 290 c 128,-1,4
 26 309 26 309 26 334 c 0,5,6
 26 360 26 360 44.5 378 c 128,-1,7
 63 396 63 396 88 396 c 256,8,9
 113 396 113 396 132 377.5 c 128,-1,10
 151 359 151 359 151 334 c 2,11,-1
 151 85 l 1,12,-1
 260 391 l 1,13,14
 270 388 270 388 275 376 c 2,15,-1
 366 74 l 1,16,17
 370 78 370 78 370.5 84 c 128,-1,18
 371 90 371 90 371 95 c 2,19,-1
 371 593 l 1,20,-1
 416 593 l 1,21,-1
 416 100 l 2,22,23
 416 83 416 83 411.5 66 c 128,-1,24
 407 49 407 49 398.5 35 c 128,-1,25
 390 21 390 21 377.5 11 c 128,-1,26
 365 1 365 1 349 -2 c 1,27,-1
 263 295 l 1,28,29
 234 211 234 211 207 135.5 c 128,-1,30
 180 60 180 60 156 0 c 1,31,32
 136 0 136 0 121 11 c 128,-1,33
 106 22 106 22 106 44 c 2,34,-1
 106 274 l 1,0,1
88 368 m 256,35,36
 74 368 74 368 64 357.5 c 128,-1,37
 54 347 54 347 54 334 c 0,38,39
 54 322 54 322 64 311 c 128,-1,40
 74 300 74 300 88 300 c 256,41,42
 102 300 102 300 112 310.5 c 128,-1,43
 122 321 122 321 122 334 c 0,44,45
 122 348 122 348 112 358 c 128,-1,46
 102 368 102 368 88 368 c 256,35,36
EndSplineSet
KernsSLIFO: 275 20 0 0 274 60 0 0 273 -20 0 0
EndChar
StartChar: uni0E20
Encoding: 3616 3616 243
Width: 407
Flags: W
Fore
153 60 m 2,0,1
 153 36 153 36 133.5 18 c 128,-1,2
 114 0 114 0 90 0 c 0,3,4
 64 0 64 0 45.5 19.5 c 128,-1,5
 27 39 27 39 27 63 c 0,6,7
 27 89 27 89 46 108 c 128,-1,8
 65 127 65 127 90 127 c 0,9,10
 99 127 99 127 108 124 c 1,11,-1
 108 206 l 2,12,13
 108 214 108 214 102 223.5 c 128,-1,14
 96 233 96 233 86.5 241.5 c 128,-1,15
 77 250 77 250 65 256 c 128,-1,16
 53 262 53 262 42 263 c 1,17,18
 45 291 45 291 58.5 315.5 c 128,-1,19
 72 340 72 340 92.5 358 c 128,-1,20
 113 376 113 376 139 386 c 128,-1,21
 165 396 165 396 193 396 c 2,22,-1
 254 396 l 2,23,24
 273 396 273 396 291 387.5 c 128,-1,25
 309 379 309 379 323.5 365.5 c 128,-1,26
 338 352 338 352 346.5 333.5 c 128,-1,27
 355 315 355 315 355 296 c 2,28,-1
 355 0 l 1,29,-1
 310 0 l 1,30,-1
 310 296 l 2,31,32
 310 319 310 319 293 337.5 c 128,-1,33
 276 356 276 356 254 356 c 2,34,-1
 191 356 l 2,35,36
 160 356 160 356 133.5 333.5 c 128,-1,37
 107 311 107 311 96 283 c 1,38,39
 105 280 105 280 115 272.5 c 128,-1,40
 125 265 125 265 133.5 254.5 c 128,-1,41
 142 244 142 244 147.5 232 c 128,-1,42
 153 220 153 220 153 207 c 2,43,-1
 153 60 l 2,0,1
55 63 m 1,44,45
 56 49 56 49 66 39 c 128,-1,46
 76 29 76 29 90 29 c 256,47,48
 104 29 104 29 114.5 39 c 128,-1,49
 125 49 125 49 125 63 c 256,50,51
 125 77 125 77 114.5 87.5 c 128,-1,52
 104 98 104 98 90 98 c 256,53,54
 76 98 76 98 66 87.5 c 128,-1,55
 56 77 56 77 55 63 c 1,44,45
EndSplineSet
EndChar
StartChar: uni0E21
Encoding: 3617 3617 244
Width: 414
Flags: W
Fore
362 396 m 1,0,-1
 362 0 l 1,1,-1
 317 0 l 1,2,3
 288 42 288 42 247.5 67 c 128,-1,4
 207 92 207 92 161 103 c 1,5,-1
 161 30 l 1,6,7
 153 16 153 16 143.5 8 c 128,-1,8
 134 0 134 0 108 0 c 0,9,10
 81 0 81 0 59.5 21 c 128,-1,11
 38 42 38 42 38 70 c 256,12,13
 38 98 38 98 59.5 118.5 c 128,-1,14
 81 139 81 139 108 139 c 2,15,-1
 116 139 l 1,16,-1
 116 276 l 1,17,18
 108 273 108 273 100 273 c 0,19,20
 75 273 75 273 56.5 292 c 128,-1,21
 38 311 38 311 38 335 c 0,22,23
 38 360 38 360 56 378 c 128,-1,24
 74 396 74 396 100 396 c 0,25,26
 123 396 123 396 142 378.5 c 128,-1,27
 161 361 161 361 161 337 c 2,28,-1
 161 136 l 1,29,30
 271 107 271 107 317 51 c 1,31,-1
 317 396 l 1,32,-1
 362 396 l 1,0,-1
108 107 m 2,33,34
 91 107 91 107 80 95.5 c 128,-1,35
 69 84 69 84 69 70 c 0,36,37
 69 53 69 53 84 41.5 c 128,-1,38
 99 30 99 30 116 30 c 1,39,-1
 116 107 l 1,40,-1
 108 107 l 2,33,34
134 335 m 256,41,42
 134 349 134 349 124 359 c 128,-1,43
 114 369 114 369 100 369 c 256,44,45
 86 369 86 369 76 359 c 128,-1,46
 66 349 66 349 66 335 c 0,47,48
 66 322 66 322 76 311.5 c 128,-1,49
 86 301 86 301 100 301 c 256,50,51
 114 301 114 301 124 311 c 128,-1,52
 134 321 134 321 134 335 c 256,41,42
EndSplineSet
EndChar
StartChar: uni0E22
Encoding: 3618 3618 245
Width: 421
Flags: W
Fore
369 95 m 2,0,1
 369 75 369 75 361 57.5 c 128,-1,2
 353 40 353 40 339 27 c 128,-1,3
 325 14 325 14 306.5 7 c 128,-1,4
 288 0 288 0 268 0 c 2,5,-1
 116 0 l 2,6,7
 96 0 96 0 82 12.5 c 128,-1,8
 68 25 68 25 66 45 c 2,9,-1
 66 73 l 2,10,11
 66 100 66 100 72 118.5 c 128,-1,12
 78 137 78 137 87 153 c 0,13,14
 92 161 92 161 99 168 c 128,-1,15
 106 175 106 175 118 180 c 1,16,17
 100 185 100 185 86 198.5 c 128,-1,18
 72 212 72 212 67 225 c 0,19,20
 56 252 56 252 56 282 c 0,21,22
 56 301 56 301 62 321 c 128,-1,23
 68 341 68 341 79.5 357.5 c 128,-1,24
 91 374 91 374 108 385 c 128,-1,25
 125 396 125 396 147 396 c 2,26,-1
 155 396 l 2,27,28
 180 396 180 396 199.5 377 c 128,-1,29
 219 358 219 358 219 333 c 0,30,31
 219 307 219 307 200 288.5 c 128,-1,32
 181 270 181 270 155 270 c 0,33,34
 138 270 138 270 123 278 c 128,-1,35
 108 286 108 286 99 300 c 1,36,37
 98 295 98 295 98 285 c 0,38,39
 98 271 98 271 100 258.5 c 128,-1,40
 102 246 102 246 110 235 c 0,41,42
 114 228 114 228 124.5 222 c 128,-1,43
 135 216 135 216 147.5 211 c 128,-1,44
 160 206 160 206 174 203 c 128,-1,45
 188 200 188 200 200 200 c 1,46,-1
 200 164 l 1,47,48
 177 164 177 164 155 155.5 c 128,-1,49
 133 147 133 147 122 125 c 0,50,51
 111 101 111 101 111 73 c 2,52,-1
 111 40 l 1,53,-1
 271 40 l 2,54,55
 292 40 292 40 308 57 c 128,-1,56
 324 74 324 74 324 95 c 2,57,-1
 324 396 l 1,58,-1
 369 396 l 1,59,-1
 369 95 l 2,0,1
155 368 m 256,60,61
 139 368 139 368 130 357.5 c 128,-1,62
 121 347 121 347 121 333 c 256,63,64
 121 319 121 319 131 308.5 c 128,-1,65
 141 298 141 298 155 298 c 256,66,67
 169 298 169 298 179.5 308.5 c 128,-1,68
 190 319 190 319 190 333 c 256,69,70
 190 347 190 347 180.5 357.5 c 128,-1,71
 171 368 171 368 155 368 c 256,60,61
EndSplineSet
EndChar
StartChar: uni0E23
Encoding: 3619 3619 246
Width: 357
Flags: W
Fore
219 124 m 0,0,1
 222 124 222 124 226 124 c 128,-1,2
 230 124 230 124 235 123 c 1,3,-1
 235 206 l 1,4,5
 198 227 198 227 145 242.5 c 128,-1,6
 92 258 92 258 26 269 c 1,7,8
 26 294 26 294 34 320.5 c 128,-1,9
 42 347 42 347 62 365 c 0,10,11
 96 395 96 395 141 395 c 0,12,13
 156 395 156 395 171 390.5 c 128,-1,14
 186 386 186 386 201 380.5 c 128,-1,15
 216 375 216 375 231 370 c 128,-1,16
 246 365 246 365 261 363 c 1,17,18
 293 365 293 365 327 400 c 1,19,-1
 327 358 l 1,20,21
 313 342 313 342 296.5 333 c 128,-1,22
 280 324 280 324 262 324 c 0,23,24
 246 325 246 325 230.5 329.5 c 128,-1,25
 215 334 215 334 199.5 339.5 c 128,-1,26
 184 345 184 345 169 349.5 c 128,-1,27
 154 354 154 354 138 354 c 0,28,29
 126 354 126 354 114 349.5 c 128,-1,30
 102 345 102 345 92 337 c 256,31,32
 82 329 82 329 76 318 c 128,-1,33
 70 307 70 307 70 295 c 1,34,35
 179 280 179 280 280 224 c 1,36,-1
 280 62 l 2,37,38
 280 37 280 37 262 18.5 c 128,-1,39
 244 0 244 0 219 0 c 256,40,41
 194 0 194 0 175 18.5 c 128,-1,42
 156 37 156 37 156 62 c 0,43,44
 156 74 156 74 161.5 85 c 128,-1,45
 167 96 167 96 175.5 104.5 c 128,-1,46
 184 113 184 113 195.5 118.5 c 128,-1,47
 207 124 207 124 219 124 c 0,0,1
185 62 m 0,48,49
 185 47 185 47 195 37.5 c 128,-1,50
 205 28 205 28 219 28 c 256,51,52
 233 28 233 28 242.5 38 c 128,-1,53
 252 48 252 48 253 62 c 0,54,55
 253 76 253 76 243 86 c 128,-1,56
 233 96 233 96 219 96 c 0,57,58
 206 96 206 96 195.5 86 c 128,-1,59
 185 76 185 76 185 62 c 0,48,49
EndSplineSet
EndChar
StartChar: uni0E24
Encoding: 3620 3620 247
Width: 393
Flags: W
Fore
71 207 m 2,0,1
 71 225 71 225 58 241.5 c 128,-1,2
 45 258 45 258 27 260 c 1,3,4
 30 288 30 288 43.5 313 c 128,-1,5
 57 338 57 338 77.5 356.5 c 128,-1,6
 98 375 98 375 124 385.5 c 128,-1,7
 150 396 150 396 178 396 c 2,8,-1
 239 396 l 2,9,10
 258 396 258 396 276 387.5 c 128,-1,11
 294 379 294 379 308.5 365.5 c 128,-1,12
 323 352 323 352 331.5 333.5 c 128,-1,13
 340 315 340 315 340 296 c 2,14,-1
 340 -165 l 1,15,-1
 295 -165 l 1,16,-1
 295 296 l 2,17,18
 295 319 295 319 278 337.5 c 128,-1,19
 261 356 261 356 239 356 c 2,20,-1
 176 356 l 2,21,22
 161 356 161 356 146 349.5 c 128,-1,23
 131 343 131 343 118.5 332 c 128,-1,24
 106 321 106 321 96 307.5 c 128,-1,25
 86 294 86 294 81 280 c 1,26,27
 101 264 101 264 108.5 245.5 c 128,-1,28
 116 227 116 227 116 207 c 2,29,-1
 116 125 l 1,30,31
 120 126 120 126 123 126.5 c 128,-1,32
 126 127 126 127 130 127 c 0,33,34
 156 127 156 127 176.5 109 c 128,-1,35
 197 91 197 91 197 63 c 0,36,37
 197 37 197 37 178 18.5 c 128,-1,38
 159 0 159 0 133 0 c 0,39,40
 110 0 110 0 90.5 17.5 c 128,-1,41
 71 35 71 35 71 60 c 2,42,-1
 71 207 l 2,0,1
99 63 m 0,43,44
 99 49 99 49 109 39 c 128,-1,45
 119 29 119 29 133 29 c 256,46,47
 147 29 147 29 157.5 39 c 128,-1,48
 168 49 168 49 168 63 c 256,49,50
 168 77 168 77 157.5 87 c 128,-1,51
 147 97 147 97 133 97 c 256,52,53
 119 97 119 97 109 86.5 c 128,-1,54
 99 76 99 76 99 63 c 0,43,44
EndSplineSet
EndChar
StartChar: uni0E25
Encoding: 3621 3621 248
Width: 399
Flags: W
Fore
345 0 m 1,0,-1
 299 0 l 1,1,-1
 299 118 l 2,2,3
 298 136 298 136 289 153.5 c 128,-1,4
 280 171 280 171 266.5 184.5 c 128,-1,5
 253 198 253 198 236 206 c 128,-1,6
 219 214 219 214 201 214 c 256,7,8
 183 214 183 214 166 206.5 c 128,-1,9
 149 199 149 199 135.5 187 c 128,-1,10
 122 175 122 175 113.5 159 c 128,-1,11
 105 143 105 143 102 125 c 1,12,13
 111 128 111 128 119 128 c 0,14,15
 143 128 143 128 162.5 109 c 128,-1,16
 182 90 182 90 182 64 c 256,17,18
 182 38 182 38 163 19 c 128,-1,19
 144 0 144 0 119 0 c 0,20,21
 93 0 93 0 75 18.5 c 128,-1,22
 57 37 57 37 55 62 c 0,23,24
 54 69 54 69 54 76 c 128,-1,25
 54 90 l 0,26,27
 54 125 54 125 63 158 c 128,-1,28
 72 191 72 191 100 215 c 0,29,30
 122 236 122 236 148 247.5 c 128,-1,31
 174 259 174 259 202 259 c 0,32,33
 231 259 231 259 254 245 c 128,-1,34
 277 231 277 231 300 204 c 1,35,-1
 300 295 l 2,36,37
 300 316 300 316 284 336 c 128,-1,38
 268 356 268 356 245 356 c 2,39,-1
 181 356 l 2,40,41
 161 356 161 356 142.5 346.5 c 128,-1,42
 124 337 124 337 109.5 321.5 c 128,-1,43
 95 306 95 306 86.5 286 c 128,-1,44
 78 266 78 266 77 244 c 1,45,-1
 31 244 l 1,46,47
 31 272 31 272 42.5 299.5 c 128,-1,48
 54 327 54 327 74 348.5 c 128,-1,49
 94 370 94 370 121.5 383 c 128,-1,50
 149 396 149 396 181 396 c 2,51,-1
 245 396 l 2,52,53
 266 396 266 396 284 388 c 128,-1,54
 302 380 302 380 315.5 366.5 c 128,-1,55
 329 353 329 353 337 334.5 c 128,-1,56
 345 316 345 316 345 295 c 2,57,-1
 345 0 l 1,0,-1
84 64 m 0,58,59
 84 50 84 50 94 39.5 c 128,-1,60
 104 29 104 29 119 29 c 0,61,62
 133 29 133 29 143 39.5 c 128,-1,63
 153 50 153 50 153 64 c 256,64,65
 153 78 153 78 143.5 88.5 c 128,-1,66
 134 99 134 99 117 99 c 0,67,68
 101 99 101 99 92.5 88 c 128,-1,69
 84 77 84 77 84 64 c 0,58,59
EndSplineSet
EndChar
StartChar: uni0E26
Encoding: 3622 3622 249
Width: 410
Flags: W
Fore
357 -165 m 1,0,-1
 312 -165 l 1,1,-1
 312 296 l 2,2,3
 312 319 312 319 295 337.5 c 128,-1,4
 278 356 278 356 256 356 c 2,5,-1
 193 356 l 2,6,7
 162 356 162 356 135.5 333.5 c 128,-1,8
 109 311 109 311 98 283 c 1,9,10
 107 280 107 280 117 272.5 c 128,-1,11
 127 265 127 265 135.5 254.5 c 128,-1,12
 144 244 144 244 149.5 232 c 128,-1,13
 155 220 155 220 155 207 c 2,14,-1
 155 61 l 2,15,16
 153 37 153 37 134.5 18.5 c 128,-1,17
 116 0 116 0 92 0 c 0,18,19
 66 0 66 0 47 19 c 128,-1,20
 28 38 28 38 28 64 c 256,21,22
 28 90 28 90 47 108.5 c 128,-1,23
 66 127 66 127 92 127 c 0,24,25
 104 127 104 127 110 125 c 1,26,-1
 110 206 l 2,27,28
 110 214 110 214 104 223.5 c 128,-1,29
 98 233 98 233 88.5 241.5 c 128,-1,30
 79 250 79 250 67 256 c 128,-1,31
 55 262 55 262 44 263 c 1,32,33
 47 291 47 291 60.5 315.5 c 128,-1,34
 74 340 74 340 94.5 358 c 128,-1,35
 115 376 115 376 141 386 c 128,-1,36
 167 396 167 396 195 396 c 2,37,-1
 256 396 l 2,38,39
 275 396 275 396 293 387.5 c 128,-1,40
 311 379 311 379 325.5 365.5 c 128,-1,41
 340 352 340 352 348.5 333.5 c 128,-1,42
 357 315 357 315 357 296 c 2,43,-1
 357 -165 l 1,0,-1
57 64 m 256,44,45
 57 50 57 50 67.5 40 c 128,-1,46
 78 30 78 30 92 30 c 256,47,48
 106 30 106 30 116 40.5 c 128,-1,49
 126 51 126 51 126 64 c 0,50,51
 126 78 126 78 116 88 c 128,-1,52
 106 98 106 98 92 98 c 256,53,54
 78 98 78 98 67.5 88 c 128,-1,55
 57 78 57 78 57 64 c 256,44,45
EndSplineSet
EndChar
StartChar: uni0E27
Encoding: 3623 3623 250
Width: 347
Flags: W
Fore
249 301 m 2,0,1
 249 318 249 318 237 336 c 128,-1,2
 225 354 225 354 205 356 c 2,3,-1
 163 356 l 2,4,5
 143 354 143 354 125.5 343 c 128,-1,6
 108 332 108 332 94 318 c 0,7,8
 84 309 84 309 78.5 299 c 128,-1,9
 73 289 73 289 68 278 c 1,10,-1
 25 293 l 1,11,12
 32 314 32 314 46 332.5 c 128,-1,13
 60 351 60 351 78.5 365 c 128,-1,14
 97 379 97 379 118.5 387 c 128,-1,15
 140 395 140 395 163 395 c 2,16,-1
 205 395 l 2,17,18
 222 394 222 394 238 385.5 c 128,-1,19
 254 377 254 377 266.5 364.5 c 128,-1,20
 279 352 279 352 286.5 335.5 c 128,-1,21
 294 319 294 319 294 301 c 2,22,-1
 294 63 l 2,23,24
 294 37 294 37 275 18.5 c 128,-1,25
 256 0 256 0 231 0 c 0,26,27
 205 0 205 0 186.5 18.5 c 128,-1,28
 168 37 168 37 168 63 c 256,29,30
 168 89 168 89 187 108 c 128,-1,31
 206 127 206 127 231 127 c 0,32,33
 240 127 240 127 249 124 c 1,34,-1
 249 301 l 2,0,1
231 98 m 256,35,36
 217 98 217 98 207 87.5 c 128,-1,37
 197 77 197 77 197 63 c 0,38,39
 197 48 197 48 206.5 38.5 c 128,-1,40
 216 29 216 29 231 29 c 0,41,42
 245 29 245 29 255.5 39 c 128,-1,43
 266 49 266 49 266 63 c 256,44,45
 266 77 266 77 255.5 87.5 c 128,-1,46
 245 98 245 98 231 98 c 256,35,36
EndSplineSet
EndChar
StartChar: uni0E28
Encoding: 3624 3624 251
Width: 421
Flags: W
Fore
268 396 m 2,0,1
 282 396 282 396 294 392.5 c 128,-1,2
 306 389 306 389 317 384 c 1,3,4
 322 401 322 401 325.5 418.5 c 128,-1,5
 329 436 329 436 329 454 c 1,6,-1
 372 454 l 1,7,8
 372 428 372 428 366.5 403 c 128,-1,9
 361 378 361 378 351 355 c 1,10,11
 369 329 369 329 369 296 c 2,12,-1
 369 0 l 1,13,-1
 324 0 l 1,14,-1
 324 296 l 2,15,16
 324 298 324 298 323.5 301 c 128,-1,17
 323 304 323 304 323 306 c 1,18,19
 293 265 293 265 252 243 c 1,20,21
 272 223 272 223 272 197 c 256,22,23
 272 171 272 171 253.5 152.5 c 128,-1,24
 235 134 235 134 209 134 c 0,25,26
 184 134 184 134 165 151 c 1,27,-1
 111 0 l 1,28,-1
 53 0 l 1,29,-1
 53 247 l 2,30,31
 53 276 53 276 66 303 c 128,-1,32
 79 330 79 330 100 350.5 c 128,-1,33
 121 371 121 371 148 383.5 c 128,-1,34
 175 396 175 396 204 396 c 2,35,-1
 268 396 l 2,0,1
148 216 m 2,36,37
 154 233 154 233 168.5 245 c 128,-1,38
 183 257 183 257 202 259 c 1,39,40
 231 267 231 267 256 290 c 128,-1,41
 281 313 281 313 299 344 c 1,42,43
 284 356 284 356 268 356 c 2,44,-1
 204 356 l 2,45,46
 183 356 183 356 164.5 346.5 c 128,-1,47
 146 337 146 337 132 321.5 c 128,-1,48
 118 306 118 306 109 286.5 c 128,-1,49
 100 267 100 267 98 247 c 2,50,-1
 98 73 l 1,51,-1
 148 216 l 2,36,37
174 197 m 0,52,53
 174 182 174 182 184.5 172.5 c 128,-1,54
 195 163 195 163 209 163 c 0,55,56
 222 163 222 163 232.5 173 c 128,-1,57
 243 183 243 183 243 197 c 0,58,59
 243 212 243 212 233 221.5 c 128,-1,60
 223 231 223 231 209 231 c 256,61,62
 195 231 195 231 184.5 221 c 128,-1,63
 174 211 174 211 174 197 c 0,52,53
EndSplineSet
EndChar
StartChar: uni0E29
Encoding: 3625 3625 252
Width: 442
Flags: W
Fore
277 40 m 2,0,1
 298 40 298 40 315 59.5 c 128,-1,2
 332 79 332 79 332 101 c 2,3,-1
 332 155 l 1,4,-1
 274 155 l 2,5,6
 257 155 257 155 241 158.5 c 128,-1,7
 225 162 225 162 212 170 c 128,-1,8
 199 178 199 178 191 191 c 128,-1,9
 183 204 183 204 183 222 c 0,10,11
 183 245 183 245 201 263.5 c 128,-1,12
 219 282 219 282 242 282 c 0,13,14
 266 282 266 282 284 263.5 c 128,-1,15
 302 245 302 245 302 222 c 0,16,17
 302 200 302 200 291 186 c 1,18,-1
 332 186 l 1,19,-1
 332 396 l 1,20,-1
 377 396 l 1,21,-1
 377 201 l 1,22,23
 391 209 391 209 402 223.5 c 128,-1,24
 413 238 413 238 419 255 c 1,25,-1
 450 255 l 1,26,27
 440 223 440 223 422.5 200.5 c 128,-1,28
 405 178 405 178 377 167 c 1,29,-1
 377 99 l 2,30,31
 377 79 377 79 369 61.5 c 128,-1,32
 361 44 361 44 347 30 c 128,-1,33
 333 16 333 16 315 8 c 128,-1,34
 297 0 297 0 277 0 c 2,35,-1
 151 0 l 2,36,37
 134 0 134 0 121 14.5 c 128,-1,38
 108 29 108 29 108 46 c 2,39,-1
 108 272 l 1,40,41
 99 269 99 269 90 269 c 0,42,43
 64 269 64 269 45 288 c 128,-1,44
 26 307 26 307 26 333 c 256,45,46
 26 359 26 359 45.5 377.5 c 128,-1,47
 65 396 65 396 91 396 c 0,48,49
 116 396 116 396 134.5 376.5 c 128,-1,50
 153 357 153 357 153 332 c 2,51,-1
 153 40 l 1,52,-1
 277 40 l 2,0,1
55 333 m 256,53,54
 55 319 55 319 65 308.5 c 128,-1,55
 75 298 75 298 90 298 c 0,56,57
 104 298 104 298 114 309.5 c 128,-1,58
 124 321 124 321 124 335 c 256,59,60
 124 349 124 349 113.5 358.5 c 128,-1,61
 103 368 103 368 90 368 c 0,62,63
 76 368 76 368 65.5 357.5 c 128,-1,64
 55 347 55 347 55 333 c 256,53,54
210 222 m 0,65,66
 210 208 210 208 219.5 198.5 c 128,-1,67
 229 189 229 189 242 189 c 0,68,69
 256 189 256 189 265.5 198.5 c 128,-1,70
 275 208 275 208 275 222 c 256,71,72
 275 236 275 236 265 245.5 c 128,-1,73
 255 255 255 255 242 255 c 0,74,75
 230 255 230 255 220 245 c 128,-1,76
 210 235 210 235 210 222 c 0,65,66
EndSplineSet
EndChar
StartChar: uni0E2A
Encoding: 3626 3626 253
Width: 431
Flags: W
Fore
84 112 m 2,0,1
 84 137 84 137 93.5 161 c 128,-1,2
 103 185 103 185 119.5 204.5 c 128,-1,3
 136 224 136 224 158 238 c 128,-1,4
 180 252 180 252 206 257 c 0,5,6
 235 265 235 265 261.5 288.5 c 128,-1,7
 288 312 288 312 306 344 c 1,8,9
 292 356 292 356 276 356 c 2,10,-1
 210 356 l 2,11,12
 190 356 190 356 171 346 c 128,-1,13
 152 336 152 336 137.5 320 c 128,-1,14
 123 304 123 304 114.5 284 c 128,-1,15
 106 264 106 264 106 243 c 1,16,-1
 60 243 l 1,17,18
 60 273 60 273 72 300.5 c 128,-1,19
 84 328 84 328 105 349.5 c 128,-1,20
 126 371 126 371 153.5 383.5 c 128,-1,21
 181 396 181 396 212 396 c 2,22,-1
 276 396 l 2,23,24
 289 396 289 396 301 392.5 c 128,-1,25
 313 389 313 389 324 384 c 1,26,27
 329 401 329 401 332.5 418.5 c 128,-1,28
 336 436 336 436 336 454 c 1,29,-1
 379 454 l 1,30,31
 379 403 379 403 357 354 c 1,32,33
 376 327 376 327 376 295 c 2,34,-1
 376 0 l 1,35,-1
 330 0 l 1,36,-1
 330 117 l 1,37,38
 327 138 327 138 318 155.5 c 128,-1,39
 309 173 309 173 295 185.5 c 128,-1,40
 281 198 281 198 264 205 c 128,-1,41
 247 212 247 212 229 212 c 0,42,43
 213 212 213 212 196.5 204.5 c 128,-1,44
 180 197 180 197 166 184.5 c 128,-1,45
 152 172 152 172 142.5 156 c 128,-1,46
 133 140 133 140 131 124 c 1,47,48
 139 126 139 126 147 126 c 0,49,50
 173 126 173 126 192 107.5 c 128,-1,51
 211 89 211 89 211 64 c 0,52,53
 211 38 211 38 192 18.5 c 128,-1,54
 173 -1 173 -1 147 -1 c 0,55,56
 123 -1 123 -1 103.5 18.5 c 128,-1,57
 84 38 84 38 84 62 c 2,58,-1
 84 112 l 2,0,1
113 63 m 0,59,60
 113 49 113 49 125 38.5 c 128,-1,61
 137 28 137 28 151 28 c 0,62,63
 164 28 164 28 173 39 c 128,-1,64
 182 50 182 50 182 63 c 0,65,66
 182 77 182 77 171.5 87 c 128,-1,67
 161 97 161 97 147 97 c 256,68,69
 133 97 133 97 123 86.5 c 128,-1,70
 113 76 113 76 113 63 c 0,59,60
330 295 m 2,71,72
 330 297 330 297 329.5 299.5 c 128,-1,73
 329 302 329 302 329 305 c 1,74,75
 306 273 306 273 275 251 c 1,76,77
 308 240 308 240 330 215 c 1,78,-1
 330 295 l 2,71,72
EndSplineSet
EndChar
